<svg width="40" height="48" viewBox="0 0 40 48" fill="none" xmlns="http://www.w3.org/2000/svg">
<path fill-rule="evenodd" clip-rule="evenodd" d="M31.0962 44.4902C35.5451 44.2743 39.4022 44.0869 39.3689 40.6974C39.3022 33.9391 39.2964 27.1794 39.2907 20.4185C39.2851 13.7031 39.2794 6.98614 39.2139 0.266388L0.349035 0.266497C0.313929 6.98486 0.310797 13.7 0.307811 20.4149C0.304752 27.1746 0.301656 33.9344 0.265931 40.6969C0.247905 44.1158 4.16811 44.3228 8.65924 44.5598C12.7037 44.7732 17.2013 45.0112 19.8154 47.6165C22.4526 44.9102 27.0177 44.6882 31.0962 44.4903V44.4902Z" fill="#E31E24"/>
<path fill-rule="evenodd" clip-rule="evenodd" d="M39.6356 40.6952C39.6715 44.3406 35.6953 44.5338 31.1091 44.7564C27.0321 44.9543 22.4624 45.1762 19.9149 47.8978L19.8193 48L19.7219 47.8989C19.7099 47.8863 19.6985 47.8746 19.6876 47.8635C17.1572 45.2752 12.6741 45.0385 8.64615 44.8259C4.01937 44.5818 -0.0193046 44.3685 6.94189e-05 40.6957C0.0358312 33.9331 0.0389266 27.1739 0.0419493 20.4148C0.0450083 13.6551 0.0481402 6.89525 0.0838291 0.132705L0.0845575 0.000145669L0.216971 0.000109252L39.3462 0H39.478L39.4793 0.132085C39.5459 6.89568 39.5517 13.6578 39.5574 20.4184C39.5631 27.1782 39.5688 33.9367 39.6355 40.6952H39.6356Z" fill="#E31E24"/>
<path fill-rule="evenodd" clip-rule="evenodd" d="M0.276528 38.4947H39.3493C39.3552 39.229 39.3616 39.9631 39.3689 40.6974C39.4022 44.0869 35.5451 44.2742 31.0962 44.4902C27.0177 44.6881 22.4526 44.9101 19.8154 47.6164C17.2013 45.0111 12.7037 44.7731 8.65924 44.5597C4.16811 44.3227 0.247905 44.1157 0.265931 40.6968C0.269828 39.9627 0.27336 39.2288 0.276528 38.4947V38.4947Z" fill="#393185"/>
<path d="M39.6356 40.6952C39.6715 44.3406 35.6953 44.5338 31.1091 44.7564C27.0321 44.9543 22.4624 45.1762 19.9149 47.8978L19.8193 48L19.7219 47.8989C19.7099 47.8863 19.6985 47.8746 19.6876 47.8635C17.1572 45.2752 12.6741 45.0385 8.64615 44.8259C4.01937 44.5818 -0.0193046 44.3685 6.94189e-05 40.6957C0.0358312 33.9331 0.0389266 27.1739 0.0419493 20.4148C0.0450083 13.6551 0.0481402 6.89525 0.0838291 0.132705L0.0845575 0.000145669L0.216971 0.000109252L39.3462 0H39.478L39.4793 0.132085C39.5459 6.89568 39.5517 13.6578 39.5574 20.4184C39.5631 27.1782 39.5688 33.9367 39.6355 40.6952H39.6356ZM31.0966 44.4901C35.5455 44.2741 39.4026 44.0868 39.3693 40.6973C39.3026 33.939 39.2968 27.1793 39.2912 20.4184C39.2856 13.703 39.2798 6.98603 39.2143 0.266283L0.349457 0.266392C0.31435 6.98476 0.311219 13.6999 0.308232 20.4148C0.305173 27.1745 0.302078 33.9343 0.266353 40.6968C0.248326 44.1157 4.16853 44.3227 8.65966 44.5597C12.7041 44.7731 17.2018 45.0111 19.8158 47.6164C22.453 44.9101 27.0181 44.6881 31.0966 44.4902V44.4901Z" fill="#2B2A29"/>
<path fill-rule="evenodd" clip-rule="evenodd" d="M39.2549 41.6591C38.9346 41.7709 38.5902 41.8319 38.2317 41.8319C37.1242 41.8319 36.1498 41.2511 35.6065 40.3829C35.0633 41.2511 34.0895 41.8319 32.982 41.8319C31.9483 41.8319 31.0306 41.3257 30.471 40.5525C29.9116 41.3258 28.9942 41.8319 27.9604 41.8319C26.9269 41.8319 26.0091 41.3257 25.4495 40.5525C24.8901 41.3258 23.9727 41.8319 22.9392 41.8319C21.8694 41.8319 20.924 41.2899 20.3712 40.4706C19.8183 41.2899 18.8732 41.8319 17.8036 41.8319C16.7699 41.8319 15.852 41.3257 15.2926 40.5525C14.7331 41.3258 13.8158 41.8319 12.7821 41.8319C11.6746 41.8319 10.7004 41.2511 10.157 40.3829C9.61375 41.2511 8.63988 41.8319 7.53239 41.8319C6.49872 41.8319 5.5809 41.3256 5.02139 40.5524C4.46194 41.3257 3.54463 41.8319 2.51089 41.8319C1.62883 41.8319 0.831652 41.4632 0.269041 40.8746C0.266929 40.8163 0.265618 40.7572 0.265909 40.6969C0.268677 40.175 0.271336 39.6533 0.273739 39.1315C0.836058 39.7172 1.63134 40.0837 2.51089 40.0837C3.54463 40.0837 4.46194 39.5775 5.02139 38.8043C5.5809 39.5776 6.49872 40.0837 7.53239 40.0837C8.63988 40.0837 9.61371 39.5029 10.157 38.6348C10.7004 39.503 11.6746 40.0837 12.7821 40.0837C13.8158 40.0837 14.7331 39.5776 15.2926 38.8044C15.852 39.5776 16.7699 40.0837 17.8036 40.0837C18.8732 40.0837 19.8183 39.5418 20.3712 38.7225C20.924 39.5418 21.8694 40.0837 22.9392 40.0837C23.9727 40.0837 24.8901 39.5776 25.4495 38.8044C26.009 39.5776 26.9269 40.0837 27.9604 40.0837C28.9942 40.0837 29.9116 39.5776 30.471 38.8044C31.0306 39.5776 31.9483 40.0837 32.982 40.0837C34.0895 40.0837 35.0632 39.5029 35.6065 38.6348C36.1498 39.503 37.1242 40.0837 38.2317 40.0837C38.63 40.0837 39.0111 40.0084 39.3611 39.8717C39.3636 40.147 39.3661 40.4222 39.3688 40.6974C39.3723 41.052 39.3327 41.3709 39.2549 41.6591L39.2549 41.6591Z" fill="#FEFEFE"/>
<path fill-rule="evenodd" clip-rule="evenodd" d="M18.6032 12.5077C15.5919 10.9806 15.5321 8.71838 16.5433 6.86999C17.5545 5.02159 20.4115 4.63681 23.9156 4.26797C25.9756 4.05125 28.1439 3.1838 29.6075 1.50336C30.4749 5.41552 26.0947 6.36739 23.2109 7.14104C21.5404 7.58919 19.6329 8.33363 19.3079 9.36359C18.9828 10.3935 19.1995 11.3693 19.9042 12.4535C20.1425 10.9358 20.0741 10.0682 21.0968 8.92993C22.4288 7.44731 24.371 7.33369 26.1924 7.03263C27.9802 6.73714 29.8786 6.65316 31.5048 5.89422C30.2038 9.03834 27.5484 9.43697 24.8371 9.85147C23.3896 10.0727 22.4939 10.9608 22.1688 12.3702C22.143 12.4823 22.1076 12.5805 22.067 12.6703H20.9883H19.3621H18.6817C18.6569 12.6188 18.6308 12.5647 18.6031 12.5077L18.6032 12.5077Z" fill="#FECC00"/>
<path fill-rule="evenodd" clip-rule="evenodd" d="M18.1962 13.5919H17.5458L18.6297 30.991L21.6052 31.0065L22.804 13.5919H22.1534V12.6703H20.9879H19.3617H18.1962V13.5919H18.1962ZM21.4488 14.0798L21.1441 29.0956H20.8189L20.9609 14.1069L21.4488 14.0798ZM18.6841 14.0798L19.0907 29.0956H19.4159L19.172 14.1069L18.6841 14.0798ZM20.3644 14.1139L20.2494 29.1024H19.9648L19.8765 14.1205L20.3644 14.1139H20.3644Z" fill="#FEFEFE"/>
<path d="M28.4158 37.9355C27.9625 37.0662 27.3742 36.2756 26.6786 35.5908C26.1034 35.0246 25.4543 34.5304 24.7474 34.1237L20.6416 37.7733L20.1778 38.1958L15.476 33.9807C14.6687 34.4125 13.9318 34.9564 13.2874 35.5908C12.5508 36.3158 12.0987 37.0331 11.5759 37.9199C11.2862 37.0018 10.7576 36.1788 10.059 35.5163C9.84152 35.3101 9.60736 35.1193 9.35892 34.946L6.25442 37.7734L5.79064 38.1958L2.1719 34.9389C1.91974 35.1141 1.68212 35.3073 1.46165 35.5163C0.980249 35.9728 0.579768 36.5054 0.282349 37.0929C0.285262 36.3093 0.287811 35.5257 0.290033 34.7421C0.356385 34.6642 0.428346 34.5877 0.507152 34.513C1.85703 33.233 3.7161 32.4394 5.76038 32.4394C7.80466 32.4394 9.66366 33.233 11.0135 34.513C11.2724 34.7585 11.5056 35.0169 11.7164 35.2904C11.9157 35.0616 12.1248 34.8413 12.3409 34.6286C14.3016 32.6986 17.0058 31.502 19.983 31.502C22.9602 31.502 25.6643 32.6985 27.6251 34.6286C27.8418 34.842 28.0473 35.0583 28.2426 35.2818C28.4566 35.0094 28.6948 34.7555 28.9505 34.513C30.3004 33.233 32.1594 32.4394 34.2036 32.4394C36.181 32.4394 37.985 33.182 39.3226 34.389C39.3262 35.093 39.3302 35.797 39.3348 36.501C39.0958 36.1443 38.8163 35.8141 38.5023 35.5163C38.2819 35.3073 38.0443 35.1141 37.7921 34.939L34.1734 38.1958L33.7096 37.7734L30.605 34.9461C30.3566 35.1194 30.1224 35.3101 29.905 35.5163C29.2302 36.1562 28.6408 37.0301 28.4158 37.9355H28.4158ZM31.9434 34.2484L34.2518 36.326L36.5261 34.2547C35.8167 33.9796 35.0403 33.8279 34.2267 33.8279C33.4194 33.8279 32.6484 33.9773 31.9434 34.2484ZM16.874 33.3717L20.1725 36.326L23.386 33.4782C22.3292 33.0762 21.1817 32.8555 19.983 32.8555C18.8946 32.8555 17.8484 33.0373 16.874 33.3717ZM3.40203 34.2484L5.71042 36.326L7.98478 34.2547C7.27537 33.9796 6.499 33.8279 5.68543 33.8279C4.87803 33.8279 4.10707 33.9773 3.40203 34.2484Z" fill="#FECC00"/>
</svg>
