<svg width="58" height="48" viewBox="0 0 58 48" fill="none" xmlns="http://www.w3.org/2000/svg">
<path fill-rule="evenodd" clip-rule="evenodd" d="M57.3416 4.70162V3.84167L54.8555 5.27962V14.3844L57.3273 12.9568V12.0973L55.7142 13.029V9.37272L57.1324 8.55692V7.76084L55.7142 8.58152V5.63867L57.3416 4.70162ZM48.1883 18.235L49.0715 17.7252L47.8237 13.2088L48.9406 8.68849L48.0568 9.20298L46.9446 13.641L46.6775 13.797V9.99976L45.818 10.4944V19.6047L46.6775 19.1093V14.5931L47.1054 14.3457L48.1883 18.235ZM19.9844 39.2272L21.0237 38.6302C21.2179 38.5137 21.3883 38.5859 21.3883 38.7808V41.6847C21.3807 41.8277 21.3388 41.9668 21.266 42.0902C21.1933 42.2135 21.0919 42.3175 20.9705 42.3934L19.9844 42.9618V39.2272ZM19.125 47.973L19.9844 47.4782V43.768L21.1013 43.122C21.791 42.724 22.2476 41.9178 22.2476 41.2526V38.2853C22.2476 37.61 21.6888 37.3872 21.0237 37.7708L19.125 38.868V47.973ZM25.7096 35.9253V35.0659L23.2235 36.4985V45.6081L25.6946 44.1803V43.3211L24.0829 44.2532V40.597L25.5005 39.7758V38.9846L24.0829 39.8051V36.8624L25.7096 35.9253ZM29.939 32.6234L29.0798 33.1189V36.9163L27.4768 37.8431V34.0416L26.6174 34.5364V43.6461L27.4768 43.1513V38.6349L29.0798 37.7122V42.2286L29.939 41.7331V32.6234ZM33.4257 31.8322V38.494C33.4142 38.6113 33.3753 38.7244 33.312 38.8239C33.2488 38.9235 33.1631 39.0068 33.0617 39.0671L32.2016 39.5673C32.0074 39.6791 31.8377 39.6205 31.8377 39.4125V32.7496C31.851 32.6327 31.8906 32.5204 31.9537 32.4211C32.0167 32.3218 32.1015 32.2382 32.2016 32.1765L33.0617 31.677C33.2559 31.5652 33.4257 31.6381 33.4257 31.8323V31.8322ZM34.2851 31.336C34.2851 30.6614 33.7364 30.4283 33.0617 30.8215L32.2016 31.317C31.5366 31.7007 30.9783 32.5697 30.9783 33.245V39.9066C30.9783 40.582 31.5366 40.8056 32.2016 40.422L33.0617 39.9265C33.7364 39.5387 34.2851 38.6739 34.2851 37.9992V31.336ZM37.0826 32.2977L36.1843 32.8171V29.8749L37.379 29.1853C37.5875 29.064 37.743 29.1416 37.743 29.3407V31.0307C37.743 31.5255 37.5875 32.0067 37.0826 32.2977H37.0826ZM36.1843 33.6097L36.9898 33.1435C37.471 32.8661 37.743 32.7742 37.743 33.3616V36.003C37.7326 36.1207 37.6942 36.2342 37.6308 36.334C37.5675 36.4337 37.4812 36.5168 37.379 36.5763L36.1843 37.2659V33.6097ZM35.3251 29.5104V38.6206L37.379 37.4355C38.0584 37.0423 38.6024 36.183 38.6024 35.5035V32.9533C38.6024 32.5118 38.3686 32.1382 37.8595 32.2494C38.3029 31.8001 38.5671 31.2044 38.6024 30.5742V28.8405C38.6024 28.1652 38.0584 27.9375 37.379 28.3258L35.3251 29.5104ZM41.4285 26.8349L42.0643 31.2537L40.7246 32.0313L41.3603 26.8736L41.4285 26.8349ZM40.2537 35.7748L40.6324 32.8757L42.1571 31.9971L42.5454 34.4539L43.4042 33.9537L42.1658 25.5625L40.6174 26.4559L39.384 36.2749L40.2537 35.7748ZM45.0459 23.9016L44.1865 24.3978V33.5074L47.3235 31.696V33.7112L48.178 33.2157V30.3411L47.4646 30.754V22.5038L46.6045 22.9986V31.2488L45.0459 32.1526L45.0459 23.9016ZM51.9175 21.6636L51.6701 25.0478V29.1853L52.5288 28.6898V19.5803L51.3737 20.2453L49.5622 28.8255L49.4696 28.8555L49.7177 25.3395V21.2021L48.8582 21.6976V30.8073L50.0338 30.1326L51.8255 21.6882L51.9175 21.6636ZM56.7296 18.8858L56.4822 22.2707V26.4074L57.3416 25.9121V16.8025L56.1809 17.4729L54.3743 26.0484L54.2824 26.0777L54.5297 22.5617V18.4245L53.6703 18.9198V28.0294L54.8405 27.3548L56.6376 18.9104L56.7296 18.8858ZM19.9844 34.5174V26.2665L21.7373 25.2565V24.3971L19.125 25.9072V35.0129L19.9844 34.5174ZM25.0153 23.7271V30.3896C25.0038 30.507 24.9648 30.62 24.9016 30.7195C24.8384 30.8191 24.7527 30.9024 24.6513 30.9627L23.7912 31.4629C23.597 31.5747 23.4266 31.5161 23.4266 31.3074V24.6452C23.4399 24.5282 23.4797 24.4159 23.5428 24.3166C23.606 24.2173 23.691 24.1337 23.7912 24.072L24.6513 23.5717C24.8455 23.4607 25.0153 23.533 25.0153 23.7271V23.7271ZM25.8747 23.2323C25.8747 22.557 25.326 22.3239 24.6513 22.7172L23.7912 23.2126C23.1269 23.5956 22.5679 24.4653 22.5679 25.1399V31.8029C22.5679 32.4776 23.1269 32.7012 23.7912 32.3174L24.6513 31.8221C25.326 31.4343 25.8747 30.5695 25.8747 29.8941V23.2323ZM27.9525 21.6683L28.9925 21.0658C29.1867 20.9542 29.3565 21.0271 29.3565 21.222V24.1204C29.3496 24.2629 29.3085 24.4017 29.2367 24.5251C29.165 24.6485 29.0646 24.7528 28.944 24.8292L27.9525 25.4023V21.6683ZM27.0931 30.414L27.9525 29.9185V26.2085L29.0702 25.5625C29.7591 25.1644 30.2164 24.3528 30.2164 23.6931V20.7265C30.2164 20.0463 29.6569 19.8228 28.9925 20.2064L27.0931 21.3043L27.0931 30.414ZM33.8189 18.6479V25.3102C33.8069 25.4274 33.7678 25.5401 33.7046 25.6395C33.6414 25.7389 33.556 25.8222 33.455 25.8828L32.5956 26.3781C32.4014 26.4899 32.2309 26.432 32.2309 26.2235V19.5611C32.2443 19.4442 32.2841 19.3318 32.3472 19.2325C32.4104 19.1332 32.4953 19.0496 32.5956 18.988L33.455 18.4925C33.6492 18.3808 33.8189 18.4489 33.8189 18.6479ZM34.6789 18.1478C34.6789 17.4729 34.1296 17.2447 33.455 17.6331L32.5956 18.1286C31.9303 18.5117 31.3715 19.3812 31.3715 20.0559V26.719C31.3715 27.3977 31.9303 27.6219 32.5956 27.2382L33.455 26.7427C34.1296 26.3495 34.6789 25.4903 34.6789 24.81V18.1478ZM37.024 23.8191C37.5338 22.2803 37.5971 20.7455 37.5971 19.4684V16.0985L39.1312 15.2145V22.606L37.024 23.8191ZM35.5915 27.5245L36.4509 27.0297V25.0091L39.8597 23.0429V25.0574L40.719 24.5619V21.6882L39.9906 22.11V13.8597L36.7377 15.7338V19.9639C36.7377 21.1777 36.684 22.9502 36.0719 24.3684L35.5915 24.6451V27.5245ZM43.7395 13.9325L44.5996 13.4372V12.4224C44.5996 11.747 44.0509 11.5146 43.3756 11.9032L42.8174 12.2282C42.1515 12.6118 41.5934 13.4815 41.5934 14.1562V20.8184C41.5934 21.498 42.1515 21.7215 42.8174 21.3378L43.3756 21.0128C44.0509 20.6243 44.5996 19.7601 44.5996 19.0848V17.691L43.7395 18.1865V19.5803C43.7281 19.6976 43.6892 19.8105 43.6259 19.91C43.5627 20.0094 43.4769 20.0926 43.3756 20.1527L42.8174 20.4784C42.6184 20.5902 42.4528 20.5316 42.4528 20.3236V13.6607C42.4652 13.5435 42.5046 13.4308 42.5679 13.3313C42.6311 13.2319 42.7165 13.1485 42.8174 13.0876L43.3756 12.7624C43.5847 12.6404 43.7395 12.7229 43.7395 12.9178V13.9325ZM53.0243 8.06686L52.7769 11.4464V15.5838L53.6363 15.0883V5.98287L52.4756 6.64863L50.6697 15.2288L50.5769 15.2534L50.825 11.7423V7.60486L49.9651 8.10104V17.2107L51.1359 16.5305L52.9322 8.09145L53.0243 8.06686Z" fill="white"/>
<path fill-rule="evenodd" clip-rule="evenodd" d="M38.2227 11.0328L19.1141 22.0711L0 11.0328L19.1141 0L38.2227 11.0328Z" fill="#53A06C"/>
</svg>
