<svg width="70" height="81" viewBox="0 0 70 81" fill="none" xmlns="http://www.w3.org/2000/svg">
<path d="M59.5252 56.3007C59.1195 51.5397 57.1987 11.0175 44.5927 26.5082C42.3764 29.2311 39.0554 37.9111 35.317 38.6311C28.5672 39.9304 26.0507 14.9693 25.455 11.2731C25.0962 9.04274 21.7048 9.99023 22.0637 12.2089C23.1636 19.0431 27.8566 53.8827 40.9457 38.0214C42.557 36.0677 46.9474 26.3441 49.675 26.3277C54.8088 26.2972 55.761 53.423 56.0073 56.303C56.1996 58.5405 59.7176 58.5592 59.5252 56.3007Z" fill="white"/>
<path d="M59.5252 56.3007C59.1195 51.5397 57.1987 11.0175 44.5927 26.5082C42.3764 29.2311 39.0554 37.9111 35.317 38.6311C28.5672 39.9304 26.0507 14.9693 25.455 11.2731C25.0962 9.04274 21.7048 9.99023 22.0637 12.2089C23.1636 19.0431 27.8566 53.8827 40.9457 38.0214C42.557 36.0677 46.9474 26.3441 49.675 26.3277C54.8088 26.2972 55.761 53.423 56.0073 56.303C56.1996 58.5405 59.7176 58.5592 59.5252 56.3007Z" fill="url(#paint0_radial)"/>
<g filter="url(#filter0_d)">
<path d="M56.0072 11.74C55.8923 18.79 55.8478 29.4189 47.5243 31.7713C43.5208 32.9041 39.1445 31.8979 35.059 32.5265C23.3887 34.323 22.1621 46.4318 22.0003 56.3008C21.9628 58.5664 25.4807 58.5664 25.5183 56.3008C25.6332 49.2508 25.6777 38.6219 34.0012 36.2696C38.0047 35.1368 42.381 36.1429 46.4666 35.5144C58.1368 33.7179 59.3634 21.6091 59.5252 11.74C59.5627 9.47444 56.0448 9.47444 56.0072 11.74Z" fill="white"/>
<path d="M56.0072 11.74C55.8923 18.79 55.8478 29.4189 47.5243 31.7713C43.5208 32.9041 39.1445 31.8979 35.059 32.5265C23.3887 34.323 22.1621 46.4318 22.0003 56.3008C21.9628 58.5664 25.4807 58.5664 25.5183 56.3008C25.6332 49.2508 25.6777 38.6219 34.0012 36.2696C38.0047 35.1368 42.381 36.1429 46.4666 35.5144C58.1368 33.7179 59.3634 21.6091 59.5252 11.74C59.5627 9.47444 56.0448 9.47444 56.0072 11.74Z" fill="url(#paint1_radial)"/>
<path d="M56.0072 11.74C55.8923 18.79 55.8478 29.4189 47.5243 31.7713C43.5208 32.9041 39.1445 31.8979 35.059 32.5265C23.3887 34.323 22.1621 46.4318 22.0003 56.3008C21.9628 58.5664 25.4807 58.5664 25.5183 56.3008C25.6332 49.2508 25.6777 38.6219 34.0012 36.2696C38.0047 35.1368 42.381 36.1429 46.4666 35.5144C58.1368 33.7179 59.3634 21.6091 59.5252 11.74C59.5627 9.47444 56.0448 9.47444 56.0072 11.74Z" fill="url(#paint2_radial)"/>
</g>
<path d="M25.4548 11.2731C26.0505 14.9693 28.5669 39.9304 35.3167 38.6311C35.3167 38.6311 40.2207 41.5397 34.6947 42.0133C26.0876 42.7509 22.9762 17.8805 22.0634 12.2089C21.7046 9.99023 25.0959 9.04274 25.4548 11.2731Z" fill="white"/>
<path d="M56.0069 56.303C55.7606 53.423 54.8084 26.2972 49.6746 26.3277L50.1493 23.0143C57.8087 23.7846 59.1882 52.3506 59.5248 56.3007C59.7172 58.5592 56.1992 58.5404 56.0069 56.303Z" fill="white"/>
<defs>
<filter id="filter0_d" x="0.164951" y="0.893" width="69.5255" height="79.9592" filterUnits="userSpaceOnUse" color-interpolation-filters="sRGB">
<feFlood flood-opacity="0" result="BackgroundImageFix"/>
<feColorMatrix in="SourceAlpha" type="matrix" values="0 0 0 0 0 0 0 0 0 0 0 0 0 0 0 0 0 0 127 0"/>
<feOffset dx="-5.83505" dy="6.85217"/>
<feGaussianBlur stdDeviation="8"/>
<feColorMatrix type="matrix" values="0 0 0 0 0 0 0 0 0 0 0 0 0 0 0 0 0 0 0.19 0"/>
<feBlend mode="normal" in2="BackgroundImageFix" result="effect1_dropShadow"/>
<feBlend mode="normal" in="SourceGraphic" in2="effect1_dropShadow" result="shape"/>
</filter>
<radialGradient id="paint0_radial" cx="0" cy="0" r="1" gradientUnits="userSpaceOnUse" gradientTransform="translate(41.6751 34.696) rotate(24.5514) scale(7.53892 3.43585)">
<stop stop-opacity="0.5"/>
<stop offset="1" stop-color="white" stop-opacity="0"/>
</radialGradient>
<radialGradient id="paint1_radial" cx="0" cy="0" r="1" gradientUnits="userSpaceOnUse" gradientTransform="translate(29.521 36.8833) rotate(80.4399) scale(3.29213 2.9774)">
<stop stop-opacity="0.5"/>
<stop offset="1" stop-color="white" stop-opacity="0"/>
</radialGradient>
<radialGradient id="paint2_radial" cx="0" cy="0" r="1" gradientUnits="userSpaceOnUse" gradientTransform="translate(53.3393 29.5931) rotate(70.2673) scale(4.45336 2.88317)">
<stop stop-opacity="0.4"/>
<stop offset="1" stop-color="white" stop-opacity="0"/>
</radialGradient>
</defs>
</svg>
