<svg width="87" height="40" viewBox="0 0 87 40" fill="none" xmlns="http://www.w3.org/2000/svg">
<g clip-path="url(#clip0)">
<path fill-rule="evenodd" clip-rule="evenodd" d="M86.9983 9.64208H82.7392V18.8026H79.6464V9.64208H75.3873V6.54893H86.9983V9.64208ZM61.2768 22.6094H58.1834V18.8025H46.0488V6.54883H49.142V15.7095H54.8524V6.54883H57.9454V15.7095H61.2767V22.6094H61.2768ZM71.6986 12.6639C71.6986 10.2368 70.842 9.64208 68.8672 9.64208C66.8922 9.64208 66.0357 10.2368 66.0357 12.6639C66.0357 15.1143 66.8922 15.7095 68.8672 15.7095C70.842 15.7095 71.6986 15.1144 71.6986 12.6639ZM74.7916 12.6639C74.7916 16.1613 73.1975 18.8025 69.4619 18.8025C68.0345 18.8025 66.8446 18.279 66.0357 17.4225V22.6094H62.9426V6.54883H66.0357V7.90492C66.8446 7.07229 68.0345 6.54883 69.4619 6.54883C73.1975 6.54883 74.7916 9.16615 74.7916 12.6639V12.6639Z" fill="white"/>
<path fill-rule="evenodd" clip-rule="evenodd" d="M49.4864 29.412H48.8006V28.5675H46.1093V25.8497H46.7954V27.8814H48.0619V25.8497H48.7478V27.8814H49.4864V29.4121V29.412ZM73.65 29.8086H74.1252C74.1252 30.0725 74.2568 30.125 74.4412 30.125C74.6262 30.125 74.758 30.0724 74.758 29.8086H75.2332C75.2332 30.4313 74.8635 30.6002 74.4412 30.6002C74.0193 30.6002 73.65 30.4419 73.65 29.8086ZM75.6923 31.1281V33.8459H75.006V32.3733H74.9218L73.819 33.8459H73.1329V31.1281H73.819V32.5949H73.9033L75.006 31.1281H75.6923ZM72.5253 31.1281V33.8459H71.8391V32.3733H71.7548L70.6521 33.8459H69.9659V31.1281H70.6521V32.5949H70.7363L71.8391 31.1281H72.5253ZM68.8306 32.4838C68.8306 31.9457 68.6408 31.8139 68.2027 31.8139C67.7649 31.8139 67.5747 31.9458 67.5747 32.4838C67.5747 33.0278 67.7649 33.1596 68.2027 33.1596C68.6408 33.1596 68.8306 33.0277 68.8306 32.4838ZM69.5169 32.4838C69.5169 33.2599 69.1634 33.8459 68.3346 33.8459C68.0183 33.8459 67.7543 33.7293 67.5747 33.5396V34.69H66.8886V31.1281H67.5747V31.4286C67.7543 31.244 68.0182 31.1281 68.3346 31.1281C69.1634 31.1281 69.5169 31.7084 69.5169 32.4838ZM65.569 32.4838C65.569 31.9564 65.4056 31.8139 64.941 31.8139C64.4767 31.8139 64.3131 31.9564 64.3131 32.4838C64.3131 33.0118 64.4763 33.1596 64.941 33.1596C65.4056 33.1596 65.569 33.0118 65.569 32.4838ZM63.6273 32.4838C63.6273 31.7084 64.0859 31.1281 64.941 31.1281C65.7961 31.1281 66.255 31.7084 66.255 32.4838C66.255 33.2599 65.7961 33.8459 64.941 33.8459C64.0859 33.8459 63.6273 33.2599 63.6273 32.4838ZM63.4156 31.8139H62.4713V33.846H61.7847V31.8139H60.8404V31.1281H63.4156V31.8139V31.8139ZM60.4441 31.1281V33.8459H59.758V32.3733H59.6737L58.5705 33.8459H57.8846V31.1281H58.5705V32.5949H58.6551L59.7579 31.1281H60.444H60.4441ZM56.7495 32.4838C56.7495 31.9457 56.5594 31.8139 56.1216 31.8139C55.6834 31.8139 55.4933 31.9458 55.4933 32.4838C55.4933 33.0278 55.6834 33.1596 56.1216 33.1596C56.5594 33.1596 56.7495 33.0277 56.7495 32.4838ZM57.4357 32.4838C57.4357 33.2599 57.0822 33.8459 56.2535 33.8459C55.9368 33.8459 55.6732 33.7293 55.4933 33.5396V34.69H54.8074V31.1281H55.4933V31.4286C55.6732 31.244 55.9367 31.1281 56.2535 31.1281C57.0822 31.1281 57.4357 31.7084 57.4357 32.4838ZM53.6722 32.4838C53.6722 31.9457 53.4824 31.8139 53.0443 31.8139C52.6065 31.8139 52.4167 31.9458 52.4167 32.4838C52.4167 33.0278 52.6065 33.1596 53.0443 33.1596C53.4824 33.1596 53.6722 33.0277 53.6722 32.4838ZM54.3585 32.4838C54.3585 33.2599 54.005 33.8459 53.1762 33.8459C52.8599 33.8459 52.5959 33.7293 52.4167 33.5396V34.69H51.7305V31.1281H52.4167V31.4286C52.5959 31.244 52.8598 31.1281 53.1762 31.1281C54.005 31.1281 54.3585 31.7084 54.3585 32.4838ZM49.5346 32.2203H50.5374C50.516 31.9193 50.3633 31.8138 50.0358 31.8138C49.7195 31.8138 49.5662 31.9352 49.5346 32.2203V32.2203ZM51.2286 32.7479H49.5611C49.6193 33.0118 49.7932 33.1596 50.2892 33.1596C50.4476 33.1596 50.685 33.1596 51.0494 33.075V33.7505C50.6377 33.8458 50.437 33.8458 50.2367 33.8458C49.0175 33.8458 48.8435 32.9853 48.8435 32.4893C48.8435 31.7346 49.1706 31.128 50.0465 31.128C50.9013 31.128 51.2287 31.6924 51.2287 32.4311V32.7478L51.2286 32.7479ZM48.6318 31.8138H47.6872V33.8459H47.0013V31.8138H46.0566V31.128H48.6318V31.8138V31.8138ZM86.2584 26.5358H85.736C85.4142 26.5358 85.3141 26.5623 85.3141 26.7733C85.3141 26.974 85.4142 27.0213 85.736 27.0213H86.2584V26.5357V26.5358ZM86.9447 25.8497V28.5675H86.2584V27.7074H85.3141V28.5675H84.6279V27.4749H85.4142V27.3906C84.8866 27.3328 84.6279 27.2376 84.6279 26.6679C84.6279 26.0872 84.8866 25.8498 85.8943 25.8498H86.9447V25.8497ZM84.0734 25.8497V28.5675H83.3876V27.095H83.3029L82.2002 28.5675H81.514V25.8497H82.2002V27.3169H82.2845L83.3877 25.8497H84.0735H84.0734ZM81.0914 26.5358H80.147V28.5676H79.4608V26.5358H78.5161V25.8497H81.0914V26.5358ZM78.1199 25.8497V28.5675H77.4337V27.095H77.3495L76.2462 28.5675H75.5604V25.8497H76.2462V27.3169H76.3309L77.4336 25.8497H78.1198H78.1199ZM74.3726 27.6652C74.3726 27.4913 74.3042 27.4489 74.0616 27.4489H73.5338V27.8814H74.0616C74.3042 27.8814 74.3726 27.8394 74.3726 27.6652ZM73.5337 26.895H74.0456C74.2354 26.895 74.2935 26.8736 74.2935 26.7154C74.2935 26.557 74.2353 26.5357 74.0456 26.5357H73.5337V26.8949V26.895ZM75.0588 27.8288C75.0588 28.2353 74.8369 28.5675 74.1299 28.5675H72.8476V25.8497H74.1299C74.7631 25.8497 74.9794 26.1559 74.9794 26.5623C74.9794 26.895 74.784 27.095 74.3991 27.1162V27.2008C74.8422 27.222 75.0588 27.4277 75.0588 27.8288V27.8288ZM70.7732 27.5649C70.7732 27.8076 70.884 27.8813 71.2696 27.8813C71.5702 27.8813 71.6597 27.8129 71.6597 27.6704C71.6597 27.4911 71.5224 27.4541 71.3323 27.4541H71.1002V26.9264H71.3323C71.4854 26.9264 71.5909 26.8892 71.5909 26.7309C71.5909 26.5782 71.4699 26.5357 71.2533 26.5357C70.9739 26.5357 70.8628 26.5888 70.8628 26.7732H70.1769C70.1769 26.2877 70.5304 25.8496 71.2533 25.8496C71.9235 25.8496 72.277 26.2352 72.277 26.5887C72.277 26.9738 72.0714 27.111 71.7704 27.1478V27.2325C72.1504 27.285 72.3455 27.4698 72.3455 27.8022C72.3455 28.1824 72.0183 28.5674 71.2695 28.5674C70.4405 28.5674 70.087 28.1296 70.087 27.5648H70.7731L70.7732 27.5649ZM68.5828 27.6704C68.5828 27.4593 68.4456 27.3958 68.0865 27.3958C67.7277 27.3958 67.5908 27.4593 67.5908 27.6704C67.5908 27.8813 67.7277 27.9448 68.0865 27.9448C68.4456 27.9448 68.5828 27.8813 68.5828 27.6704ZM69.6118 27.8813V28.5675H68.5828V28.3036C68.4505 28.4408 68.2451 28.5675 67.8491 28.5675C67.2052 28.5675 66.9047 28.1562 66.9047 27.6704C66.9047 27.1849 67.2052 26.7732 67.8491 26.7732C68.2452 26.7732 68.4505 26.8949 68.5828 27.037V26.5357H67.2105V25.8496H69.2686V27.8813H69.6119H69.6118ZM65.8484 27.2061C65.8484 26.6678 65.6586 26.5358 65.2204 26.5358C64.7826 26.5358 64.5925 26.6679 64.5925 27.2061C64.5925 27.7498 64.7826 27.8813 65.2204 27.8813C65.6586 27.8813 65.8484 27.7497 65.8484 27.2061ZM66.5346 27.2061C66.5346 27.9819 66.181 28.5675 65.3527 28.5675C65.0357 28.5675 64.772 28.4514 64.5925 28.2616V29.412H63.9067V25.8497H64.5925V26.1506C64.772 25.9657 65.0356 25.8497 65.3527 25.8497C66.181 25.8497 66.5346 26.4304 66.5346 27.2061V27.2061ZM60.687 27.2061C60.687 26.6678 60.4971 26.5358 60.0587 26.5358C59.6209 26.5358 59.4306 26.6679 59.4306 27.2061C59.4306 27.7498 59.6209 27.8813 60.0587 27.8813C60.4971 27.8813 60.687 27.7497 60.687 27.2061ZM61.3728 27.2061C61.3728 27.9819 61.0193 28.5675 60.191 28.5675C59.8742 28.5675 59.6103 28.4514 59.4306 28.2616V29.412H58.7448V25.8497H59.4306V26.1506C59.6103 25.9657 59.8741 25.8497 60.191 25.8497C61.0196 25.8497 61.3728 26.4304 61.3728 27.2061V27.2061ZM58.2168 26.5358H57.2722V28.5676H56.5859V26.5358H55.6416V25.8497H58.2168V26.5358ZM55.2454 25.8497V28.5675H54.5592V27.5963H53.3509V28.5675H52.6648V25.8497H53.3509V26.9105H54.5592V25.8497H55.2454ZM50.4691 26.9422H51.4717C51.4506 26.6417 51.2975 26.5357 50.9704 26.5357C50.6537 26.5357 50.5005 26.6572 50.4691 26.9422ZM52.1629 27.4699H50.4953C50.5535 27.7339 50.7274 27.8813 51.2238 27.8813C51.3818 27.8813 51.6193 27.8813 51.9837 27.797V28.4725C51.572 28.5674 51.3713 28.5674 51.171 28.5674C49.9518 28.5674 49.7778 27.7073 49.7778 27.2113C49.7778 26.4567 50.1049 25.8496 50.9807 25.8496C51.8359 25.8496 52.163 26.4144 52.163 27.1531V27.4698L52.1629 27.4699Z" fill="white"/>
<path fill-rule="evenodd" clip-rule="evenodd" d="M20.0682 14.7341C20.9092 14.7461 21.703 14.9546 22.4043 15.3169C22.1486 15.5574 21.8036 15.7052 21.4243 15.7052C20.6334 15.7052 19.9927 16.3462 19.9927 17.1368C19.9927 17.9274 19.3517 18.5684 18.5612 18.5684C17.7702 18.5684 17.1296 19.2093 17.1296 19.9999C17.1296 20.7905 16.4886 21.4315 15.6981 21.4315C15.437 21.4315 15.1922 21.5013 14.9816 21.6234C15.2839 22.5569 15.8396 23.376 16.5673 24.0001C16.9092 23.7386 17.1296 23.3266 17.1296 22.8631C17.1296 22.0725 17.7702 21.4315 18.5612 21.4315C19.3517 21.4315 19.9927 20.7905 19.9927 19.9999C19.9927 19.2093 20.6334 18.5684 21.4243 18.5684C22.2149 18.5684 22.8559 17.9274 22.8559 17.1368C22.8559 16.6732 23.0764 16.2612 23.4179 15.9994C24.146 16.6235 24.7016 17.443 25.0039 18.3764C24.793 18.4981 24.5485 18.5684 24.2871 18.5684C23.4965 18.5684 22.8559 19.2093 22.8559 19.9999C22.8559 20.7905 22.2149 21.4315 21.4243 21.4315C20.6334 21.4315 19.9927 22.0725 19.9927 22.8631C19.9927 23.6535 19.3517 24.2942 18.5612 24.2942C18.1817 24.2942 17.8369 24.442 17.5808 24.6826C18.2825 25.0445 19.0759 25.2537 19.9169 25.2654C19.725 24.7006 19.1905 24.2941 18.5612 24.2941C17.7702 24.2941 17.1296 23.6534 17.1296 22.863C17.1296 22.0724 16.4886 21.4314 15.6981 21.4314C15.3824 21.4314 15.0902 21.3291 14.8535 21.1559C14.7703 20.7837 14.7261 20.3966 14.7261 19.9998C14.7261 19.6025 14.7703 19.2156 14.8535 18.8438C15.0902 18.6707 15.3823 18.5683 15.6981 18.5683C16.4886 18.5683 17.1296 17.9273 17.1296 17.1367C17.1296 16.3461 17.7702 15.7051 18.5612 15.7051C19.1905 15.7051 19.725 15.2987 19.9169 14.7339C19.0759 14.7459 18.2825 14.9544 17.5808 15.3167C17.8369 15.5572 18.1816 15.705 18.5612 15.705C19.3517 15.705 19.9927 16.346 19.9927 17.1366C19.9927 17.9272 20.6334 18.5682 21.4243 18.5682C22.2149 18.5682 22.8559 19.2091 22.8559 19.9997C22.8559 20.7903 23.4965 21.4313 24.2871 21.4313C24.5485 21.4313 24.793 21.5011 25.0039 21.6232C24.7016 22.5567 24.146 23.3762 23.4179 23.9999C23.0764 23.7384 22.8559 23.3264 22.8559 22.8629C22.8559 22.0723 22.2149 21.4313 21.4243 21.4313C20.6334 21.4313 19.9927 20.7903 19.9927 19.9997C19.9927 19.2091 19.3517 18.5682 18.5612 18.5682C17.7702 18.5682 17.1296 17.9272 17.1296 17.1366C17.1296 16.673 16.9092 16.261 16.5673 15.9992C15.8396 16.6233 15.2839 17.4428 14.9816 18.3762C15.1922 18.4979 15.437 18.5682 15.6981 18.5682C16.4886 18.5682 17.1296 19.2091 17.1296 19.9997C17.1296 20.7903 17.7702 21.4313 18.5612 21.4313C19.3517 21.4313 19.9927 22.0723 19.9927 22.8629C19.9927 23.6533 20.6334 24.294 21.4243 24.294C21.8035 24.294 22.1486 24.4418 22.4043 24.6824C21.703 25.0447 20.9092 25.2535 20.0682 25.2652C20.2601 24.7004 20.7946 24.2939 21.4243 24.2939C22.2149 24.2939 22.8559 23.6532 22.8559 22.8628C22.8559 22.0722 23.4965 21.4312 24.2871 21.4312C24.6031 21.4312 24.8949 21.3289 25.1316 21.1557C25.2153 20.7835 25.2593 20.3964 25.2593 19.9996C25.2593 19.6023 25.2153 19.2154 25.1316 18.8436C24.8949 18.6705 24.6032 18.5681 24.2871 18.5681C23.4965 18.5681 22.8559 17.9271 22.8559 17.1365C22.8559 16.3459 22.2149 15.7049 21.4243 15.7049C20.7946 15.7049 20.2601 15.2985 20.0682 14.7337V14.7341ZM19.9927 0C22.1352 0 24.1985 0.337625 26.1332 0.961748H13.8518C15.7868 0.337625 17.8502 0 19.9926 0H19.9927ZM28.9879 2.1332C29.6619 2.47332 30.3136 2.85079 30.9411 3.26211H9.04381C9.67143 2.85079 10.3233 2.47332 10.9972 2.1332H28.9878H28.9879ZM32.5488 4.43337C32.9921 4.79176 33.4204 5.16774 33.8319 5.56188H27.1039C27.7993 5.9055 28.4667 6.29735 29.101 6.73373H34.9578C35.2813 7.09812 35.5914 7.47449 35.8877 7.86195H30.5573C30.981 8.23093 31.3849 8.62258 31.7676 9.0335H36.7192C36.9609 9.40138 37.1909 9.77775 37.4086 10.162H32.7265C33.019 10.5398 33.2955 10.9304 33.5539 11.3336H38.0225C38.2007 11.7032 38.3665 12.08 38.522 12.4621H34.212C34.4149 12.8437 34.6026 13.2347 34.7751 13.6336H38.9577C39.0822 14.0051 39.195 14.3816 39.2981 14.7621H35.2119C35.3442 15.1463 35.4628 15.5373 35.5661 15.9337H39.5786C39.6559 16.3062 39.7215 16.6827 39.7772 17.0622H35.8162C35.8871 17.4482 35.9446 17.8391 35.9876 18.2338H39.9143C39.9472 18.607 39.9694 18.9835 39.9814 19.3624H36.0705C36.0789 19.574 36.0842 19.786 36.0842 19.9998C36.0842 20.1787 36.0804 20.3565 36.0747 20.5339H39.9853C39.9754 20.9132 39.9543 21.289 39.9235 21.6625H35.9992C35.9586 22.0577 35.9041 22.4481 35.8355 22.834H39.7917C39.7381 23.2136 39.6741 23.59 39.5994 23.9626H35.5922C35.4917 24.3592 35.3767 24.75 35.2475 25.1342H39.3259C39.2255 25.5151 39.1132 25.8912 38.9911 26.2627H34.8199C34.6513 26.662 34.466 27.0526 34.2664 27.4342H38.5638C38.4107 27.8162 38.2461 28.1927 38.0706 28.5627H33.6179C33.3641 28.9657 33.0929 29.3564 32.8054 29.7343H37.4661C37.2516 30.1184 37.0254 30.4949 36.7865 30.8628H31.8635C31.4875 31.2734 31.0899 31.6647 30.6732 32.0344H35.9667C35.6742 32.4216 35.368 32.7981 35.0491 33.1629H29.2497C28.6337 33.5968 27.9864 33.9891 27.3112 34.3344H33.937C33.5327 34.7278 33.1126 35.1046 32.6766 35.4629H24.4581C23.04 35.8719 21.5421 36.0913 19.9923 36.0913C18.4426 36.0913 16.9443 35.8719 15.5265 35.4629H7.30815C6.87216 35.1046 6.45165 34.7278 6.04732 34.3344H12.6735C11.9984 33.989 11.3506 33.5968 10.735 33.1629H4.93568C4.61643 32.7981 4.31016 32.4217 4.01807 32.0344H9.31113C8.89482 31.6643 8.49728 31.2733 8.12121 30.8628H3.19783C2.95936 30.4949 2.73318 30.1185 2.51868 29.7343H7.17883C6.89133 29.3564 6.62032 28.9656 6.36677 28.5627H1.91393C1.73838 28.1927 1.57351 27.8163 1.42043 27.4342H5.71788C5.51856 27.0522 5.33342 26.6616 5.16436 26.2627H0.993426C0.870998 25.8912 0.759255 25.5151 0.658297 25.1342H4.73676C4.60754 24.75 4.49261 24.3591 4.39205 23.9626H0.385181C0.310086 23.59 0.246575 23.2136 0.192551 22.834H4.14899C4.08019 22.4481 4.02556 22.0576 3.98502 21.6625H0.0610363C0.0304792 21.289 0.00880968 20.9132 -0.000976562 20.5339H3.90993C3.90423 20.3566 3.90004 20.1787 3.90004 19.9998C3.90004 19.786 3.90533 19.574 3.91372 19.3624H0.0028181C0.0152007 18.9835 0.0373695 18.607 0.0702233 18.2338H3.9966C4.04004 17.839 4.09716 17.4482 4.16836 17.0622H0.207031C0.263152 16.6827 0.32876 16.3062 0.405652 15.9337H4.41851C4.52177 15.5372 4.64 15.1463 4.77231 14.7621H0.686158C0.789113 14.3816 0.902354 14.0051 1.02698 13.6336H5.2095C5.38126 13.2346 5.56969 12.8441 5.77221 12.4621H1.46227C1.61815 12.0801 1.78371 11.7032 1.96176 11.3336H6.43078C6.68902 10.9303 6.96533 10.5395 7.25772 10.162H2.576C2.79369 9.77785 3.02367 9.40138 3.26533 9.0335H8.21697C8.59973 8.62248 9.00367 8.23133 9.42737 7.86195H4.09686C4.39325 7.47459 4.70331 7.09812 5.02676 6.73373H10.8832C11.5175 6.29705 12.185 5.9054 12.8803 5.56188H6.15277C6.56379 5.16774 6.99209 4.79176 7.43587 4.43337H15.9008C17.207 4.09075 18.578 3.90811 19.9918 3.90811C21.4054 3.90811 22.7763 4.09085 24.0826 4.43337H32.5479H32.5488ZM31.0978 36.6349C30.4847 37.0448 29.8479 37.4216 29.1896 37.7634H10.7954C10.1375 37.4216 9.50037 37.0448 8.88723 36.6349H31.0977H31.0978ZM26.4475 38.935C24.4223 39.6254 22.2512 40.0001 19.9927 40.0001C17.7339 40.0001 15.5629 39.6254 13.538 38.935H26.4474H26.4475ZM19.9927 5.80983C27.8293 5.80983 34.1825 12.163 34.1825 19.9999C34.1825 27.8365 27.8293 34.1896 19.9927 34.1896C12.1558 34.1896 5.80266 27.8365 5.80266 19.9999C5.80266 12.163 12.1558 5.80983 19.9927 5.80983V5.80983ZM19.9927 6.83389C20.373 6.83389 20.7492 6.85077 21.1209 6.88223V11.7588C20.752 11.7086 20.3756 11.6826 19.9927 11.6826C19.653 11.6826 19.3183 11.7029 18.9894 11.7429V6.87184C19.3208 6.84678 19.6551 6.83399 19.9927 6.83399V6.83389ZM23.2457 7.23922C23.983 7.42666 24.6956 7.67631 25.3775 7.98218V13.6612C24.7418 13.1208 24.0244 12.6738 23.2457 12.3428V7.23912V7.23922ZM27.5021 9.18519C28.2775 9.72493 28.9922 10.3455 29.6339 11.0351V28.9647C28.9922 29.6544 28.2775 30.2748 27.5021 30.8147V23.5796C28.0198 22.4955 28.3102 21.2816 28.3102 19.9999C28.3102 18.7179 28.0198 17.504 27.5021 16.4199V9.18519V9.18519ZM31.7587 14.0867C32.654 15.865 33.1589 17.8734 33.1589 19.9999C33.1589 22.1261 32.654 24.1348 31.7587 25.9128V14.0867ZM25.3775 32.0177C24.6956 32.3235 23.983 32.5733 23.2457 32.7605V27.6569C24.0244 27.3256 24.7418 26.8786 25.3775 26.3385V32.0176V32.0177ZM21.1209 33.1172C20.7492 33.1486 20.373 33.1659 19.9927 33.1659C19.6551 33.1659 19.3208 33.1532 18.9894 33.1281V28.257C19.3183 28.2966 19.653 28.3174 19.9927 28.3174C20.3755 28.3174 20.752 28.2909 21.1209 28.2408V33.1173V33.1172ZM16.8646 32.7908C16.1281 32.6113 15.4155 32.3696 14.7332 32.0722V26.443C15.3713 26.9647 16.0889 27.3933 16.8646 27.7084V32.7908V32.7908ZM12.6084 30.9014C11.8351 30.3764 11.1204 29.7713 10.4766 29.0983V10.9013C11.1204 10.2279 11.8351 9.62317 12.6084 9.09831V16.169C12.0122 17.3155 11.6749 18.6182 11.6749 19.9998C11.6749 21.3812 12.0122 22.6838 12.6084 23.8303V30.9014ZM8.35208 26.1546C7.37845 24.3177 6.82673 22.2234 6.82673 19.9997C6.82673 17.7762 7.37855 15.6814 8.35208 13.8444V26.1545V26.1546ZM14.7332 7.92736C15.4155 7.62967 16.1281 7.38791 16.8646 7.20847V12.2908C16.0889 12.6059 15.3713 13.0348 14.7332 13.5566V7.92736Z" fill="white"/>
</g>
<defs>
<clipPath id="clip0">
<rect width="86.9985" height="40.0001" fill="white"/>
</clipPath>
</defs>
</svg>
