<svg width="113" height="28" viewBox="0 0 113 28" fill="none" xmlns="http://www.w3.org/2000/svg">
<path d="M6.62108 5.10541V7.61823H5.26496V6.30199H0V0H1.4359V5.10541H4.22792V0H5.66382V5.10541H6.62108Z" fill="white"/>
<path d="M12.3641 5.14529V6.30199H7.49805V0H12.2445V1.15669H8.93394V2.51282H11.8456V3.62963H8.93394V5.10541H12.3641V5.14529Z" fill="white"/>
<path d="M19.2648 0V6.30199H17.789V3.7094H14.9172V6.30199H13.4414V0H14.9172V2.47293H17.789V0H19.2648Z" fill="white"/>
<path d="M25.5261 1.19658H23.4919V6.30199H22.0959V1.19658H20.1016V0H25.5659V1.19658H25.5261Z" fill="white"/>
<path d="M30.5122 0.279201C30.9111 0.478631 31.2302 0.717947 31.4695 1.07692C31.7088 1.4359 31.7886 1.83476 31.7886 2.2735C31.7886 2.75213 31.6689 3.15099 31.4695 3.47008C31.2302 3.82906 30.951 4.06837 30.5122 4.2678C30.1134 4.46723 29.6348 4.547 29.0764 4.547H27.8V6.30199H26.3242V0H29.0365C29.6348 0 30.1134 0.119657 30.5122 0.279201ZM29.9937 3.11111C30.233 2.91168 30.3527 2.67236 30.3527 2.31339C30.3527 1.95441 30.233 1.67521 29.9937 1.51567C29.7544 1.31624 29.4353 1.23647 28.9966 1.23647H27.8V3.4302H28.9966C29.4353 3.39031 29.7544 3.27065 29.9937 3.11111Z" fill="white"/>
<path d="M5.74276 10.8092V17.1112H4.30687V12.0058H1.47496V17.1112H0.0390625V10.8092H5.74276Z" fill="white"/>
<path d="M11.3267 11.0884C11.7256 11.2878 12.0447 11.5272 12.284 11.8861C12.5233 12.2451 12.6031 12.644 12.6031 13.0827C12.6031 13.5613 12.4834 13.9602 12.284 14.2793C12.0447 14.6383 11.7654 14.8776 11.3267 15.077C10.888 15.2764 10.4492 15.3562 9.89081 15.3562H8.61445V17.1112H7.13867V10.8092H9.85092C10.4492 10.8092 10.9278 10.889 11.3267 11.0884ZM10.8082 13.8804C11.0475 13.681 11.1672 13.4417 11.1672 13.0827C11.1672 12.7237 11.0475 12.4445 10.8082 12.285C10.5689 12.0856 10.2498 12.0058 9.81103 12.0058H8.61445V14.1995H9.81103C10.2498 14.1995 10.5689 14.0799 10.8082 13.8804Z" fill="white"/>
<path d="M14.9174 16.7921C14.3989 16.5129 14 16.114 13.6809 15.6354C13.4017 15.1567 13.2422 14.5983 13.2422 13.9602C13.2422 13.3619 13.4017 12.8035 13.6809 12.285C13.9601 11.8063 14.3989 11.4075 14.9174 11.1283C15.4359 10.8491 16.0342 10.6895 16.6724 10.6895C17.3106 10.6895 17.9089 10.8491 18.4274 11.1283C18.9459 11.4075 19.3447 11.8063 19.6638 12.285C19.9829 12.7636 20.1026 13.322 20.1026 13.9602C20.1026 14.5585 19.943 15.1169 19.6638 15.6354C19.3447 16.114 18.9459 16.5129 18.4274 16.7921C17.9089 17.0713 17.3106 17.2308 16.6724 17.2308C16.0342 17.2308 15.4359 17.0713 14.9174 16.7921ZM17.7094 15.7152C18.0285 15.5556 18.2279 15.3163 18.4274 14.9972C18.5869 14.6781 18.6667 14.359 18.6667 13.9602C18.6667 13.5613 18.5869 13.2023 18.4274 12.9231C18.2678 12.604 18.0285 12.3647 17.7094 12.2052C17.3903 12.0456 17.0712 11.9659 16.7123 11.9659C16.3533 11.9659 15.9943 12.0456 15.7151 12.2052C15.396 12.3647 15.1966 12.604 14.9972 12.9231C14.8376 13.2422 14.7579 13.5613 14.7579 13.9602C14.7579 14.359 14.8376 14.718 14.9972 14.9972C15.1567 15.3163 15.396 15.5556 15.7151 15.7152C16.0342 15.8747 16.3533 15.9545 16.7123 15.9545C17.0712 15.9545 17.3903 15.8747 17.7094 15.7152Z" fill="white"/>
<path d="M22.4955 16.792C21.977 16.5128 21.5781 16.114 21.2591 15.6354C20.9799 15.1567 20.8203 14.5983 20.8203 13.9601C20.8203 13.322 20.9799 12.7636 21.2591 12.2849C21.5383 11.8063 21.977 11.4074 22.4955 11.1282C23.014 10.849 23.6123 10.7294 24.2505 10.7294C24.8089 10.7294 25.2875 10.8091 25.7263 11.0086C26.165 11.208 26.524 11.4872 26.8431 11.8462L25.9257 12.7237C25.487 12.245 24.9685 11.9658 24.3303 11.9658C23.9314 11.9658 23.6123 12.0456 23.2932 12.2052C22.9742 12.3647 22.7348 12.604 22.5753 12.9231C22.4158 13.2422 22.336 13.5613 22.336 13.9601C22.336 14.359 22.4158 14.718 22.5753 14.9972C22.7348 15.3163 22.9742 15.5556 23.2932 15.7151C23.6123 15.8747 23.9314 15.9544 24.3303 15.9544C24.9685 15.9544 25.487 15.7151 25.9257 15.1966L26.8431 16.0741C26.524 16.4331 26.165 16.7123 25.7263 16.9117C25.2875 17.1111 24.769 17.1909 24.2505 17.1909C23.6123 17.2308 23.014 17.0712 22.4955 16.792Z" fill="white"/>
<path d="M32.7847 12.0058H30.7505V17.1112H29.3146V12.0058H27.3203V10.8092H32.7847V12.0058Z" fill="white"/>
<path d="M37.8111 11.0884C38.2099 11.2878 38.529 11.5272 38.7683 11.8861C39.0077 12.2451 39.0874 12.644 39.0874 13.0827C39.0874 13.5613 38.9678 13.9602 38.7683 14.2793C38.529 14.6383 38.2498 14.8776 37.8111 15.077C37.3723 15.2764 36.9336 15.3562 36.3752 15.3562H35.0988V17.1112H33.623V10.8092H36.3353C36.8937 10.8092 37.3723 10.889 37.8111 11.0884ZM37.2527 13.8804C37.492 13.681 37.6116 13.4417 37.6116 13.0827C37.6116 12.7237 37.492 12.4445 37.2527 12.285C37.0134 12.0856 36.6943 12.0058 36.2555 12.0058H35.0589V14.1995H36.2555C36.6943 14.1995 37.0134 14.0799 37.2527 13.8804Z" fill="white"/>
<path d="M43.8334 15.7551H40.9217L40.3633 17.1112H38.8477L41.6397 10.8092H43.0756L45.9075 17.1112H44.3918L43.8334 15.7551ZM43.3947 14.6383L42.3975 12.2451L41.4004 14.6383H43.3947Z" fill="white"/>
<path d="M52.4894 10.8092V17.1112H51.0136V14.5186H48.1418V17.1112H46.666V10.8092H48.1418V13.2821H51.0136V10.8092H52.4894Z" fill="white"/>
<path d="M55.1615 16.792C54.643 16.5128 54.2442 16.114 53.9251 15.6354C53.6459 15.1567 53.4863 14.5983 53.4863 13.9601C53.4863 13.322 53.6459 12.7636 53.9251 12.2849C54.2043 11.8063 54.643 11.4074 55.1615 11.1282C55.6801 10.849 56.2784 10.7294 56.9165 10.7294C57.4749 10.7294 57.9536 10.8091 58.3923 11.0086C58.8311 11.208 59.19 11.4872 59.5091 11.8462L58.5917 12.7237C58.153 12.245 57.6345 11.9658 56.9963 11.9658C56.5974 11.9658 56.2783 12.0456 55.9593 12.2052C55.6402 12.3647 55.4009 12.604 55.2413 12.9231C55.0818 13.2422 55.002 13.5613 55.002 13.9601C55.002 14.359 55.0818 14.718 55.2413 14.9972C55.4009 15.3163 55.6402 15.5556 55.9593 15.7151C56.2783 15.8747 56.5974 15.9544 56.9963 15.9544C57.6345 15.9544 58.153 15.7151 58.5917 15.1966L59.5091 16.0741C59.19 16.4331 58.8311 16.7123 58.3923 16.9117C57.9536 17.1111 57.435 17.1909 56.9165 17.1909C56.2784 17.2308 55.6801 17.0712 55.1615 16.792Z" fill="white"/>
<path d="M65.4917 12.0058H63.4575V17.1112H62.0216V12.0058H60.0273V10.8092H65.4917V12.0058Z" fill="white"/>
<path d="M71.5551 14.3989C71.7546 14.6382 71.8742 14.9573 71.8742 15.3562C71.8742 15.9146 71.6748 16.3533 71.2361 16.6724C70.7973 16.9915 70.199 17.1511 69.4412 17.1511H66.3301V10.8491H69.2816C69.9996 10.8491 70.5979 11.0086 70.9967 11.2878C71.3956 11.567 71.595 11.9659 71.595 12.4844C71.595 12.8035 71.5153 13.0827 71.3557 13.322C71.1962 13.5613 70.9967 13.7607 70.7175 13.8804C71.0366 13.9203 71.3158 14.1197 71.5551 14.3989ZM67.7261 13.4018H69.0822C69.4013 13.4018 69.6406 13.322 69.8002 13.2023C69.9597 13.0827 70.0395 12.8832 70.0395 12.6439C70.0395 12.4046 69.9597 12.2052 69.8002 12.0855C69.6406 11.9659 69.4013 11.8861 69.0822 11.8861H67.7261V13.4018ZM70.3586 15.2365C70.3586 14.718 69.9996 14.4388 69.3215 14.4388H67.7261V16.0342H69.3215C70.0395 16.0342 70.3586 15.755 70.3586 15.2365Z" fill="white"/>
<path d="M77.7763 15.9545V17.1112H72.9102V10.8092H77.6566V11.9659H74.3461V13.322H77.2577V14.4388H74.3461V15.9146H77.7763V15.9545Z" fill="white"/>
<path d="M84.637 10.8092V17.1112H83.1612V14.5186H80.3293V17.1112H78.8535V10.8092H80.3293V13.2821H83.2011V10.8092H84.637Z" fill="white"/>
<path d="M91.8566 10.8092V17.1112H90.3808V14.5186H87.509V17.1112H86.0332V10.8092H87.509V13.2821H90.3808V10.8092H91.8566Z" fill="white"/>
<path d="M94.5697 16.7921C94.0512 16.5129 93.6524 16.114 93.3333 15.6354C93.0541 15.1567 92.8945 14.5983 92.8945 13.9602C92.8945 13.3619 93.0541 12.8035 93.3333 12.285C93.6125 11.8063 94.0512 11.4075 94.5697 11.1283C95.0883 10.8491 95.6866 10.6895 96.3247 10.6895C96.9629 10.6895 97.5612 10.8491 98.0797 11.1283C98.5982 11.4075 98.9971 11.8063 99.3162 12.285C99.6353 12.7636 99.7549 13.322 99.7549 13.9602C99.7549 14.5585 99.5954 15.1169 99.3162 15.6354C98.9971 16.114 98.5982 16.5129 98.0797 16.7921C97.5612 17.0713 96.9629 17.2308 96.3247 17.2308C95.6866 17.2308 95.0883 17.0713 94.5697 16.7921ZM97.3219 15.7152C97.641 15.5556 97.8404 15.3163 98.0398 14.9972C98.1994 14.6781 98.2791 14.359 98.2791 13.9602C98.2791 13.5613 98.1994 13.2023 98.0398 12.9231C97.8803 12.604 97.641 12.3647 97.3219 12.2052C97.0028 12.0456 96.6837 11.9659 96.3247 11.9659C95.9658 11.9659 95.6068 12.0456 95.3276 12.2052C95.0085 12.3647 94.8091 12.604 94.6096 12.9231C94.4501 13.2422 94.3703 13.5613 94.3703 13.9602C94.3703 14.359 94.4501 14.718 94.6096 14.9972C94.7692 15.3163 95.0085 15.5556 95.3276 15.7152C95.6467 15.8747 95.9658 15.9545 96.3247 15.9545C96.6837 15.9545 97.0427 15.8747 97.3219 15.7152Z" fill="white"/>
<path d="M105.218 12.0058H102.227V17.1112H100.791V10.8092H105.218V12.0058Z" fill="white"/>
<path d="M107.212 16.7921C106.694 16.5129 106.295 16.114 105.976 15.6354C105.697 15.1567 105.537 14.5983 105.537 13.9602C105.537 13.3619 105.697 12.8035 105.976 12.285C106.255 11.8063 106.694 11.4075 107.212 11.1283C107.731 10.8491 108.329 10.6895 108.967 10.6895C109.605 10.6895 110.204 10.8491 110.722 11.1283C111.241 11.4075 111.64 11.8063 111.959 12.285C112.278 12.7636 112.397 13.322 112.397 13.9602C112.397 14.5585 112.238 15.1169 111.959 15.6354C111.64 16.114 111.241 16.5129 110.722 16.7921C110.204 17.0713 109.605 17.2308 108.967 17.2308C108.329 17.2308 107.731 17.0713 107.212 16.7921ZM110.004 15.7152C110.323 15.5556 110.523 15.3163 110.722 14.9972C110.882 14.6781 110.962 14.359 110.962 13.9602C110.962 13.5613 110.882 13.2023 110.722 12.9231C110.563 12.604 110.323 12.3647 110.004 12.2052C109.685 12.0456 109.366 11.9659 109.007 11.9659C108.648 11.9659 108.289 12.0456 108.01 12.2052C107.691 12.3647 107.492 12.604 107.292 12.9231C107.093 13.2422 107.053 13.5613 107.053 13.9602C107.053 14.359 107.133 14.718 107.292 14.9972C107.452 15.3163 107.691 15.5556 108.01 15.7152C108.329 15.8747 108.648 15.9545 109.007 15.9545C109.366 15.9545 109.685 15.8747 110.004 15.7152Z" fill="white"/>
<path d="M4.18803 21.8975C4.58689 22.0969 4.90598 22.3362 5.1453 22.6952C5.38461 23.0542 5.46439 23.453 5.46439 23.8918C5.46439 24.3704 5.34473 24.7693 5.1453 25.0884C4.90598 25.4473 4.62678 25.6867 4.18803 25.8861C3.78917 26.0855 3.31054 26.1653 2.75214 26.1653H1.47578V27.9203H0V21.6183H2.71225C3.27065 21.6183 3.78917 21.6981 4.18803 21.8975ZM3.62963 24.6895C3.86894 24.4901 3.9886 24.2508 3.9886 23.8918C3.9886 23.5328 3.86894 23.2536 3.62963 23.0941C3.39031 22.8946 3.07122 22.8149 2.63248 22.8149H1.4359V25.0086H2.63248C3.07122 24.9687 3.4302 24.8889 3.62963 24.6895Z" fill="white"/>
<path d="M10.2115 26.5642H7.29981L6.74141 27.9203H5.26562L8.05765 21.6183H9.49354L12.3254 27.9203H10.8098L10.2115 26.5642ZM9.77274 25.4473L8.77559 23.0542L7.77844 25.4473H9.77274Z" fill="white"/>
<path d="M17.7104 25.208C17.9098 25.4872 18.0295 25.7664 18.0295 26.1254C18.0295 26.5242 17.9098 26.8433 17.6705 27.1225C17.4312 27.4017 17.0722 27.6012 16.6334 27.7607C16.1947 27.9202 15.7161 28 15.2374 28C14.7987 28 14.3599 27.9601 13.9611 27.8405C13.5223 27.7208 13.1235 27.5613 12.7246 27.3618L13.1634 26.3248C13.4426 26.4844 13.7616 26.604 14.0807 26.7237C14.3998 26.8034 14.7588 26.8433 15.038 26.8433C15.4767 26.8433 15.8357 26.7636 16.1149 26.604C16.3941 26.4445 16.5537 26.245 16.5537 25.9658C16.5537 25.7265 16.4739 25.567 16.2745 25.4473C16.075 25.3277 15.7958 25.2479 15.4767 25.2479H13.9212V24.1311H15.3571C15.6363 24.1311 15.8756 24.0513 16.0352 23.9316C16.1947 23.812 16.2745 23.6524 16.2745 23.453C16.2745 23.2137 16.1548 23.0143 15.9155 22.8946C15.6762 22.7749 15.3571 22.6952 14.9981 22.6952C14.7189 22.6952 14.4397 22.7351 14.1605 22.8148C13.8813 22.8946 13.6021 23.0143 13.3229 23.1339L12.8842 22.0171C13.5622 21.6581 14.2802 21.4986 15.038 21.4986C15.5166 21.4986 15.9953 21.5784 16.3941 21.698C16.793 21.8177 17.152 22.057 17.3913 22.3362C17.6306 22.6154 17.7503 22.9345 17.7503 23.2935C17.7503 23.6126 17.6705 23.8519 17.5109 24.0912C17.3514 24.3305 17.1121 24.4901 16.8329 24.6496C17.2317 24.7294 17.5109 24.9288 17.7104 25.208Z" fill="white"/>
<path d="M24.3305 25.1681C24.53 25.4075 24.6496 25.7265 24.6496 26.1254C24.6496 26.6838 24.4502 27.1226 24.0114 27.4416C23.5727 27.7607 22.9744 27.9203 22.2166 27.9203H19.1055V21.6183H22.057C22.775 21.6183 23.3733 21.7778 23.7721 22.057C24.171 22.3362 24.3704 22.7351 24.3704 23.2536C24.3704 23.5727 24.2907 23.8519 24.1311 24.0912C23.9716 24.3305 23.7721 24.53 23.4929 24.6496C23.812 24.7294 24.1311 24.9288 24.3305 25.1681ZM20.5015 24.2109H21.8576C22.1767 24.2109 22.416 24.1311 22.5756 24.0114C22.7351 23.8918 22.8149 23.6924 22.8149 23.453C22.8149 23.2137 22.7351 23.0143 22.5756 22.8946C22.416 22.775 22.1767 22.6952 21.8576 22.6952H20.5015V24.2109ZM23.134 26.0057C23.134 25.4872 22.775 25.208 22.0969 25.208H20.5015V26.8035H22.0969C22.8149 26.8434 23.134 26.5642 23.134 26.0057Z" fill="white"/>
<path d="M25.6855 21.6183H27.1214V25.7265L30.1129 21.6183H31.469V27.9203H30.073V23.812L27.0816 27.9203H25.6855V21.6183Z" fill="white"/>
<path d="M37.771 22.8149H35.7368V27.9203H34.3009V22.8149H32.3066V21.6183H37.771V22.8149Z" fill="white"/>
<path d="M38.6102 21.6183H40.0461V25.7265L43.0375 21.6183H44.3937V27.9203H42.9578V23.812L39.9663 27.9203H38.5703V21.6183H38.6102Z" fill="white"/>
<path d="M50.8941 21.6183V27.9203H49.4582V26.2451H48.1419L47.0251 27.9203H45.4696L46.7858 26.0057C46.3471 25.8462 46.028 25.567 45.7887 25.208C45.5493 24.8491 45.4297 24.4502 45.4297 23.9317C45.4297 23.453 45.5493 23.0143 45.7488 22.6952C45.9881 22.3362 46.2673 22.057 46.706 21.8975C47.1049 21.6981 47.5835 21.6183 48.1419 21.6183H50.8941ZM47.2644 23.0941C47.0251 23.2935 46.9454 23.5727 46.9454 23.9317C46.9454 24.2907 47.065 24.5698 47.2644 24.7693C47.4639 24.9687 47.783 25.0485 48.1818 25.0485H49.4582V22.775H48.2217C47.8228 22.8149 47.5038 22.8946 47.2644 23.0941Z" fill="white"/>
</svg>
