<?xml version="1.0" encoding="UTF-8"?> <!-- Generator: Adobe Illustrator 25.0.0, SVG Export Plug-In . SVG Version: 6.00 Build 0) --> <svg xmlns="http://www.w3.org/2000/svg" xmlns:xlink="http://www.w3.org/1999/xlink" id="Layer_1" x="0px" y="0px" viewBox="0 0 633 325" style="enable-background:new 0 0 633 325;" xml:space="preserve"> <style type="text/css"> .st0{fill:#FFFFFF;} </style> <path class="st0" d="M230.4,187.6h-8.2v-21.1h7.9c3.7,0,6.2,2.2,6.2,5.5c0,1.4-0.5,2.8-1.5,3.7c-0.4,0.4-1,0.8-1.6,1 c0.7,0.2,1.3,0.6,1.9,1.2c1.1,1,1.6,2.4,1.6,3.9C236.7,185.4,234.3,187.6,230.4,187.6z M230,168.6h-5.5v7.3h5.5 c2.6,0,4.1-1.4,4.1-3.7S232.6,168.6,230,168.6L230,168.6z M230.2,177.9h-5.7v7.7h5.7c2.6,0,4.2-1.5,4.2-3.9S232.8,177.9,230.2,177.9 z"></path> <path class="st0" d="M248.6,187.9c-2,0-4-0.8-5.4-2.2c-2-2-2-4.1-2-8.5s0-6.6,2-8.5c1.4-1.4,3.4-2.2,5.4-2.2 c3.7-0.1,6.9,2.6,7.3,6.3h-2.3c-0.4-2.5-2.5-4.3-5-4.3c-1.4,0-2.7,0.5-3.6,1.4c-1.3,1.4-1.5,2.8-1.5,7.2s0.1,5.9,1.5,7.2 c2,2,5.3,2,7.3-0.1c0.7-0.7,1.2-1.7,1.4-2.7h2.3C255.6,185.3,252.4,187.9,248.6,187.9z"></path> <path class="st0" d="M260.8,187.6v-21.1h13.1v2h-10.8v7.4h9.2v2h-9.2v7.6h10.8v2L260.8,187.6z"></path> <path class="st0" d="M286.4,178.9h-5.6v8.7h-2.3v-21.1h7.9c3.9,0,6.5,2.5,6.5,6.2C292.9,176.4,290.3,178.9,286.4,178.9z M286.2,168.6h-5.4v8.4h5.4c2.8,0,4.5-1.6,4.5-4.2S289,168.6,286.2,168.6L286.2,168.6z"></path> <path class="st0" d="M311.8,177.1c0,4.2-0.1,6.6-2,8.5c-3,2.9-7.8,2.9-10.8,0c-1.9-1.9-2-4.3-2-8.5v-1.6c0-2.5,0.2-5.1,2-6.9 c3-2.9,7.8-2.9,10.8,0c1.8,1.8,2,4.5,2,7.1V177.1z M309.5,175.9c0-2.5-0.1-4.7-1.5-6.1c-2-2-5.3-2-7.3,0l0,0 c-1.5,1.5-1.5,3.7-1.5,6.6v2.1c0,2.3,0.1,4.4,1.5,5.7c2,2,5.3,2,7.3,0l0,0c1.5-1.5,1.5-3.7,1.5-6.2V175.9z"></path> <path class="st0" d="M323.8,187.9c-2,0-4-0.8-5.4-2.2c-2-2-2-4.1-2-8.5s0-6.6,2-8.5c1.4-1.4,3.4-2.2,5.4-2.2 c3.7-0.1,6.9,2.6,7.3,6.3h-2.3c-0.4-2.5-2.5-4.3-5-4.3c-1.4,0-2.7,0.5-3.6,1.5c-1.3,1.4-1.5,2.8-1.5,7.2s0.1,5.9,1.5,7.2 c2,2,5.3,2,7.3-0.1c0.7-0.7,1.2-1.7,1.4-2.7h2.2C330.7,185.3,327.5,187.9,323.8,187.9z"></path> <path class="st0" d="M342.9,187.9c-2,0-4-0.8-5.4-2.2c-2-2-2-4.1-2-8.5s0-6.6,2-8.5c1.4-1.4,3.4-2.2,5.4-2.2 c3.7-0.1,6.9,2.6,7.3,6.3h-2.3c-0.4-2.5-2.5-4.3-5-4.3c-1.4,0-2.7,0.5-3.6,1.5c-1.3,1.4-1.5,2.8-1.5,7.2s0.1,5.9,1.5,7.2 c2,2,5.3,2,7.3-0.1c0.7-0.7,1.2-1.7,1.4-2.7h2.3C349.8,185.3,346.6,188.1,342.9,187.9z"></path> <path class="st0" d="M367.9,187.6v-17.2l-10.7,17.2h-2.1v-21.1h2.3v17.2l10.7-17.2h2.1v21.1L367.9,187.6L367.9,187.6z"></path> <path class="st0" d="M388.9,187.6v-17.2l-10.7,17.2h-2.1v-21.1h2.3v17.2l10.8-17.2h2.1v21.1L388.9,187.6L388.9,187.6z M383.6,165.3 c-2.5,0-4.1-1.1-4.3-3.7h1.9c0.1,1.3,1.3,2.3,2.7,2.2c1.2-0.1,2.1-1,2.2-2.2h1.9C387.8,164.1,386.1,165.3,383.6,165.3z"></path> <path class="st0" d="M403.9,187.9c-2,0-4-0.8-5.4-2.2c-2-2-2-4.1-2-8.5s0-6.6,2-8.5c1.4-1.4,3.4-2.2,5.4-2.2 c3.7-0.1,6.9,2.6,7.3,6.3h-2.3c-0.4-2.5-2.5-4.3-5-4.3c-1.4,0-2.7,0.5-3.6,1.5c-1.3,1.4-1.5,2.8-1.5,7.2s0.1,5.9,1.5,7.2 c2,2,5.3,2,7.3-0.1c0.7-0.7,1.2-1.7,1.4-2.7h2.3C410.8,185.3,407.6,188.1,403.9,187.9z"></path> <path class="st0" d="M416.1,187.6v-21.1h2.3v10l9-10h2.8l-9.2,10l10,11.1h-3l-9.7-11v11H416.1z"></path> <path class="st0" d="M447.8,187.6v-17.2l-10.7,17.2H435v-21.1h2.3v17.2l10.7-17.2h2.1v21.1L447.8,187.6L447.8,187.6z"></path> <path class="st0" d="M468.8,187.6v-17.2l-10.7,17.2H456v-21.1h2.3v17.2l10.7-17.2h2.2v21.1L468.8,187.6L468.8,187.6z M463.5,165.3 c-2.5,0-4.2-1.1-4.3-3.7h1.9c0.1,1.3,1.4,2.3,2.7,2.2c1.1-0.1,2-1,2.2-2.2h1.9C467.6,164.1,465.9,165.3,463.5,165.3z"></path> <path class="st0" d="M485.3,187.6v-21.1h2.3v10l9-10h2.8l-9.2,10l10,11.1h-3l-9.7-11v11H485.3z"></path> <path class="st0" d="M516.7,177.1c0,4.2-0.1,6.6-2,8.5c-3,2.9-7.8,2.9-10.8,0c-1.9-1.9-2-4.3-2-8.5v-1.6c0-2.5,0.2-5.1,2-6.9 c3-2.9,7.8-2.9,10.8,0c1.8,1.8,2,4.5,2,7.1V177.1z M514.5,175.9c0-2.5-0.1-4.7-1.5-6.1c-2-2-5.3-2-7.3,0l0,0 c-1.5,1.5-1.5,3.7-1.5,6.6v2.1c0,2.3,0.1,4.4,1.5,5.7c2,2,5.3,2,7.3,0l0,0c1.5-1.5,1.5-3.7,1.5-6.2V175.9z"></path> <path class="st0" d="M534.3,187.6V178h-10v9.6h-2.2v-21.1h2.3v9.5h10v-9.4h2.3v21.1h-2.4V187.6z"></path> <path class="st0" d="M542.6,187.6v-21.1h2.3v10l9-10h2.8l-9.3,10l10,11.1h-3l-9.7-11v11H542.6z"></path> <path class="st0" d="M567.6,184.4c-0.8,1.9-2,3.3-4.2,3.3h-1.8v-2h1.3c1.5,0,2.2-0.6,2.8-2.1l0.9-2l-7-15h2.4l5.7,12.5l5.1-12.5h2.4 L567.6,184.4z"></path> <path class="st0" d="M587.1,178.9h-5.6v8.7h-2.3v-21.1h7.9c3.9,0,6.5,2.5,6.5,6.2C593.6,176.4,591,178.9,587.1,178.9z M586.9,168.6 h-5.4v8.4h5.4c2.8,0,4.5-1.6,4.5-4.2S589.7,168.6,586.9,168.6L586.9,168.6z"></path> <path class="st0" d="M605.1,187.9c-2,0-4-0.8-5.4-2.2c-2-2-2-4.1-2-8.5s0-6.6,2-8.5c1.4-1.4,3.4-2.2,5.4-2.2 c3.7-0.1,6.9,2.6,7.3,6.3h-2.3c-0.4-2.5-2.5-4.3-5-4.3c-1.4,0-2.7,0.5-3.6,1.5c-1.3,1.4-1.5,2.8-1.5,7.2s0.1,5.9,1.5,7.2 c2.1,2,5.3,1.9,7.3-0.2c0.7-0.7,1.1-1.6,1.3-2.6h2.3C611.9,185.3,608.8,187.9,605.1,187.9z"></path> <path class="st0" d="M236.6,222.9v-19.1h-7.2v7.2c0,8.9-2.1,11.9-6.2,11.9h-1.1v-2h0.6c2.6,0,4.5-1.8,4.5-10.5v-8.6h11.6v21.1 L236.6,222.9z"></path> <path class="st0" d="M250.9,219.6c-0.8,1.9-2,3.3-4.1,3.3H245v-2h1.3c1.5,0,2.2-0.6,2.8-2.1l0.9-2l-7-15h2.4l5.7,12.5l5.1-12.4h2.4 L250.9,219.6z"></path> <path class="st0" d="M273.7,222.9v-8.6c-2,0.4-4,0.7-6,0.8c-2.9,0-5.6-1.3-5.6-5.3v-8h2.3v7.6c0,3,2,3.7,3.9,3.7 c1.8-0.1,3.6-0.4,5.4-0.7v-10.5h2.3v21.1L273.7,222.9z"></path> <path class="st0" d="M281.9,222.9v-21.1h2.2v19.1h8.3v-19.1h2.3v19.1h8.4v-19.1h2.3v21.1H281.9z"></path> <path class="st0" d="M324.1,222.9v-17.2l-10.7,17.2h-2.1v-21.1h2.3V219l10.7-17.2h2.1v21.1H324.1z"></path> <path class="st0" d="M343.3,222.9l-5.1-8.9l-5.2,8.9h-2.5l6.5-10.8l-6-10.3h2.6l4.7,8.3l4.7-8.3h2.6l-6.1,10.3l6.5,10.8H343.3z"></path> <path class="st0" d="M369.6,222.9v-19.1h-10v19.1h-2.3v-21.1h14.5v21.1H369.6z"></path> <path class="st0" d="M385.7,214.3h-5.6v8.7h-2.3v-21.1h7.9c3.9,0,6.5,2.5,6.5,6.2S389.6,214.3,385.7,214.3z M385.5,203.9h-5.4v8.4 h5.4c2.8,0,4.5-1.6,4.5-4.2S388.3,203.9,385.5,203.9L385.5,203.9z"></path> <path class="st0" d="M411,212.4c0,4.2-0.1,6.6-2,8.5c-3,2.9-7.8,2.9-10.8,0c-1.9-1.9-2-4.3-2-8.5v-1.6c0-2.5,0.2-5.1,2-6.9 c3-2.9,7.8-2.9,10.8,0c1.8,1.8,2,4.5,2,7.1V212.4z M408.8,211.3c0-2.5-0.1-4.7-1.5-6.1c-2-2-5.3-2-7.3,0l0,0 c-1.5,1.5-1.5,3.7-1.5,6.6v2.1c0,2.3,0.1,4.4,1.5,5.7c2,2,5.2,2,7.3,0l0,0c1.5-1.5,1.5-3.7,1.5-6.2V211.3z"></path> <path class="st0" d="M416.3,222.9v-21.1h13.1v2h-10.8v7.4h9.2v2h-9.2v7.6h10.8v2L416.3,222.9z"></path> <path class="st0" d="M434.2,222.9v-21.1h2.3v10l9-10h2.8l-9.2,10l10,11.1h-3l-9.7-11v11H434.2z"></path> <path class="st0" d="M459.9,203.9V223h-2.3v-19.1h-6.1v-2H466v2H459.9z"></path> <path class="st0" d="M483.9,212.4c0,4.2-0.1,6.6-2,8.5c-3,2.9-7.8,2.9-10.8,0c-1.9-1.9-2-4.3-2-8.5v-1.6c0-2.5,0.2-5.1,2-6.9 c3-2.9,7.8-2.9,10.8,0c1.8,1.8,2,4.5,2,7.1V212.4z M481.6,211.3c0-2.5-0.1-4.7-1.5-6.1c-2-2-5.3-2-7.3,0l0,0 c-1.5,1.5-1.5,3.7-1.5,6.6v2.1c0,2.3,0.1,4.4,1.5,5.7c2,2,5.2,2,7.3,0l0,0c1.5-1.5,1.5-3.7,1.5-6.2V211.3z"></path> <path class="st0" d="M497.4,222.9h-8.2v-21.1h7.9c3.7,0,6.2,2.2,6.2,5.5c0,1.4-0.5,2.8-1.5,3.7c-0.4,0.4-1,0.8-1.6,1 c0.7,0.2,1.3,0.6,1.9,1.2c1.1,1,1.6,2.4,1.6,3.9C503.7,220.8,501.3,222.9,497.4,222.9z M496.9,203.9h-5.5v7.3h5.5 c2.6,0,4.1-1.4,4.1-3.7S499.6,203.9,496.9,203.9z M497.2,213.3h-5.8v7.7h5.8c2.6,0,4.2-1.5,4.2-3.9S499.8,213.1,497.2,213.3 L497.2,213.3z"></path> <path class="st0" d="M230,258.6c-2.1,0-4.2-0.8-5.7-2.3c-2.1-2.1-2.1-4.8-2.1-8.4s-0.1-6.3,2.1-8.4c1.5-1.5,3.6-2.4,5.7-2.3 c3.9-0.2,7.4,2.7,7.8,6.7h-4.2c-0.2-1.8-1.8-3.1-3.5-3c-1,0-2,0.4-2.6,1.1c-0.8,0.9-1,1.9-1,6s0.2,5.1,1,6c0.7,0.7,1.6,1.1,2.6,1.1 c1.8,0,3.3-1.2,3.5-3h4.2C237.3,256,233.9,258.9,230,258.6z"></path> <path class="st0" d="M256.6,248.8c0,2.8,0,5.5-2.1,7.6c-1.5,1.5-3.6,2.4-5.7,2.3c-2.1,0.1-4.2-0.8-5.7-2.3c-2-2.1-2.1-5.2-2.1-7.5 v-1.8c0-4.2,0.4-5.9,2.1-7.6c3.2-3.1,8.2-3.1,11.4,0c1.5,1.5,2.1,3.5,2.1,6.9V248.8z M251.4,242.1c-0.7-0.7-1.6-1.2-2.6-1.1 c-1,0-2,0.4-2.7,1.1c-1,1-1,3-1,5.6v1.1c0,2.2,0,4.2,1,5.1c0.7,0.7,1.7,1.1,2.7,1.1s2-0.4,2.6-1.1c0.9-1,1-2,1-6.3 C252.4,244,252.2,242.9,251.4,242.1L251.4,242.1z"></path> <path class="st0" d="M259.7,252h4.1c0.3,1.8,1.8,3,3.6,3c2.1,0,3.4-1.2,3.4-2.9s-1.1-2.8-3.2-2.8h-2.7V246h2.8c1.8,0,2.9-1,2.9-2.7 s-1.2-2.6-3-2.6s-3.3,1.3-3.6,3h-4.1c0.4-3.9,3.8-6.8,7.7-6.6c4.1,0,7.1,2.3,7.1,5.8c0,1.9-1,3.7-2.8,4.5c1.9,0.8,3.1,2.7,3,4.8 c0,3.8-3.2,6.3-7.5,6.3C263.5,258.9,260.1,256,259.7,252z"></path> <path class="st0" d="M293.3,263.1v-4.7h-11.7v4.7h-4v-8.3h2c1.8-2.7,2.5-7.2,2.5-12v-5.4h12.7v17.4h2.4v8.4L293.3,263.1z M290.8,241.1h-4.7v3c0,4.2-0.4,7.8-1.9,10.7h6.5L290.8,241.1z"></path> <path class="st0" d="M314,258.5l-1.3-3.7h-7.5l-1.3,3.7h-4.3l7.7-21.1h3.2l7.7,21.1H314z M309.1,243.6l-2.7,7.7h5.3L309.1,243.6z"></path> <path class="st0" d="M332.7,258.5v-8.8h-7.1v8.8h-4.1v-21.1h4.1v8.6h7.1v-8.6h4.1v21.1H332.7z"></path> <path class="st0" d="M353.5,258.5V245l-8.2,13.5h-3.7v-21.1h4.1v13.5l8.2-13.5h3.7v21.1H353.5z"></path> <path class="st0" d="M366,258.5h-4.9l4.4-8.8c-2.3-1-3.7-3.3-3.6-5.7c0-4,2.9-6.6,6.9-6.6h8.2v21.1h-4.1v-7.9h-3.4L366,258.5z M372.9,241.1H369c-1.5-0.1-2.9,1-3,2.6c0,0.1,0,0.2,0,0.4c-0.1,1.6,1.2,2.9,2.8,3c0.1,0,0.2,0,0.3,0h3.9L372.9,241.1L372.9,241.1z"></path> <path class="st0" d="M389.4,258.5v-21.1h4.1v10l6.8-10h4.9l-7.1,9.9l7.8,11.2h-5l-7.4-11v11H389.4z"></path> <path class="st0" d="M422.7,248.8c0,2.8,0,5.5-2.1,7.6c-1.5,1.5-3.5,2.4-5.7,2.3c-2.1,0.1-4.2-0.8-5.7-2.3c-2.1-2.1-2.1-5.2-2.1-7.5 v-1.8c0-4.2,0.5-5.9,2.1-7.6c3.2-3.1,8.2-3.1,11.4,0c1.5,1.5,2.1,3.5,2.1,6.9L422.7,248.8z M417.5,242.1c-0.7-0.7-1.6-1.2-2.6-1.1 c-1,0-2,0.4-2.7,1.1c-1,1-1,3-1,5.6v1.1c0,2.2,0,4.2,1,5.1c0.7,0.7,1.7,1.1,2.7,1.1s2-0.4,2.6-1.1c0.9-1,1-2,1-6.3 C418.6,244,418.3,242.9,417.5,242.1L417.5,242.1z"></path> <path class="st0" d="M441.9,258.5v-12.3l-4,8h-2.8l-4.1-8v12.3h-4.1v-21.1h4l5.5,11.5l5.5-11.4h4v21.1L441.9,258.5z"></path> <path class="st0" d="M458.4,258.6v-2.5c-6.2-0.3-8.7-3.5-8.7-9s2.9-8.3,8.7-8.6v-2.1h4.1v2.1c5.8,0.4,8.7,3.2,8.7,8.6 c0,5.4-2.5,8.6-8.7,9v2.5H458.4z M458.5,242.1c-3.4,0.1-4.6,1.8-4.6,5.3s1.3,5.2,4.6,5.4V242.1z M462.5,252.6c3.3-0.2,4.6-2,4.6-5.4 s-1.2-5.1-4.6-5.3V252.6z"></path> <path class="st0" d="M490.2,248.8c0,2.8,0,5.5-2.1,7.6c-1.5,1.5-3.5,2.4-5.7,2.3c-2.1,0.1-4.2-0.8-5.7-2.3c-2-2.1-2.1-5.2-2.1-7.5 v-1.8c0-4.2,0.4-5.9,2.1-7.6c3.2-3.1,8.2-3.1,11.4,0c1.5,1.5,2.1,3.5,2.1,6.9L490.2,248.8z M485,242.1c-0.7-0.7-1.6-1.2-2.6-1.1 c-1,0-2,0.4-2.7,1.1c-1,1-1,3-1,5.6v1.1c0,2.2,0,4.2,1,5.1c0.7,0.7,1.7,1.1,2.7,1.1s2-0.4,2.6-1.1c0.9-1,1-2,1-6.3 C486,244,485.8,242.9,485,242.1L485,242.1z"></path> <path class="st0" d="M502.6,237.4c4.1,0,7,2.7,7,6.6s-2.9,6.6-7,6.6h-4.1v7.9h-4.1v-21.1L502.6,237.4L502.6,237.4z M502.4,246.9 c1.6,0,2.9-1.3,2.9-2.9s-1.3-2.9-2.9-2.9l0,0h-3.9v5.8H502.4z"></path> <path class="st0" d="M521.7,241.1v17.4h-4.1v-17.4h-5.5v-3.7h15.1v3.7L521.7,241.1L521.7,241.1z"></path> <path class="st0" d="M542,258.5v-8.8h-7.1v8.8h-4.1v-21.1h4.1v8.6h7.1v-8.6h4.1v21.1H542z"></path> <path class="st0" d="M565.9,248.8c0,2.8,0,5.5-2.1,7.6c-1.5,1.5-3.5,2.4-5.7,2.3c-2.1,0.1-4.2-0.8-5.7-2.3c-2-2.1-2.1-5.2-2.1-7.5 v-1.8c0-4.2,0.5-5.9,2.1-7.6c3.2-3.1,8.2-3.1,11.4,0c1.5,1.5,2.1,3.5,2.1,6.9V248.8z M560.7,242.1c-0.7-0.8-1.6-1.2-2.6-1.2 s-2,0.4-2.7,1.1c-1,1-1,3-1,5.6v1.1c0,2.2,0,4.2,1,5.1c0.7,0.7,1.7,1.1,2.7,1.1s2-0.4,2.6-1.1c0.9-1,1-2,1-6.3 C561.8,244,561.6,242.9,560.7,242.1L560.7,242.1z"></path> <path class="st0" d="M582,258.5V245l-8.2,13.5h-3.7v-21.1h4.1v13.5l8.2-13.5h3.7v21.1H582z M578.1,236.3c-2.3,0-4.7-1-4.8-4.2h2.9 c0.1,1,1,1.8,2,1.8c0.9-0.1,1.7-0.8,1.8-1.8h2.9C582.8,235.3,580.5,236.3,578.1,236.3z"></path> <path class="st0" d="M226.3,276.6V294h-4.1v-21.1h13.3v3.7H226.3z"></path> <path class="st0" d="M253.8,284.3c0,2.8,0,5.5-2.1,7.6c-1.5,1.5-3.6,2.4-5.7,2.3c-2.1,0.1-4.2-0.8-5.7-2.3c-2-2.1-2.1-5.2-2.1-7.5 v-1.8c0-4.2,0.4-5.9,2.1-7.6c3.2-3.1,8.2-3.1,11.4,0c1.5,1.5,2.1,3.5,2.1,6.9V284.3z M248.7,277.5c-0.7-0.7-1.6-1.2-2.6-1.1 c-1,0-2,0.4-2.7,1.1c-0.9,1-1,3-1,5.6v1.1c0,2.2,0,4.2,1,5.1c0.7,0.7,1.7,1.1,2.7,1.1s2-0.4,2.6-1.1c0.9-1,1-2,1-6.3 C249.7,279.6,249.5,278.5,248.7,277.5L248.7,277.5z"></path> <path class="st0" d="M266.2,273c4.1,0,7,2.7,7,6.6s-2.9,6.6-7,6.6h-4.1v7.9H258V273H266.2z M266,282.5c1.5,0.2,2.9-1,3-2.5 c0-0.1,0-0.3,0-0.4c0.1-1.6-1.1-2.9-2.7-2.9c-0.1,0-0.2,0-0.4,0h-3.8v5.8H266z"></path> <path class="st0" d="M291.9,284.3c0,2.8,0,5.5-2.1,7.6c-1.5,1.5-3.6,2.4-5.7,2.3c-2.1,0.1-4.2-0.8-5.7-2.3c-2-2.1-2.1-5.2-2.1-7.5 v-1.8c0-4.2,0.4-5.9,2.1-7.6c3.2-3.1,8.2-3.1,11.4,0c1.5,1.5,2.1,3.5,2.1,6.9L291.9,284.3L291.9,284.3z M286.8,277.5 c-0.7-0.8-1.7-1.2-2.7-1.1c-1,0-2,0.4-2.7,1.1c-1,1-1,3-1,5.6v1.1c0,2.2,0,4.2,1,5.1c0.7,0.7,1.7,1.1,2.7,1.1s2-0.4,2.6-1.1 c0.9-1,1-2,1-6.3C287.8,279.6,287.6,278.5,286.8,277.5L286.8,277.5z"></path> <path class="st0" d="M310.1,298.8V294h-11.7v4.7h-4v-8.4h2c1.8-2.7,2.5-7.2,2.5-12V273h12.7v17.4h2.5v8.4H310.1z M307.5,276.6h-4.6 v3.1c0,4.2-0.4,7.8-1.9,10.7h6.5V276.6z"></path> <path class="st0" d="M324.6,294.3c-2.1,0-4.2-0.8-5.7-2.3c-2.1-2.1-2.1-4.8-2.1-8.4s0-6.3,2.1-8.4c1.5-1.5,3.6-2.4,5.7-2.3 c3.9-0.2,7.4,2.7,7.8,6.7h-4.2c-0.2-1.8-1.8-3.1-3.5-3c-1,0-2,0.4-2.6,1.1c-0.8,0.9-1,1.9-1,6s0.2,5.1,1,6c0.7,0.7,1.6,1.1,2.6,1.1 c1.8,0.1,3.3-1.2,3.5-3h4.2C331.9,291.5,328.5,294.5,324.6,294.3z"></path> <path class="st0" d="M336,294v-21.1h4.1v10l6.8-10h4.9l-7.1,9.9l7.8,11.2h-5l-7.4-11v11H336z"></path> <path class="st0" d="M369.2,284.3c0,2.8,0,5.5-2.1,7.6c-1.5,1.5-3.6,2.4-5.7,2.3c-2.1,0-4.2-0.8-5.7-2.3c-2-2.1-2.1-5.2-2.1-7.5 v-1.8c0-4.2,0.4-5.9,2.1-7.6c3.2-3.1,8.2-3.1,11.4,0c1.5,1.5,2.1,3.5,2.1,6.9L369.2,284.3L369.2,284.3z M364.1,277.5 c-0.7-0.7-1.6-1.2-2.6-1.1c-1,0-2,0.4-2.7,1.1c-1,1-1,3-1,5.6v1.1c0,2.2,0,4.2,1,5.1c0.7,0.7,1.7,1.1,2.7,1.1s2-0.4,2.6-1.1 c0.9-1,1-2,1-6.3C365.1,279.6,364.9,278.5,364.1,277.5L364.1,277.5z"></path> <path class="st0" d="M385.3,294v-13.5l-8.2,13.5h-3.7v-21.1h4.1v13.5l8.2-13.5h3.7V294H385.3z M381.5,271.9c-2.3,0-4.7-1-4.8-4.2 h2.9c0,1,0.9,1.9,1.9,1.9s1.9-0.8,1.9-1.9h2.9C386.2,270.9,383.8,271.9,381.5,271.9z"></path> <path class="st0" d="M408.9,294.3c-2.1,0-4.2-0.8-5.7-2.3c-2.1-2.1-2.1-4.8-2.1-8.4s-0.1-6.3,2.1-8.4c1.5-1.5,3.6-2.4,5.7-2.3 c3.9-0.2,7.4,2.7,7.8,6.7h-4.2c-0.2-1.8-1.8-3.1-3.6-3c-1,0-2,0.4-2.6,1.1c-0.8,0.9-1,1.9-1,6s0.2,5.1,1,6c0.7,0.7,1.6,1.1,2.6,1.1 c1.8,0.1,3.3-1.2,3.6-3h4.2C416.2,291.5,412.8,294.5,408.9,294.3z"></path> <path class="st0" d="M428.4,273c4.1,0,7,2.7,7,6.6s-2.9,6.6-7,6.6h-4.1v7.9h-4.1V273H428.4z M428.2,282.5c1.5,0.2,2.9-1,3-2.5 c0-0.1,0-0.3,0-0.4c0.1-1.6-1.1-2.9-2.7-2.9c-0.1,0-0.2,0-0.4,0h-3.9v5.8H428.2z"></path> <path class="st0" d="M439,294v-21.1h13.9v3.7h-9.8v5h8.3v3.7h-8.3v5.1h9.8v3.7L439,294z"></path> <path class="st0" d="M471.4,298.8V294h-11.7v4.7h-4v-8.4h2c1.8-2.7,2.5-7.2,2.5-12V273h12.7v17.4h2.4v8.4H471.4z M468.8,276.6h-4.7 v3.1c0,4.2-0.4,7.8-1.9,10.7h6.5L468.8,276.6z"></path> <path class="st0" d="M487.1,294h-8.3v-21.1h4.1v7.9h4.2c4.1,0,6.8,2.7,6.8,6.6S491.2,294,487.1,294z M486.8,284.5H483v5.8h3.8 c1.6,0.1,3-1.1,3.1-2.7s-1.1-3-2.7-3.1C487,284.5,486.9,284.5,486.8,284.5z M496.2,294v-21.1h4.1V294H496.2z"></path> <polygon class="st0" points="179.7,277 43.7,277 43.7,140.9 179.7,140.9 179.7,124 26.7,124 26.7,294 196.7,294 196.7,140.9 179.7,140.9 "></polygon> <polygon class="st0" points="290.3,30.5 179.7,30.5 179.7,124 196.7,124 196.7,47.5 273.3,47.5 273.3,124 196.7,124 196.7,140.9 290.3,140.9 "></polygon> </svg> 