<svg width="1920" height="1080" viewBox="0 0 1920 1080" fill="none" xmlns="http://www.w3.org/2000/svg">
<path d="M2103.83 413.938C2103.83 413.938 1889.33 720.553 1287.1 864.578C684.867 1008.6 -180.887 674.562 -180.887 674.562" stroke="#2E393F" stroke-width="5.19343" stroke-miterlimit="10"/>
<path d="M1929.16 587.215L1927.46 747.012L1785.24 674.515L1929.16 587.215Z" fill="#FFEA73"/>
<path d="M1739.79 703.073L1719.23 861.576L1586.61 772.727L1739.79 703.073Z" fill="#FF374C"/>
<path d="M1525.79 793.771L1489.03 949.286L1366.22 847.287L1525.79 793.771Z" fill="#BCEDED"/>
<path d="M1329.06 856.944L1272.65 1006.49L1163.96 889.594L1329.06 856.944Z" fill="#103946"/>
<path d="M1137.89 891.885L1062.99 1033.03L970.001 903.31L1137.89 891.885Z" fill="#FFEA73"/>
<path d="M915.638 902.152L824.16 1033.24L747.575 893.176L915.638 902.152Z" fill="#FF374C"/>
<path d="M685.815 883.372L583.111 1005.84L519.175 859.578L685.815 883.372Z" fill="#BCEDED"/>
<path d="M473.995 855.912L364.051 971.916L309.166 822.04L473.995 855.912Z" fill="#103946"/>
<path d="M281.226 815.722L166.189 926.636L118.025 774.483L281.226 815.722Z" fill="#FFEA73"/>
<path d="M67.585 755.879L-63.6815 847.021L-86.9189 689.111L67.585 755.879Z" fill="#FF374C"/>
</svg>
