<svg width="18" height="18" viewBox="0 0 18 18" fill="none" xmlns="http://www.w3.org/2000/svg">
<path d="M9 4.5C8.76131 4.5 8.53239 4.59482 8.36361 4.7636C8.19482 4.93239 8.1 5.1613 8.1 5.4V9C8.1 9.23869 8.19482 9.46761 8.36361 9.63639C8.53239 9.80518 8.76131 9.9 9 9.9C9.2387 9.9 9.46762 9.80518 9.6364 9.63639C9.80518 9.46761 9.9 9.23869 9.9 9V5.4C9.9 5.1613 9.80518 4.93239 9.6364 4.7636C9.46762 4.59482 9.2387 4.5 9 4.5ZM9.828 12.258C9.8083 12.2006 9.78106 12.1462 9.747 12.096L9.639 11.961C9.51244 11.8361 9.35173 11.7515 9.17714 11.7179C9.00254 11.6842 8.8219 11.7031 8.658 11.772C8.54894 11.8176 8.44848 11.8815 8.361 11.961C8.27759 12.0451 8.2116 12.1448 8.16681 12.2545C8.12202 12.3641 8.09932 12.4816 8.1 12.6C8.10143 12.7176 8.12589 12.8338 8.172 12.942C8.21242 13.0537 8.27691 13.1551 8.3609 13.2391C8.44489 13.3231 8.54632 13.3876 8.658 13.428C8.76573 13.4756 8.88222 13.5002 9 13.5002C9.11779 13.5002 9.23427 13.4756 9.342 13.428C9.45369 13.3876 9.55512 13.3231 9.63911 13.2391C9.72309 13.1551 9.78758 13.0537 9.828 12.942C9.87412 12.8338 9.89858 12.7176 9.9 12.6C9.90442 12.5401 9.90442 12.4799 9.9 12.42C9.88451 12.3626 9.86022 12.308 9.828 12.258ZM9 0C7.21997 0 5.47991 0.527841 3.99987 1.51677C2.51983 2.50571 1.36628 3.91131 0.685088 5.55585C0.00389956 7.20038 -0.17433 9.00998 0.172937 10.7558C0.520203 12.5016 1.37737 14.1053 2.63604 15.364C3.89472 16.6226 5.49836 17.4798 7.24419 17.8271C8.99002 18.1743 10.7996 17.9961 12.4442 17.3149C14.0887 16.6337 15.4943 15.4802 16.4832 14.0001C17.4722 12.5201 18 10.78 18 9C18 7.8181 17.7672 6.64778 17.3149 5.55585C16.8626 4.46392 16.1997 3.47177 15.364 2.63604C14.5282 1.80031 13.5361 1.13738 12.4442 0.685084C11.3522 0.232792 10.1819 0 9 0ZM9 16.2C7.57598 16.2 6.18393 15.7777 4.9999 14.9866C3.81586 14.1954 2.89302 13.0709 2.34807 11.7553C1.80312 10.4397 1.66054 8.99201 1.93835 7.59535C2.21616 6.19868 2.9019 4.91577 3.90883 3.90883C4.91577 2.90189 6.19869 2.21616 7.59535 1.93835C8.99202 1.66053 10.4397 1.80312 11.7553 2.34807C13.071 2.89302 14.1954 3.81586 14.9866 4.99989C15.7777 6.18393 16.2 7.57597 16.2 9C16.2 10.9096 15.4414 12.7409 14.0912 14.0912C12.7409 15.4414 10.9096 16.2 9 16.2Z" fill="#E84354"/>
</svg>
