<svg width="467" height="491" viewBox="0 0 467 491" fill="none" xmlns="http://www.w3.org/2000/svg">
<ellipse cx="67.1381" cy="123.984" rx="67.1381" ry="123.984" fill="#EB5A46"/>
<path d="M67.0439 0V347.589" stroke="#1E5B60" stroke-width="0.971321"/>
<path d="M67.0436 182.623L37.2988 141.358" stroke="#1E5B60" stroke-width="0.971321"/>
<path d="M67.0439 121.245L110.858 76.3921" stroke="#1E5B60" stroke-width="0.971321"/>
<path d="M67.0442 70.254L37.2051 45.9861" stroke="#1E5B60" stroke-width="0.971321"/>
<ellipse cx="232.577" cy="261.773" rx="28.5769" ry="52.7729" fill="#FFCB27"/>
<path d="M232.537 209V356.949" stroke="#1E5B60" stroke-width="0.971321"/>
<path d="M232.537 286.732L219.876 269.168" stroke="#1E5B60" stroke-width="0.971321"/>
<path d="M232.537 260.607L251.186 241.516" stroke="#1E5B60" stroke-width="0.971321"/>
<path d="M232.537 238.903L219.836 228.574" stroke="#1E5B60" stroke-width="0.971321"/>
<ellipse cx="422" cy="177.101" rx="45" ry="83.1013" fill="#CAE35E"/>
<path d="M421.937 94V326.975" stroke="#1E5B60" stroke-width="0.971321"/>
<path d="M421.936 216.405L401.999 188.747" stroke="#1E5B60" stroke-width="0.971321"/>
<path d="M421.937 175.266L451.304 145.203" stroke="#1E5B60" stroke-width="0.971321"/>
<path d="M421.937 141.089L401.937 124.823" stroke="#1E5B60" stroke-width="0.971321"/>
<path d="M261.088 398.622C261.088 398.622 221.957 389.668 236.069 369.719C250.181 349.77 262.707 371.332 263.897 367.678C265.12 364.024 253.42 334.298 269.152 333.047C284.883 331.829 290.535 354.642 292.551 352.173C294.567 349.737 303.854 328.636 312.711 338.38C321.601 348.091 314.297 362.971 319.122 362.971C323.981 362.971 338.588 363.464 339.249 374.295C339.745 382.656 323.419 392.005 327.054 392.433C330.69 392.828 353.395 403.823 328.475 408.794C303.887 413.699 266.342 408.893 266.342 408.893C266.342 408.893 244.067 405.733 248.76 403.264C253.453 400.795 261.088 398.622 261.088 398.622Z" fill="#D3DE80"/>
<path d="M252.5 490.767C361.024 490.767 449 471.343 449 447.383C449 423.423 361.024 404 252.5 404C143.976 404 56 423.423 56 447.383C56 471.343 143.976 490.767 252.5 490.767Z" fill="#EDECEC"/>
<path d="M408.567 159.079C408.567 159.079 412.424 157.577 412.718 156.547C413.013 155.516 414.633 152.689 412.866 151.04C411.099 149.391 407.507 145.151 406.064 147.065C404.651 148.979 401.529 156.311 401.529 156.311C401.529 156.311 401.647 155.398 401.529 156.959C401.441 158.519 401.559 159.167 401.559 159.167L408.567 159.079Z" fill="#F8BBA6"/>
<path d="M292.019 160.522C292.136 157.342 292.961 155.428 291.43 154.191C289.869 152.954 287.396 151.305 286.042 151.806C284.687 152.306 283.391 152.247 282.508 154.691C281.624 157.135 281.359 158.814 281.83 160.64C282.272 162.465 287.072 162.23 287.072 162.23L292.019 160.522Z" fill="#F8BBA6"/>
<path d="M400.999 157.695C403.561 157.666 409.539 158.078 409.715 159.815C409.922 161.552 400.322 207.989 399.526 211.964C398.731 215.94 383.95 243.884 383.449 244.679C382.948 245.474 383.361 264.202 383.773 269.09C384.185 274.007 389.78 284.549 386.924 286.964C384.068 289.378 359.716 291.881 357.154 291.587C354.592 291.292 343.314 289.997 343.314 288.259C343.285 286.522 335.246 260.285 335.246 259.638C335.246 258.99 334.922 247.594 335.069 246.004C335.216 244.414 308.479 208.107 307.243 205.898C306.006 203.69 292.225 180.692 292.225 179.426C292.195 178.16 287.072 163.142 287.042 162.671C287.013 162.2 292.961 158.961 292.961 158.961L312.396 179.897L328.326 201.452L351.53 225.274L355.77 227.217C355.77 227.217 363.779 227.924 365.663 227.747C367.548 227.571 384.215 201.835 384.215 200.716C384.185 199.597 385.069 188.82 386.718 183.725C388.337 178.631 400.999 157.695 400.999 157.695Z" fill="#EB5A46"/>
<path d="M365.194 190.999C368.138 191.676 373.438 198.301 374.057 201.099C374.675 203.925 380.564 219.09 382.066 220.327C383.568 221.593 369.699 226.687 368.433 226.776C367.167 226.864 351.177 226.805 350.588 226.982C349.999 227.159 340.9 221.093 340.635 217.058C340.37 213.054 339.517 206.487 340.43 201.923C341.342 197.359 343.05 192.677 348.026 191.175C353.003 189.674 358.038 189.379 365.194 190.999Z" fill="#77473A"/>
<path d="M370.73 200.804C370.73 200.804 373.998 209.52 373.762 213.613C373.527 217.706 370.759 223.419 367.52 222.27C364.281 221.122 364.693 222.476 364.693 222.476C364.693 222.476 365.312 226.952 364.752 227.983C364.193 229.014 360.394 230.869 359.304 230.339C358.215 229.809 356.389 225.451 356.389 224.803C356.389 224.155 352.208 212.818 352.885 211.817C353.563 210.816 354.887 215.085 356.065 214.614C357.243 214.143 357.067 202.924 358.156 202.453C359.187 201.923 370.73 200.804 370.73 200.804Z" fill="#F8BBA6"/>
<path d="M380.181 428.129L379.503 437.286C379.503 437.286 378.296 439.407 375.91 438.906C373.525 438.405 372.524 438.199 372.495 436.845C372.465 435.49 372.377 428.659 372.377 428.659L380.181 428.129Z" fill="#F8BBA6"/>
<path d="M312.366 308.901L315.929 314.054C315.929 314.054 312.248 317.617 311.571 317.028C310.893 316.41 311.188 316.056 310.128 315.114C309.068 314.172 307.684 311.875 307.89 311.11C308.096 310.344 308.803 310.432 309.892 309.726C311.011 308.989 312.366 308.901 312.366 308.901Z" fill="#F8BBA6"/>
<path d="M371.524 438.729C371.524 438.729 369.758 446.356 371.024 446.856C372.29 447.357 384.658 455.749 386.572 455.72C388.486 455.69 394.08 455.631 394.316 454.601C394.551 453.57 393.08 450.066 392.078 449.448C391.077 448.829 381.007 441.291 380.977 440.349C380.977 439.406 380.918 436.668 380.918 436.668C380.918 436.668 371.495 436.373 371.495 436.55C371.495 436.727 371.524 438.729 371.524 438.729Z" fill="#CECCCD"/>
<path d="M312.485 307.046C312.338 306.339 309.569 299.007 307.921 299.508C306.272 300.008 289.635 311.669 291.225 313.2C292.844 314.731 294.552 314.849 295.229 314.349C295.906 313.848 303.238 308.695 303.916 308.96C304.593 309.225 308.097 313.583 308.421 313.76C308.745 313.936 313.78 310.02 313.78 309.608C313.78 309.196 312.485 307.046 312.485 307.046Z" fill="#CECCCD"/>
<path d="M381.652 285.55C381.652 285.55 384.213 306.781 384.42 315.762C384.626 324.743 386.363 430.985 382.064 432.045C377.765 433.105 368.901 432.192 368.901 432.192L356.946 343.589L362.217 316.263C362.217 316.263 353.442 363.377 351.204 366.645C348.966 369.914 342.606 376.51 337.718 372.299C332.83 368.117 307.418 319.148 307.418 319.148L317.518 310.786L333.212 339.113C333.212 339.113 332.83 311.61 333.566 306.604C334.302 301.598 343.725 282.723 346.669 283.46C349.614 284.196 381.652 285.55 381.652 285.55Z" fill="#023953"/>
<path d="M417.163 159.785L394.52 144.797L409.596 123.066L407.623 135.198L422.17 131.075L400.232 145.71L417.812 158.932L417.163 159.785Z" fill="#EB5A46"/>
<path d="M283.036 161.258L304.914 137.2L286.51 117L291.398 127.424L276.999 123.949L298.348 140.91L281.357 160.227L283.036 161.258Z" fill="#EB5A46"/>
<path d="M111.487 440.291C111.487 444.202 108.834 447.432 106.658 447.432C104.482 447.432 97.9188 447.908 96.5246 449.506C95.1305 451.104 94.6885 455.627 94.6885 455.627H122.232L121.076 439.747L111.487 440.291Z" fill="#FFEB73"/>
<path d="M167.63 438.216C167.732 441.106 168.446 445.833 168.446 445.833C168.446 445.833 161.543 448.247 162.121 451.716C162.699 455.184 163.379 455.626 163.379 455.626H176.845C176.845 455.626 179.396 452.294 179.26 448.383C179.158 444.473 177.763 436.516 177.763 436.516L167.63 438.216Z" fill="#FFEB73"/>
<path d="M96.0841 134.964C96.0841 134.964 93.9757 127.177 94.0777 126.599C94.1797 126.021 92.9218 116.024 99.3826 117.078C105.843 118.132 107.272 119.594 105.435 122.654C103.599 125.749 103.429 135.95 102.171 135.95C100.879 135.916 96.0841 134.964 96.0841 134.964Z" fill="#FBD7BF"/>
<path d="M223.702 135.985C224.382 133.605 218.533 123.233 221.56 121.601C224.586 119.969 231.115 117.35 232.101 120.547C233.087 123.743 230.639 135.441 229.313 135.441C227.986 135.475 223.498 136.733 223.702 135.985Z" fill="#FBD7BF"/>
<path d="M95.9482 383.401C95.9482 383.401 111.284 438.658 112.236 440.971C113.188 443.249 120.975 442.841 120.975 442.841C120.975 442.841 117.337 396.187 117.337 392.82C117.337 389.454 111.828 381.395 111.828 381.395L95.9482 383.401Z" fill="#FBD7BF"/>
<path d="M150.66 391.186L156.849 409.344L170.825 440.662H177.014C177.014 440.662 171.369 403.529 171.369 402.339C171.369 401.115 165.316 386.867 165.316 386.867L150.66 391.186Z" fill="#FBD7BF"/>
<path d="M121.724 286.793C121.724 286.793 88.9099 358.339 90.032 364.902C91.1542 371.464 91.1541 390.847 95.2346 391.391C99.3152 391.935 120.092 392.479 120.092 392.479C120.092 392.479 115.739 381.292 115.739 379.932C115.739 378.571 136.482 334.331 136.482 335.42C136.482 336.508 146.037 390.303 147.669 393.601C149.302 396.866 164.332 397.682 168.412 396.866C172.493 396.05 177.968 392.513 176.879 389.487C175.791 386.494 171.677 305.938 171.949 304.272C172.255 302.605 121.724 286.793 121.724 286.793Z" fill="#EDEDED"/>
<path d="M104.143 132.447C104.143 132.447 94.8601 133.331 93.7379 132.447C92.6158 131.563 87.3112 168.322 91.7318 180.495C96.4584 193.519 117.847 212.834 121.622 215.486C125.396 218.138 128.695 229.87 128.695 233.848C128.695 237.827 112.304 288.222 116.079 290.364C119.853 292.506 184.054 313.317 184.054 310.869C184.054 308.42 196.227 233.61 196.227 229.156C196.227 224.735 229.212 196.376 231.864 187.738C234.516 179.101 234.959 173.116 234.959 165.159C234.959 157.202 230.538 133.263 230.538 133.263C230.538 133.263 226.117 132.345 224.349 132.345C222.581 132.379 220.133 140.098 220.133 140.778C220.133 141.458 214.59 177.537 214.59 178.863C214.59 180.189 195.003 186.786 180.483 194.811C177.899 196.24 167.868 203.89 166.746 204.095C165.623 204.333 153.892 207.869 150.355 204.095C146.819 200.32 114.481 172.879 114.039 169.988C113.665 167.2 108.598 137.548 104.143 132.447Z" fill="#FFEB73"/>
<path d="M152.26 169.579C151.138 174.713 144.609 183.146 149.165 192.056C153.722 200.965 157.564 200.931 160.047 200.829C162.529 200.693 171.268 188.349 171.268 188.349C171.268 188.349 174.975 175.257 170.282 171.551C165.589 167.844 153.144 165.634 152.26 169.579Z" fill="#FBD7BF"/>
<path d="M153.757 196.479C153.791 198.927 153.281 203.858 153.757 206.884C154.233 209.911 158.552 210.183 160.116 210.013C161.714 209.843 163.278 210.999 163.278 207.7C163.278 204.402 163.278 196.207 163.278 196.207C163.278 196.207 153.723 193.351 153.757 196.479Z" fill="#FBD7BF"/>
<path d="M148.758 182.332C150.459 186.345 140.393 181.278 142.434 178.49C144.474 175.735 145.46 174.987 144.916 172.947C144.372 170.907 143.862 166.996 145.63 166.996C147.364 166.996 147.84 166.894 147.602 165.058C147.364 163.222 142.638 164.65 147.364 163.221C152.091 161.793 149.303 161.793 152.091 161.793C154.845 161.793 154.539 158.937 157.633 159.447C160.728 159.957 160.592 164.684 161.34 164.684C162.088 164.684 167.291 162.439 168.413 162.439C169.535 162.439 171.065 167.54 171.065 167.54C172.357 167.982 174.636 167.132 174.67 169.988C174.738 172.845 172.187 171.042 174.738 172.845C177.288 174.647 179.736 182.638 178.308 182.876C176.88 183.114 173.922 181.618 173.922 184.236C173.922 186.855 174.976 190.595 173.616 190.051C172.255 189.507 167.971 190.153 168.923 187.909C169.875 185.664 171.541 178.83 171.541 177.401C171.541 175.973 168.753 169.852 164.91 169.818C161.068 169.75 156.307 169.478 154.233 172.607C152.159 175.735 147.908 180.36 148.758 182.332Z" fill="#FF374C"/>
</svg>
