<svg width="165" height="174" viewBox="0 0 165 174" fill="none" xmlns="http://www.w3.org/2000/svg">
<ellipse cx="23.7212" cy="43.8058" rx="23.7212" ry="43.8058" fill="#EB5A46"/>
<path d="M23.6877 0V122.81" stroke="white" stroke-width="0.971321"/>
<path d="M23.688 64.5243L13.1786 49.9446" stroke="white" stroke-width="0.971321"/>
<path d="M23.6877 42.8382L39.1682 26.9907" stroke="white" stroke-width="0.971321"/>
<path d="M23.6879 24.822L13.1451 16.2477" stroke="white" stroke-width="0.971321"/>
<ellipse cx="82.1738" cy="92.4894" rx="10.0968" ry="18.6457" fill="#FFCB27"/>
<path d="M82.1597 73.8438V126.117" stroke="white" stroke-width="0.971321"/>
<path d="M82.1597 101.308L77.6864 95.1023" stroke="white" stroke-width="0.971321"/>
<path d="M82.1597 92.0775L88.7488 85.3322" stroke="white" stroke-width="0.971321"/>
<path d="M82.1597 84.4091L77.6722 80.7595" stroke="white" stroke-width="0.971321"/>
<ellipse cx="149.101" cy="62.5737" rx="15.8994" ry="29.3613" fill="#CAE35E"/>
<path d="M149.078 33.2124V115.527" stroke="white" stroke-width="0.971321"/>
<path d="M149.078 76.4605L142.034 66.6884" stroke="white" stroke-width="0.971321"/>
<path d="M149.078 61.9252L159.454 51.3032" stroke="white" stroke-width="0.971321"/>
<path d="M149.078 49.8498L142.012 44.1028" stroke="white" stroke-width="0.971321"/>
<path d="M91.975 141.339C91.975 141.339 78.0782 138.125 83.09 130.964C88.1018 123.803 92.5502 131.543 92.9727 130.231C93.407 128.919 89.252 118.248 94.8389 117.799C100.426 117.362 102.433 125.551 103.149 124.665C103.865 123.791 107.163 116.216 110.309 119.714C113.466 123.2 110.872 128.541 112.586 128.541C114.311 128.541 119.499 128.718 119.733 132.606C119.91 135.608 114.111 138.964 115.402 139.118C116.694 139.259 124.757 143.206 115.907 144.991C107.175 146.751 93.8413 145.026 93.8413 145.026C93.8413 145.026 85.9304 143.892 87.5971 143.005C89.2638 142.119 91.975 141.339 91.975 141.339Z" fill="#D3DE80"/>
<path d="M89.5 173.782C127.884 173.782 159 166.843 159 158.282C159 149.722 127.884 142.782 89.5 142.782C51.1162 142.782 20 149.722 20 158.282C20 166.843 51.1162 173.782 89.5 173.782Z" fill="#EDECEC"/>
<path d="M144.355 56.2056C144.355 56.2056 145.717 55.675 145.821 55.3109C145.925 54.9467 146.498 53.9479 145.873 53.3653C145.249 52.7827 143.98 51.2846 143.47 51.9608C142.971 52.6371 141.868 55.2276 141.868 55.2276C141.868 55.2276 141.91 54.9051 141.868 55.4565C141.837 56.0079 141.878 56.2368 141.878 56.2368L144.355 56.2056Z" fill="#F8BBA6"/>
<path d="M103.176 56.7153C103.217 55.5917 103.509 54.9154 102.968 54.4785C102.416 54.0415 101.543 53.4589 101.064 53.6358C100.585 53.8126 100.127 53.7918 99.8153 54.6553C99.5032 55.5189 99.4095 56.1119 99.576 56.7569C99.7321 57.402 101.428 57.3187 101.428 57.3187L103.176 56.7153Z" fill="#F8BBA6"/>
<path d="M141.681 55.7166C142.586 55.7062 144.698 55.8518 144.761 56.4657C144.833 57.0795 141.442 73.4864 141.161 74.8909C140.88 76.2955 135.657 86.1688 135.48 86.4497C135.303 86.7306 135.449 93.3474 135.595 95.0745C135.74 96.8119 137.717 100.537 136.708 101.39C135.699 102.243 127.095 103.127 126.19 103.023C125.284 102.919 121.3 102.461 121.3 101.847C121.289 101.234 118.449 91.9637 118.449 91.7349C118.449 91.506 118.335 87.4797 118.387 86.9178C118.439 86.356 108.992 73.528 108.555 72.7477C108.118 71.9675 103.249 63.842 103.249 63.3946C103.238 62.9473 101.428 57.6413 101.418 57.4748C101.407 57.3084 103.509 56.1639 103.509 56.1639L110.376 63.5611L116.004 71.1768L124.202 79.5935L125.701 80.2802C125.701 80.2802 128.53 80.5299 129.196 80.4674C129.862 80.405 135.751 71.312 135.751 70.9167C135.74 70.5213 136.052 66.7135 136.635 64.9136C137.207 63.1137 141.681 55.7166 141.681 55.7166Z" fill="#EB5A46"/>
<path d="M129.03 67.4834C130.07 67.7227 131.943 70.0636 132.161 71.052C132.38 72.0507 134.461 77.4087 134.991 77.8457C135.522 78.2931 130.622 80.093 130.174 80.1242C129.727 80.1554 124.078 80.1346 123.87 80.197C123.661 80.2594 120.447 78.1162 120.353 76.6909C120.259 75.276 119.958 72.9559 120.28 71.3433C120.603 69.7307 121.206 68.0765 122.964 67.5459C124.723 67.0153 126.502 66.9112 129.03 67.4834Z" fill="#77473A"/>
<path d="M130.986 70.9478C130.986 70.9478 132.141 74.0273 132.057 75.4734C131.974 76.9196 130.996 78.9379 129.852 78.5322C128.707 78.1264 128.853 78.605 128.853 78.605C128.853 78.605 129.072 80.1864 128.874 80.5505C128.676 80.9147 127.334 81.5701 126.949 81.3829C126.564 81.1956 125.919 79.6558 125.919 79.4269C125.919 79.198 124.442 75.1925 124.681 74.8388C124.92 74.4851 125.388 75.9936 125.805 75.8272C126.221 75.6607 126.159 71.6968 126.543 71.5304C126.908 71.3431 130.986 70.9478 130.986 70.9478Z" fill="#F8BBA6"/>
<path d="M134.325 151.266L134.086 154.502C134.086 154.502 133.659 155.251 132.816 155.074C131.974 154.897 131.62 154.824 131.61 154.346C131.599 153.867 131.568 151.453 131.568 151.453L134.325 151.266Z" fill="#F8BBA6"/>
<path d="M110.365 109.141L111.624 110.961C111.624 110.961 110.323 112.22 110.084 112.012C109.844 111.794 109.949 111.669 109.574 111.336C109.199 111.003 108.71 110.191 108.783 109.921C108.856 109.65 109.106 109.682 109.491 109.432C109.886 109.172 110.365 109.141 110.365 109.141Z" fill="#F8BBA6"/>
<path d="M131.267 155.012C131.267 155.012 130.642 157.706 131.09 157.883C131.537 158.06 135.907 161.025 136.583 161.015C137.259 161.004 139.236 160.983 139.319 160.619C139.402 160.255 138.883 159.017 138.529 158.799C138.175 158.58 134.617 155.917 134.606 155.584C134.606 155.251 134.586 154.283 134.586 154.283C134.586 154.283 131.256 154.179 131.256 154.242C131.256 154.304 131.267 155.012 131.267 155.012Z" fill="#CECCCD"/>
<path d="M110.407 108.485C110.355 108.236 109.377 105.645 108.794 105.822C108.212 105.999 102.334 110.119 102.895 110.66C103.468 111.201 104.071 111.242 104.31 111.065C104.549 110.889 107.14 109.068 107.379 109.162C107.619 109.255 108.857 110.795 108.971 110.857C109.085 110.92 110.865 109.536 110.865 109.39C110.865 109.245 110.407 108.485 110.407 108.485Z" fill="#CECCCD"/>
<path d="M134.845 100.89C134.845 100.89 135.75 108.391 135.823 111.565C135.896 114.738 136.51 152.275 134.991 152.649C133.472 153.024 130.34 152.702 130.34 152.702L126.116 121.396L127.978 111.741C127.978 111.741 124.878 128.388 124.087 129.542C123.297 130.697 121.049 133.028 119.322 131.54C117.595 130.063 108.617 112.761 108.617 112.761L112.185 109.806L117.731 119.815C117.731 119.815 117.595 110.098 117.855 108.329C118.116 106.56 121.445 99.8913 122.485 100.151C123.526 100.412 134.845 100.89 134.845 100.89Z" fill="#023953"/>
<path d="M147.392 56.4553L139.391 51.1598L144.718 43.4817L144.021 47.7681L149.161 46.3116L141.41 51.4823L147.621 56.1536L147.392 56.4553Z" fill="#EB5A46"/>
<path d="M100.002 56.9754L107.732 48.4755L101.23 41.3384L102.957 45.0214L97.8694 43.7937L105.412 49.7863L99.4092 56.6113L100.002 56.9754Z" fill="#EB5A46"/>
<path d="M39.3905 155.563C39.3905 156.945 38.4533 158.086 37.6844 158.086C36.9154 158.086 34.5967 158.254 34.1041 158.819C33.6115 159.384 33.4553 160.982 33.4553 160.982H43.187L42.7785 155.371L39.3905 155.563Z" fill="#FFEB73"/>
<path d="M59.2268 154.83C59.2628 155.851 59.5152 157.521 59.5152 157.521C59.5152 157.521 57.0762 158.374 57.2805 159.6C57.4847 160.825 57.725 160.982 57.725 160.982H62.4827C62.4827 160.982 63.3838 159.804 63.3358 158.423C63.2997 157.041 62.8071 154.229 62.8071 154.229L59.2268 154.83Z" fill="#FFEB73"/>
<path d="M33.9484 47.6854C33.9484 47.6854 33.2035 44.9341 33.2395 44.7299C33.2756 44.5256 32.8311 40.9934 35.1139 41.3659C37.3966 41.7383 37.9012 42.2549 37.2524 43.3362C36.6036 44.4295 36.5435 48.0339 36.099 48.0339C35.6424 48.0218 33.9484 47.6854 33.9484 47.6854Z" fill="#FBD7BF"/>
<path d="M79.0382 48.0463C79.2785 47.2053 77.212 43.5408 78.2813 42.9641C79.3505 42.3875 81.6573 41.4623 82.0057 42.5917C82.3541 43.7211 81.4891 47.854 81.0205 47.854C80.5519 47.866 78.9661 48.3106 79.0382 48.0463Z" fill="#FBD7BF"/>
<path d="M33.9001 135.463C33.9001 135.463 39.3186 154.986 39.655 155.803C39.9914 156.608 42.7427 156.464 42.7427 156.464C42.7427 156.464 41.4572 139.98 41.4572 138.791C41.4572 137.601 39.5109 134.754 39.5109 134.754L33.9001 135.463Z" fill="#FBD7BF"/>
<path d="M53.2312 138.213L55.4178 144.629L60.3557 155.694H62.5424C62.5424 155.694 60.548 142.574 60.548 142.154C60.548 141.721 58.4094 136.687 58.4094 136.687L53.2312 138.213Z" fill="#FBD7BF"/>
<path d="M43.0073 101.329C43.0073 101.329 31.4134 126.608 31.8099 128.927C32.2063 131.245 32.2063 138.094 33.648 138.286C35.0898 138.478 42.4306 138.67 42.4306 138.67C42.4306 138.67 40.8928 134.717 40.8928 134.237C40.8928 133.756 48.2215 118.126 48.2215 118.51C48.2215 118.894 51.5976 137.901 52.1743 139.067C52.751 140.22 58.0614 140.508 59.5031 140.22C60.9448 139.932 62.8792 138.682 62.4947 137.613C62.1102 136.556 60.6565 108.093 60.7526 107.505C60.8607 106.916 43.0073 101.329 43.0073 101.329Z" fill="#EDEDED"/>
<path d="M36.7958 46.796C36.7958 46.796 33.5159 47.1084 33.1194 46.796C32.7229 46.4836 30.8487 59.4712 32.4106 63.7724C34.0806 68.3739 41.6376 75.1982 42.9712 76.1353C44.3048 77.0724 45.4703 81.2174 45.4703 82.6231C45.4703 84.0287 39.6793 101.834 41.0129 102.591C42.3465 103.348 65.0297 110.701 65.0297 109.836C65.0297 108.971 69.3309 82.5389 69.3309 80.9651C69.3309 79.4032 80.9849 69.3832 81.922 66.3315C82.8591 63.2798 83.0154 61.1653 83.0154 58.3539C83.0154 55.5425 81.4534 47.0843 81.4534 47.0843C81.4534 47.0843 79.8916 46.76 79.2669 46.76C78.6421 46.772 77.777 49.4993 77.777 49.7396C77.777 49.9799 75.8186 62.7272 75.8186 63.1957C75.8186 63.6643 68.8984 65.9951 63.7682 68.8305C62.8551 69.3351 59.3109 72.0383 58.9144 72.1104C58.5179 72.1945 54.3729 73.444 53.1234 72.1104C51.8739 70.7768 40.4482 61.0812 40.292 60.06C40.1599 59.0748 38.3697 48.5982 36.7958 46.796Z" fill="#FFEB73"/>
<path d="M53.7963 59.9152C53.3999 61.7293 51.093 64.7089 52.703 67.8567C54.3129 71.0045 55.6706 70.9925 56.5476 70.9564C57.4247 70.9084 60.5124 66.5471 60.5124 66.5471C60.5124 66.5471 61.822 61.9215 60.164 60.6119C58.506 59.3024 54.1087 58.5215 53.7963 59.9152Z" fill="#FBD7BF"/>
<path d="M54.3251 69.4198C54.3371 70.2849 54.1569 72.027 54.3251 73.0962C54.4933 74.1655 56.0191 74.2616 56.5718 74.2015C57.1365 74.1415 57.6891 74.55 57.6891 73.3846C57.6891 72.2192 57.6891 69.3237 57.6891 69.3237C57.6891 69.3237 54.3131 68.3145 54.3251 69.4198Z" fill="#FBD7BF"/>
<path d="M52.5591 64.4214C53.1599 65.8391 49.6036 64.0489 50.3245 63.0638C51.0453 62.0906 51.3937 61.8263 51.2015 61.1054C51.0093 60.3845 50.8291 59.0029 51.4538 59.0029C52.0666 59.0029 52.2348 58.9668 52.1507 58.318C52.0666 57.6693 50.3966 58.1738 52.0666 57.6692C53.7366 57.1646 52.7514 57.1646 53.7366 57.1646C54.7098 57.1646 54.6016 56.1554 55.6949 56.3356C56.7882 56.5159 56.7402 58.1859 57.0045 58.1859C57.2688 58.1859 59.107 57.3929 59.5035 57.3929C59.9 57.3929 60.4406 59.1951 60.4406 59.1951C60.8971 59.3513 61.7021 59.0509 61.7141 60.0602C61.7382 61.0694 60.8371 60.4326 61.7382 61.0693C62.6393 61.7061 63.5043 64.5295 62.9997 64.6136C62.4951 64.6977 61.4498 64.1691 61.4498 65.0942C61.4498 66.0193 61.8223 67.3409 61.3417 67.1486C60.8611 66.9564 59.3473 67.1847 59.6837 66.3917C60.0201 65.5988 60.6088 63.1839 60.6088 62.6793C60.6088 62.1747 59.6236 60.012 58.266 60C56.9084 59.976 55.2263 59.8799 54.4934 60.9852C53.7606 62.0905 52.2588 63.7246 52.5591 64.4214Z" fill="#FF374C"/>
</svg>
