<svg width="24" height="14" viewBox="0 0 24 14" fill="none" xmlns="http://www.w3.org/2000/svg">
<path d="M13.3236 13.4141L23.4689 3.11347C23.6372 2.94429 23.7707 2.74301 23.8619 2.52124C23.9531 2.29946 24 2.06159 24 1.82134C24 1.58109 23.9531 1.34322 23.8619 1.12145C23.7707 0.89968 23.6372 0.698397 23.4689 0.529214C23.1324 0.190255 22.6773 -5.78163e-08 22.2029 -7.85521e-08C21.7286 -9.92878e-08 21.2735 0.190255 20.937 0.529213L11.9589 9.53772L3.07052 0.529213C2.73409 0.190254 2.27898 -9.49456e-07 1.8046 -9.70192e-07C1.33022 -9.90927e-07 0.87512 0.190254 0.538687 0.529213C0.36902 0.697762 0.234043 0.898761 0.141575 1.12056C0.0491046 1.34236 0.00098603 1.58056 -7.96135e-08 1.82134C0.000986009 2.06213 0.0491046 2.30032 0.141575 2.52212C0.234043 2.74392 0.36902 2.94492 0.538687 3.11347L10.684 13.4141C10.8521 13.5988 11.0562 13.7463 11.2834 13.8471C11.5105 13.9479 11.7558 14 12.0038 14C12.2518 14 12.497 13.9479 12.7242 13.8471C12.9513 13.7463 13.1554 13.5988 13.3236 13.4141Z" fill="#1E5B60"/>
</svg>
