<svg width="14" height="24" viewBox="0 0 14 24" fill="none" xmlns="http://www.w3.org/2000/svg">
<path d="M13.4141 10.6764L3.11347 0.531144C2.94429 0.362842 2.74301 0.229258 2.52124 0.138097C2.29946 0.046935 2.06159 0 1.82134 0C1.58109 0 1.34322 0.046935 1.12145 0.138097C0.89968 0.229258 0.698397 0.362842 0.529214 0.531144C0.190255 0.867577 0 1.32268 0 1.79706C0 2.27144 0.190255 2.72655 0.529214 3.06298L9.53772 12.0411L0.529214 20.9295C0.190255 21.2659 0 21.721 0 22.1954C0 22.6698 0.190255 23.1249 0.529214 23.4613C0.697763 23.631 0.898762 23.766 1.12056 23.8584C1.34236 23.9509 1.58056 23.999 1.82134 24C2.06213 23.999 2.30032 23.9509 2.52212 23.8584C2.74392 23.766 2.94492 23.631 3.11347 23.4613L13.4141 13.316C13.5988 13.1479 13.7463 12.9438 13.8471 12.7166C13.9479 12.4895 14 12.2442 14 11.9962C14 11.7482 13.9479 11.503 13.8471 11.2758C13.7463 11.0487 13.5988 10.8446 13.4141 10.6764Z" fill="white"/>
</svg>
