<svg width="14" height="24" viewBox="0 0 14 24" fill="none" xmlns="http://www.w3.org/2000/svg">
<path d="M0.585886 10.6764L10.8865 0.531144C11.0557 0.362842 11.257 0.229258 11.4788 0.138097C11.7005 0.046935 11.9384 0 12.1787 0C12.4189 0 12.6568 0.046935 12.8785 0.138097C13.1003 0.229258 13.3016 0.362842 13.4708 0.531144C13.8097 0.867577 14 1.32268 14 1.79706C14 2.27144 13.8097 2.72655 13.4708 3.06298L4.46228 12.0411L13.4708 20.9295C13.8097 21.2659 14 21.721 14 22.1954C14 22.6698 13.8097 23.1249 13.4708 23.4613C13.3022 23.631 13.1012 23.766 12.8794 23.8584C12.6576 23.9509 12.4194 23.999 12.1787 24C11.9379 23.999 11.6997 23.9509 11.4779 23.8584C11.2561 23.766 11.0551 23.631 10.8865 23.4613L0.585886 13.316C0.401157 13.1479 0.25373 12.9438 0.152894 12.7166C0.0520582 12.4895 0 12.2442 0 11.9962C0 11.7482 0.0520582 11.503 0.152894 11.2758C0.25373 11.0487 0.401157 10.8446 0.585886 10.6764Z" fill="#1E5B60"/>
</svg>
