<svg width="18" height="32" viewBox="0 0 18 32" fill="none" xmlns="http://www.w3.org/2000/svg">
<path d="M0.753277 14.2353L13.997 0.708191C14.2145 0.483789 14.4733 0.305677 14.7584 0.184129C15.0435 0.0625797 15.3494 -2.31724e-07 15.6583 -2.0472e-07C15.9672 -1.77716e-07 16.273 0.0625798 16.5581 0.184129C16.8433 0.305678 17.1021 0.48379 17.3196 0.708192C17.7554 1.15677 18 1.76358 18 2.39608C18 3.02859 17.7554 3.6354 17.3196 4.08397L5.73721 16.0548L17.3196 27.906C17.7554 28.3545 18 28.9614 18 29.5939C18 30.2264 17.7554 30.8332 17.3196 31.2817C17.1029 31.508 16.8444 31.6879 16.5593 31.8112C16.2741 31.9345 15.9679 31.9987 15.6583 32C15.3487 31.9987 15.0424 31.9345 14.7573 31.8112C14.4721 31.6879 14.2137 31.508 13.997 31.2817L0.753277 17.7547C0.51577 17.5305 0.32622 17.2584 0.196574 16.9555C0.0669274 16.6527 -3.33458e-06 16.3256 -3.30567e-06 15.995C-3.27677e-06 15.6643 0.0669275 15.3373 0.196574 15.0344C0.32622 14.7316 0.515771 14.4594 0.753277 14.2353Z" fill="#1E5B60"/>
</svg>
