<svg width="54" height="54" viewBox="0 0 54 54" fill="none" xmlns="http://www.w3.org/2000/svg">
<g filter="url(#filter0_d)">
<circle cx="27" cy="23" r="16" fill="white"/>
</g>
<path d="M25.0027 28.9243C24.6804 29.2516 24.4802 29.6815 24.436 30.1412C24.3918 30.6008 24.5064 31.0618 24.7603 31.4456C25.0142 31.8295 25.3917 32.1127 25.8288 32.247C26.2658 32.3813 26.7353 32.3584 27.1576 32.1823C27.3978 32.0736 27.6184 31.925 27.81 31.7426C27.9878 31.5584 28.1288 31.3412 28.2251 31.103C28.3381 30.8594 28.3923 30.5923 28.3833 30.3234C28.3811 29.7991 28.1752 29.2966 27.81 28.9243C27.6262 28.737 27.4075 28.5883 27.1666 28.4868C26.9257 28.3853 26.6673 28.3331 26.4063 28.3331C26.1454 28.3331 25.887 28.3853 25.6461 28.4868C25.4051 28.5883 25.1865 28.737 25.0027 28.9243ZM26.4063 18.3309C26.9307 18.3309 27.4335 18.5414 27.8042 18.9163C28.175 19.2911 28.3833 19.7995 28.3833 20.3296C28.3833 20.8597 28.175 21.3681 27.8042 21.743C27.4335 22.1178 26.9307 22.3284 26.4063 22.3284C25.882 22.3284 25.3792 22.539 25.0084 22.9138C24.6377 23.2887 24.4294 23.797 24.4294 24.3272C24.4294 24.8573 24.6377 25.3656 25.0084 25.7405C25.3792 26.1153 25.882 26.3259 26.4063 26.3259C27.4472 26.3252 28.4697 26.0476 29.3708 25.5209C30.272 24.9942 31.0202 24.2369 31.5402 23.3253C32.0602 22.4136 32.3337 21.3796 32.3333 20.3272C32.3329 19.2748 32.0585 18.2411 31.5378 17.3298C31.0171 16.4186 30.2683 15.662 29.3667 15.136C28.4651 14.61 27.4425 14.3332 26.4016 14.3333C25.3607 14.3335 24.3381 14.6107 23.4367 15.1369C22.5353 15.6632 21.7868 16.4201 21.2663 17.3315C21.1356 17.5596 21.0508 17.8116 21.0168 18.073C20.9829 18.3344 21.0004 18.6 21.0684 18.8545C21.1364 19.1091 21.2535 19.3475 21.413 19.556C21.5725 19.7646 21.7712 19.9392 21.9978 20.0698C22.4517 20.3304 22.9892 20.3989 23.4929 20.2603C23.9966 20.1218 24.4256 19.7874 24.6864 19.3302C24.8606 19.0252 25.1114 18.7722 25.4134 18.5967C25.7154 18.4212 26.058 18.3295 26.4063 18.3309Z" fill="#1E5B60"/>
<defs>
<filter id="filter0_d" x="0.333333" y="0.333333" width="53.3333" height="53.3333" filterUnits="userSpaceOnUse" color-interpolation-filters="sRGB">
<feFlood flood-opacity="0" result="BackgroundImageFix"/>
<feColorMatrix in="SourceAlpha" type="matrix" values="0 0 0 0 0 0 0 0 0 0 0 0 0 0 0 0 0 0 127 0"/>
<feOffset dy="4"/>
<feGaussianBlur stdDeviation="5.33333"/>
<feColorMatrix type="matrix" values="0 0 0 0 0 0 0 0 0 0 0 0 0 0 0 0 0 0 0.15 0"/>
<feBlend mode="normal" in2="BackgroundImageFix" result="effect1_dropShadow"/>
<feBlend mode="normal" in="SourceGraphic" in2="effect1_dropShadow" result="shape"/>
</filter>
</defs>
</svg>
