<svg width="1456" height="532" viewBox="0 0 1456 532" fill="none" xmlns="http://www.w3.org/2000/svg">
<ellipse rx="45.4455" ry="83.9239" transform="matrix(-1 0 0 1 1056.42 235.446)" fill="#EB5A46"/>
<path d="M1056.49 151.522V386.803" stroke="#1E5B60" stroke-width="1.27835"/>
<path d="M1056.49 275.139L1076.62 247.207" stroke="#1E5B60" stroke-width="1.27835"/>
<path d="M1056.49 233.593L1026.83 203.233" stroke="#1E5B60" stroke-width="1.27835"/>
<path d="M1056.49 199.077L1076.68 182.651" stroke="#1E5B60" stroke-width="1.27835"/>
<ellipse rx="45.4455" ry="83.9239" transform="matrix(-1 0 0 1 790.418 164.674)" fill="#EB5A46"/>
<path d="M790.482 80.7503V316.031" stroke="#1E5B60" stroke-width="1.27835"/>
<path d="M790.481 204.366L810.615 176.434" stroke="#1E5B60" stroke-width="1.27835"/>
<path d="M790.482 162.821L760.825 132.461" stroke="#1E5B60" stroke-width="1.27835"/>
<path d="M790.48 128.304L810.678 111.878" stroke="#1E5B60" stroke-width="1.27835"/>
<ellipse rx="45.4455" ry="83.9239" transform="matrix(-1 0 0 1 445.541 192.725)" fill="#EB5A46"/>
<path d="M445.605 108.801V344.082" stroke="#1E5B60" stroke-width="1.27835"/>
<path d="M445.604 232.418L465.738 204.486" stroke="#1E5B60" stroke-width="1.27835"/>
<path d="M445.605 190.872L415.948 160.511" stroke="#1E5B60" stroke-width="1.27835"/>
<path d="M445.603 156.355L465.801 139.928" stroke="#1E5B60" stroke-width="1.27835"/>
<ellipse rx="59.7901" ry="110.414" transform="matrix(-1 0 0 1 926.784 332.71)" fill="#FFE79D"/>
<path d="M926.869 222.295V531.841" stroke="#1E5B60" stroke-width="1.68186"/>
<path d="M926.868 384.93L953.357 348.182" stroke="#1E5B60" stroke-width="1.68186"/>
<path d="M926.869 330.271L887.85 290.327" stroke="#1E5B60" stroke-width="1.68186"/>
<path d="M926.868 284.86L953.441 263.249" stroke="#1E5B60" stroke-width="1.68186"/>
<ellipse rx="45.4455" ry="83.9239" transform="matrix(-1 0 0 1 733.849 102.862)" fill="#FFE79D"/>
<path d="M733.914 18.9379V254.219" stroke="#1E5B60" stroke-width="1.27835"/>
<path d="M733.913 142.554L754.047 114.622" stroke="#1E5B60" stroke-width="1.27835"/>
<path d="M733.914 101.007L704.256 70.6465" stroke="#1E5B60" stroke-width="1.27835"/>
<path d="M733.915 66.4919L754.113 50.0651" stroke="#1E5B60" stroke-width="1.27835"/>
<ellipse rx="45.4455" ry="83.9239" transform="matrix(-1 0 0 1 864.904 329.086)" fill="#CAE35E"/>
<path d="M864.969 245.162V480.443" stroke="#1E5B60" stroke-width="1.27835"/>
<path d="M864.967 368.779L885.102 340.847" stroke="#1E5B60" stroke-width="1.27835"/>
<path d="M864.969 327.232L835.311 296.871" stroke="#1E5B60" stroke-width="1.27835"/>
<path d="M864.97 292.717L885.168 276.29" stroke="#1E5B60" stroke-width="1.27835"/>
<ellipse rx="45.4455" ry="83.9239" transform="matrix(-1 0 0 1 554.127 155.283)" fill="#CAE35E"/>
<path d="M554.191 71.3579V306.639" stroke="#1E5B60" stroke-width="1.27835"/>
<path d="M554.19 194.975L574.324 167.043" stroke="#1E5B60" stroke-width="1.27835"/>
<path d="M554.191 153.427L524.534 123.067" stroke="#1E5B60" stroke-width="1.27835"/>
<path d="M554.193 118.913L574.391 102.486" stroke="#1E5B60" stroke-width="1.27835"/>
<ellipse rx="45.4455" ry="83.9239" transform="matrix(-1 0 0 1 602.801 211.445)" fill="#EB5A46"/>
<path d="M602.865 127.521V362.802" stroke="#1E5B60" stroke-width="1.27835"/>
<path d="M602.864 251.138L622.998 223.206" stroke="#1E5B60" stroke-width="1.27835"/>
<path d="M602.865 209.592L573.207 179.231" stroke="#1E5B60" stroke-width="1.27835"/>
<path d="M602.863 175.076L623.061 158.649" stroke="#1E5B60" stroke-width="1.27835"/>
<ellipse rx="45.4455" ry="83.9239" transform="matrix(-1 0 0 1 962.254 84.1402)" fill="#CAE35E"/>
<path d="M962.318 0.216309V235.497" stroke="#1E5B60" stroke-width="1.27835"/>
<path d="M962.317 123.833L982.451 95.9014" stroke="#1E5B60" stroke-width="1.27835"/>
<path d="M962.318 82.2859L932.661 51.925" stroke="#1E5B60" stroke-width="1.27835"/>
<path d="M962.32 47.7715L982.518 31.3446" stroke="#1E5B60" stroke-width="1.27835"/>
<path d="M703.125 395.08C703.125 395.08 752.446 383.751 734.659 358.511C716.871 333.27 701.084 360.552 699.584 355.928C698.043 351.305 712.789 313.694 692.961 312.112C673.132 310.571 666.009 339.435 663.468 336.311C660.927 333.229 649.221 306.531 638.057 318.859C626.852 331.146 636.058 349.972 629.976 349.972C623.852 349.972 605.44 350.597 604.607 364.3C603.982 374.879 624.561 386.708 619.978 387.25C615.396 387.749 586.778 401.661 618.187 407.95C649.18 414.156 696.501 408.075 696.501 408.075C696.501 408.075 724.578 404.077 718.663 400.953C712.747 397.829 703.125 395.08 703.125 395.08Z" fill="#FFCB27"/>
<path d="M550.862 424.738C550.862 424.738 501.54 413.409 519.328 388.169C537.115 362.928 552.903 390.209 554.402 385.586C555.944 380.963 541.197 343.352 561.026 341.77C580.854 340.229 587.978 369.093 590.519 365.969C593.06 362.887 604.765 336.189 615.929 348.517C627.135 360.804 617.929 379.63 624.011 379.63C630.134 379.63 648.546 380.255 649.379 393.958C650.004 404.537 629.426 416.366 634.008 416.908C638.59 417.407 667.208 431.319 635.799 437.608C604.807 443.814 557.485 437.733 557.485 437.733C557.485 437.733 529.408 433.734 535.324 430.611C541.239 427.487 550.862 424.738 550.862 424.738Z" fill="#EB5A46"/>
<path d="M650.201 433.457C650.201 433.457 600.88 422.128 618.667 396.887C636.455 371.647 652.243 398.928 653.742 394.305C655.284 389.682 640.537 352.071 660.366 350.489C680.194 348.947 687.317 377.812 689.858 374.688C692.399 371.606 704.105 344.907 715.269 357.236C726.475 369.523 717.269 388.349 723.35 388.349C729.474 388.349 747.886 388.974 748.719 402.677C749.344 413.256 728.766 425.085 733.348 425.626C737.93 426.126 766.548 440.038 735.139 446.327C704.147 452.533 656.825 446.452 656.825 446.452C656.825 446.452 628.748 442.453 634.663 439.33C640.579 436.206 650.201 433.457 650.201 433.457Z" fill="#CAE35E"/>
<path d="M614.38 467.679H709C709 441.81 687.815 420.84 661.677 420.84C635.565 420.84 614.38 441.81 614.38 467.679Z" fill="white" stroke="#5574B7" stroke-width="2.6919" stroke-miterlimit="10"/>
<path d="M410.683 397.713C402.78 397.713 396.372 390.827 396.372 382.334C396.372 373.841 402.78 366.956 410.683 366.956C418.587 366.956 424.994 373.841 424.994 382.334C424.994 390.827 418.587 397.713 410.683 397.713Z" fill="white" stroke="#5575B8" stroke-width="2.16395" stroke-miterlimit="10"/>
<path d="M410.686 391.653C405.906 391.653 402.03 387.481 402.03 382.334C402.03 377.187 405.906 373.015 410.686 373.015C415.466 373.015 419.342 377.187 419.342 382.334C419.342 387.481 415.466 391.653 410.686 391.653Z" fill="white" stroke="#5575B8" stroke-width="2.16395" stroke-miterlimit="10"/>
<path d="M410.688 397.712V454.552" stroke="#5575B8" stroke-width="2.16395" stroke-miterlimit="10"/>
<path d="M427.623 407.003C425.648 407.003 424.046 405.737 424.046 404.175C424.046 402.614 425.648 401.348 427.623 401.348C429.599 401.348 431.201 402.614 431.201 404.175C431.201 405.737 429.599 407.003 427.623 407.003Z" fill="white" stroke="#5575B8" stroke-width="2.16395" stroke-miterlimit="10"/>
<path d="M393.202 404.204C391.433 404.204 389.999 403.028 389.999 401.578C389.999 400.128 391.433 398.953 393.202 398.953C394.97 398.953 396.404 400.128 396.404 401.578C396.404 403.028 394.97 404.204 393.202 404.204Z" fill="white" stroke="#5575B8" stroke-width="2.16395" stroke-miterlimit="10"/>
<path d="M427.25 407.003C427.25 407.003 417.411 414.101 410.689 413.552C403.966 413.004 395.57 410.494 392.829 404.175" stroke="#5575B8" stroke-width="2.16395" stroke-miterlimit="10"/>
<path d="M425.836 423.392C424.163 423.392 422.806 422.32 422.806 420.997C422.806 419.675 424.163 418.602 425.836 418.602C427.509 418.602 428.865 419.675 428.865 420.997C428.865 422.32 427.509 423.392 425.836 423.392Z" fill="white" stroke="#5575B8" stroke-width="2.16395" stroke-miterlimit="10"/>
<path d="M396.669 421.026C395.171 421.026 393.957 420.031 393.957 418.804C393.957 417.577 395.171 416.582 396.669 416.582C398.167 416.582 399.381 417.577 399.381 418.804C399.381 420.031 398.167 421.026 396.669 421.026Z" fill="white" stroke="#5575B8" stroke-width="2.16395" stroke-miterlimit="10"/>
<path d="M425.549 423.392C425.549 423.392 417.21 429.422 411.526 428.961C405.842 428.499 398.716 426.393 396.379 420.997" stroke="#5575B8" stroke-width="2.16395" stroke-miterlimit="10"/>
<path d="M477.426 362.461C468.265 362.461 460.839 354.48 460.839 344.636C460.839 334.791 468.265 326.811 477.426 326.811C486.587 326.811 494.014 334.791 494.014 344.636C494.014 354.48 486.587 362.461 477.426 362.461Z" fill="white" stroke="#5575B8" stroke-width="2.50819" stroke-miterlimit="10"/>
<path d="M477.426 355.438C471.885 355.438 467.393 350.602 467.393 344.636C467.393 338.671 471.885 333.834 477.426 333.834C482.967 333.834 487.459 338.671 487.459 344.636C487.459 350.602 482.967 355.438 477.426 355.438Z" fill="white" stroke="#5575B8" stroke-width="2.50819" stroke-miterlimit="10"/>
<path d="M477.428 362.46V428.342" stroke="#5575B8" stroke-width="2.50819" stroke-miterlimit="10"/>
<path d="M497.06 373.23C494.77 373.23 492.913 371.762 492.913 369.952C492.913 368.142 494.77 366.675 497.06 366.675C499.35 366.675 501.207 368.142 501.207 369.952C501.207 371.762 499.35 373.23 497.06 373.23Z" fill="white" stroke="#5575B8" stroke-width="2.50819" stroke-miterlimit="10"/>
<path d="M457.167 369.985C455.117 369.985 453.455 368.623 453.455 366.942C453.455 365.261 455.117 363.899 457.167 363.899C459.217 363.899 460.879 365.261 460.879 366.942C460.879 368.623 459.217 369.985 457.167 369.985Z" fill="white" stroke="#5575B8" stroke-width="2.50819" stroke-miterlimit="10"/>
<path d="M496.621 373.229C496.621 373.229 485.217 381.456 477.425 380.821C469.633 380.186 459.901 377.276 456.724 369.952" stroke="#5575B8" stroke-width="2.50819" stroke-miterlimit="10"/>
<path d="M486.927 408.01C485.486 408.01 484.318 406.992 484.318 405.736C484.318 404.48 485.486 403.462 486.927 403.462C488.367 403.462 489.535 404.48 489.535 405.736C489.535 406.992 488.367 408.01 486.927 408.01Z" fill="white" stroke="#5575B8" stroke-width="2.50819" stroke-miterlimit="10"/>
<path d="M468.366 406.372C467.036 406.372 465.958 405.428 465.958 404.265C465.958 403.101 467.036 402.158 468.366 402.158C469.695 402.158 470.773 403.101 470.773 404.265C470.773 405.428 469.695 406.372 468.366 406.372Z" fill="white" stroke="#5575B8" stroke-width="2.50819" stroke-miterlimit="10"/>
<path d="M486.924 408.077C486.924 408.077 481.606 412.358 477.961 412.023C474.316 411.689 469.768 410.184 468.296 406.372" stroke="#5575B8" stroke-width="2.50819" stroke-miterlimit="10"/>
<path d="M494.989 392.225C493.049 392.225 491.477 390.982 491.477 389.449C491.477 387.916 493.049 386.674 494.989 386.674C496.928 386.674 498.5 387.916 498.5 389.449C498.5 390.982 496.928 392.225 494.989 392.225Z" fill="white" stroke="#5575B8" stroke-width="2.50819" stroke-miterlimit="10"/>
<path d="M461.183 389.482C459.446 389.482 458.039 388.329 458.039 386.907C458.039 385.485 459.446 384.332 461.183 384.332C462.919 384.332 464.326 385.485 464.326 386.907C464.326 388.329 462.919 389.482 461.183 389.482Z" fill="white" stroke="#5575B8" stroke-width="2.50819" stroke-miterlimit="10"/>
<path d="M494.652 392.224C494.652 392.224 484.987 399.214 478.399 398.679C471.811 398.144 463.551 395.702 460.842 389.449" stroke="#5575B8" stroke-width="2.50819" stroke-miterlimit="10"/>
<path d="M187.305 512.081C210.333 512.081 229.001 493.414 229.001 470.386C229.001 447.358 210.333 428.69 187.305 428.69C164.277 428.69 145.609 447.358 145.609 470.386C145.609 493.414 164.277 512.081 187.305 512.081Z" stroke="#494949" stroke-width="5.07866" stroke-miterlimit="10"/>
<path d="M44.6962 509.187C67.7241 509.187 86.3918 490.519 86.3918 467.491C86.3918 444.463 67.7241 425.796 44.6962 425.796C21.6683 425.796 3 444.463 3 467.491C3 490.519 21.6683 509.187 44.6962 509.187Z" stroke="#494949" stroke-width="5.07866" stroke-miterlimit="10"/>
<path d="M60.998 398.067H95.5332L93.3999 402.028H62.8263L60.998 398.067Z" fill="#494949"/>
<path d="M76.3887 400.047L108.486 473.027L168.109 404.973L162.522 392.48H159.628L163.081 402.028L107.521 467.695L82.5336 400.047H76.3887Z" fill="#494949"/>
<path d="M42.1074 466.374L95.535 437.375L107.521 472.468L42.1074 469.015" fill="#494949"/>
<path d="M90.459 432.042L163.083 402.027L160.544 409.442L93.4552 437.375L90.459 432.042Z" fill="#494949"/>
<path d="M44.6977 472.469C47.4465 472.469 49.6747 470.24 49.6747 467.492C49.6747 464.743 47.4465 462.515 44.6977 462.515C41.9489 462.515 39.7207 464.743 39.7207 467.492C39.7207 470.24 41.9489 472.469 44.6977 472.469Z" fill="#494949"/>
<path d="M187.307 473.991C190.056 473.991 192.284 471.763 192.284 469.014C192.284 466.265 190.056 464.037 187.307 464.037C184.558 464.037 182.33 466.265 182.33 469.014C182.33 471.763 184.558 473.991 187.307 473.991Z" fill="#494949"/>
<path d="M127.582 359.418C127.582 359.418 130.833 370.846 132.407 371.912C133.982 372.928 155.565 382.425 156.733 383.694C157.902 384.964 161.101 391.363 161.71 391.363C162.269 391.363 167.551 390.703 167.704 389.23C167.856 387.808 167.856 383.034 164.859 382.222C161.863 381.46 157.75 380.343 157.75 380.343C157.75 380.343 136.572 363.786 136.216 363.532C135.861 363.278 132.457 355.609 132.457 355.609L127.582 359.418Z" fill="#CAA786"/>
<path d="M123.213 361.348C123.213 361.348 126.463 372.775 128.037 373.842C129.612 374.857 151.196 384.355 152.364 385.624C153.532 386.894 156.732 393.293 157.341 393.293C157.951 393.293 163.182 392.633 163.334 391.16C163.487 389.738 163.486 384.964 160.49 384.151C157.494 383.39 153.38 382.272 153.38 382.272C153.38 382.272 132.202 365.716 131.846 365.462C131.491 365.208 128.088 357.539 128.088 357.539L123.213 361.348Z" fill="#F7C38F"/>
<path d="M105.387 415.232C105.387 415.232 111.532 429.097 111.583 431.534C111.684 433.972 92.6396 461.041 91.37 463.682C90.1003 466.323 89.8467 467.695 89.8467 467.695L84.8691 466.882C84.8691 466.882 93.5536 436.816 95.0265 434.785C96.4993 432.753 101.07 428.386 101.07 428.386L95.6867 416.095L105.387 415.232Z" fill="#F7C38F"/>
<path d="M117.576 395.426C117.576 395.426 134.234 401.774 134.183 404.009C134.132 406.243 133.066 410.814 133.066 410.814L106.707 430.418L105.387 423.358C105.387 423.358 113.665 409.748 116.458 409.494C119.201 409.24 118.489 406.7 118.489 406.7L111.431 402.79L117.576 395.426Z" fill="#F7C38F"/>
<path d="M122.755 394.156L111.988 406.802L99.0371 395.476L99.5957 382.627L110.667 384.456L122.755 394.156Z" fill="#353535" stroke="white" stroke-width="2.53933" stroke-miterlimit="10"/>
<path d="M123.516 332.247C117.625 330.774 114.476 330.419 110.21 334.583C105.894 338.748 79.5859 373.537 79.5859 373.537C79.5859 373.537 87.8639 378.107 88.2194 378.158C88.5749 378.209 107.417 382.323 107.417 382.323C107.417 382.323 125.751 351.952 126.157 349.362C126.563 346.823 129.509 343.014 127.732 339.764C125.954 336.513 123.516 332.247 123.516 332.247Z" fill="white"/>
<path d="M122.3 333.061C119.659 332.553 116.409 330.318 114.072 332.807C111.736 335.346 108.893 336.26 109.299 340.831C109.705 345.402 119.964 366.783 119.964 366.783L134.235 357.641L122.3 333.061Z" fill="#FFEB73" stroke="white" stroke-width="2.53933" stroke-miterlimit="10"/>
<path d="M108.333 384.048L82.3807 373.993C82.3807 373.993 74.6104 384.709 74.7119 388.568C74.8135 392.428 93.8077 423.916 93.8077 423.916L112.041 416.857C112.041 416.857 99.9025 388.67 100.512 387.807C101.121 386.943 108.333 384.048 108.333 384.048Z" fill="#030304" stroke="white" stroke-width="2.53933" stroke-miterlimit="10"/>
<path d="M144.852 316.504C144.852 316.504 141.5 334.939 136.371 332.451C131.241 329.962 129.667 329.505 129.667 329.505L125.045 334.939L120.729 331.638C120.729 331.638 126.62 324.68 126.924 322.852C127.229 321.024 124.639 315.183 127.229 315.539C129.819 315.843 130.784 316.808 130.784 316.808C130.784 316.808 137.843 311.425 140.738 311.679C143.582 311.933 144.852 316.504 144.852 316.504Z" fill="#F7C38F"/>
<path d="M128.343 301.419C123.366 302.435 119.1 307.158 118.745 309.342C118.389 311.526 117.018 321.226 117.424 322.902C117.78 324.629 122.96 326.305 122.96 326.305C122.96 326.305 124.331 329.098 124.484 328.692C124.636 328.336 127.582 323.207 127.683 322.597C127.785 322.039 125.804 315.183 127.226 315.437C128.648 315.69 130.527 317.417 130.679 317.417C130.832 317.417 134.489 316.757 135.555 315.386C136.622 314.015 140.075 311.932 140.634 312.034C141.193 312.135 144.29 315.487 144.036 316.605C143.782 317.671 144.239 319.55 145.306 318.687C146.372 317.874 149.572 313.507 149.877 311.678C150.182 309.85 140.177 300.404 138.044 300.048C135.911 299.693 128.343 301.419 128.343 301.419Z" fill="#67564C"/>
<path d="M169.748 380.913L139.52 390.927L140.638 394.302L170.866 384.288L169.748 380.913Z" fill="#FFEB73"/>
<path d="M169.752 383.415L139.523 393.43L140.641 396.805L170.87 386.79L169.752 383.415Z" fill="#494949"/>
<path d="M154.904 400.046C154.904 400.046 172.578 396.694 176.438 393.444C178.876 391.412 180.958 388.924 178.571 385.775C176.946 383.642 175.067 383.033 167.347 385.216C159.628 387.4 159.628 387.4 159.628 387.4" stroke="#494949" stroke-width="5.07866" stroke-miterlimit="10"/>
<path d="M187.517 469.029L168.104 404.974L164.812 406.539L187.517 469.029Z" fill="#494949"/>
<path d="M83.0946 465.867C83.0946 465.867 76.3402 475.364 78.8795 476.177C81.4188 476.989 106.761 484.15 107.523 483.287C108.285 482.424 109.605 477.802 109.605 477.802C109.605 477.802 90.1035 472.876 90.459 471.606C90.8145 470.336 91.4747 466.629 90.459 467.543C89.4433 468.406 83.0946 465.867 83.0946 465.867Z" fill="#FFEB73" stroke="white" stroke-width="2.53933" stroke-miterlimit="10"/>
<path d="M100.576 481.783L82.2461 477.877L81.5158 481.305L99.8453 485.21L100.576 481.783Z" fill="white"/>
<path d="M1355.76 353.858C1353.67 353.802 1352.19 354.193 1352.22 355.17C1352.25 356.147 1353.59 365.471 1354.4 365.471C1355.21 365.471 1358 366.03 1357.8 364.969C1357.61 363.908 1356.35 353.83 1356.04 353.83" fill="#FBD7BF"/>
<path d="M1411.54 400.199C1413.25 410.975 1427.87 453.492 1427.87 453.492L1435.91 463.625C1435.91 463.625 1452.5 498.967 1450.9 499.498C1449.31 500.028 1439.4 504.439 1439.4 504.439C1439.4 504.439 1423.07 473.508 1421.48 471.163C1419.86 468.818 1411.57 462.062 1411.57 462.062L1394.43 430.349L1411.54 400.199Z" fill="#253C42"/>
<path d="M1419.58 377.448C1419.58 377.448 1422.4 394.56 1413.24 410.975C1404.09 427.39 1386.14 458.852 1386.14 460.22C1386.14 461.588 1384.02 470.828 1384.02 470.828L1371.34 513.596L1358.3 511.195L1379.07 405.503L1379.44 380.546L1419.58 377.448Z" fill="#375861"/>
<path d="M1392.48 275.032C1392.72 273.917 1390.09 272.404 1386.61 271.654C1383.13 270.904 1380.11 271.2 1379.87 272.316C1379.63 273.431 1382.26 274.943 1385.74 275.693C1389.22 276.443 1392.24 276.147 1392.48 275.032Z" fill="#253C42"/>
<path d="M1410.98 298.165L1409.67 290.349C1409.67 290.349 1409.78 278.428 1409.06 277.619C1408.33 276.809 1397.75 270.137 1394.99 271.561C1392.22 272.957 1388.48 274.604 1388.37 278.345C1388.26 282.085 1385.97 296.686 1388.37 296.686C1390.77 296.686 1397.27 294.704 1397.27 296.323C1397.27 297.942 1395.82 309.527 1396.8 309.527C1397.78 309.527 1411.96 302.883 1412.18 301.822C1412.41 300.762 1410.98 298.165 1410.98 298.165Z" fill="#FBD7BF"/>
<path d="M1413.88 302.019C1413.88 302.019 1423.24 309.277 1424.8 312.32C1426.36 315.363 1433.62 341.883 1433.23 347.746C1432.81 353.608 1408.72 393.166 1408.72 393.166L1399.17 387.108L1417.68 348.751L1402.91 375.188L1387.75 378.007C1387.75 378.007 1387.95 347.132 1387.75 345.122C1387.56 343.112 1394.2 312.432 1394.2 312.432L1413.88 302.019Z" fill="#FF374C"/>
<path d="M1404.37 301.152C1404.37 301.152 1392.28 304.558 1392.89 306.847C1393.51 309.136 1393.31 312.877 1394.15 312.458C1394.99 312.012 1415.23 301.794 1415.23 301.794L1414.03 297.83C1414.03 297.802 1408.36 299.533 1404.37 301.152Z" fill="#EDEDED"/>
<path d="M1389.51 314.302C1389.51 314.302 1384.77 334.96 1384.01 340.404C1383.26 345.875 1380.77 378.426 1380.77 378.426H1370.89C1370.89 378.426 1380.16 356.316 1380.22 354.25C1380.27 352.184 1380.52 331.163 1381.28 329.712C1382.03 328.26 1389.51 314.302 1389.51 314.302Z" fill="#FF374C"/>
<path d="M1403.56 278.177C1403.56 278.177 1401.02 279.35 1401.02 282.281C1401.02 285.184 1401.02 300.482 1399.51 301.292C1398 302.101 1389.29 306.066 1388.84 305.144C1388.37 304.223 1384.71 299.142 1384.71 297.802C1384.71 296.462 1385.94 288.757 1386.5 288.478C1387.06 288.199 1388.29 288.562 1388.29 288.562C1388.29 288.562 1395.04 292.079 1395.88 291.744C1396.72 291.381 1397.19 281.555 1397.19 280.745C1397.19 279.936 1396.55 275.022 1397 275.022C1397.44 275.022 1403.56 278.177 1403.56 278.177Z" fill="#033955"/>
<path d="M1410.95 280.998C1410.95 283.371 1410.4 286.916 1410.95 287.726C1411.51 288.535 1415.25 291.718 1414.33 293.002C1413.38 294.286 1412.07 298.362 1409.84 296.631C1407.58 294.9 1403.56 293.365 1403.56 291.662C1403.56 289.959 1406.46 288.34 1406.54 287.335C1406.63 286.33 1407.3 280.323 1407.3 280.323L1410.95 280.97V280.998Z" fill="#033955"/>
<path d="M1412.21 281.807C1412.77 279.629 1414.11 273.711 1412.77 270.361C1411.43 267.011 1409.31 263.661 1404.9 263.438C1400.46 263.215 1394.32 262.852 1392.31 266.872C1390.27 270.864 1390.21 271.338 1390.21 271.338C1390.21 271.338 1382.12 270.947 1381.36 271.338C1380.61 271.729 1402.8 279.685 1405.73 280.327C1408.64 280.997 1412.21 281.807 1412.21 281.807Z" fill="#033955"/>
<path d="M1452.99 503.854C1452.99 503.854 1457.32 512.005 1455.59 512.648C1453.86 513.29 1447.94 515.02 1444.42 517.086C1440.91 519.152 1428.6 520.017 1427.62 519.85C1426.64 519.682 1427.12 518.733 1429.24 517.477C1431.36 516.221 1440.15 507.343 1440.15 507.343L1452.99 503.854Z" fill="#375861"/>
<path d="M1370.89 518.51C1370.89 518.51 1370.64 527.219 1368.83 526.996C1367.04 526.745 1343.68 515.522 1343.68 514.908C1343.68 514.294 1346.24 514.294 1347.64 514.294C1349.04 514.294 1358.28 514.545 1358.81 513.68C1359.34 512.815 1370.89 518.51 1370.89 518.51Z" fill="#375861"/>
<path d="M1409.42 394.114C1409.42 394.114 1407.96 397.241 1407.63 397.241C1407.29 397.241 1395.04 390.457 1395.99 389.229C1396.94 388.001 1397.58 385.991 1398.53 386.186C1399.48 386.353 1410.53 393.221 1409.42 394.114Z" fill="#EDEDED"/>
<path d="M1336.92 339.76L1364.42 342.022L1384.74 323.988L1382.45 342.022L1365.48 354.696L1336.92 349.503" fill="#FF374C"/>
<path d="M1338.15 341.631C1334.07 340.179 1332.09 339.481 1331.89 340.57C1331.7 341.659 1331.89 348.47 1331.89 348.47L1338.87 348.107L1338.15 341.631Z" fill="#FBD7BF"/>
<path d="M1317.6 334.206L1321.48 357.432H1332.65L1335.24 333.592C1335.27 333.62 1319.22 332.922 1317.6 334.206Z" fill="#033955"/>
<path d="M1318.24 331.637C1318.24 331.637 1315.59 333.787 1316.99 333.564C1318.38 333.34 1321.06 332.95 1323.91 332.894C1327.4 332.838 1336.05 333.117 1336.05 333.117C1336.05 333.117 1336.5 332.056 1334.74 331.414C1332.98 330.772 1324.47 330.884 1323.02 330.884C1321.57 330.884 1320.28 330.716 1318.24 331.637Z" fill="#FF374C"/>
<path d="M1271.68 331.693C1270.39 330.464 1265.09 330.074 1264.33 331.106C1263.58 332.139 1259.9 355.673 1261.21 359.386C1262.52 363.099 1267.57 368.738 1267.57 368.738C1267.57 368.738 1280.86 367.398 1292.64 361.284C1304.42 355.17 1313.91 349.252 1312.94 347.521C1311.96 345.79 1308.83 344.087 1306.68 344.283C1304.53 344.478 1301.18 347.437 1301.18 347.437C1301.18 347.437 1300.21 352.49 1299.23 352.993C1298.25 353.495 1273.1 362.261 1271.9 361.507C1270.7 360.754 1269.53 355.198 1269.64 354.444C1269.75 353.691 1273.18 333.116 1271.68 331.693Z" fill="#FBD7BF"/>
<path d="M1257.5 420.717C1257.5 420.717 1267.27 441.711 1266.32 445.284C1265.37 448.857 1262.63 473.619 1262.07 476.327C1261.52 479.035 1263.67 508.71 1265.31 509.184C1266.96 509.659 1269.95 513.065 1270.39 510.636C1270.87 508.207 1278.01 453.743 1277.79 451.928C1277.57 450.113 1277.09 423.481 1275.36 422.979C1273.63 422.476 1257.5 420.717 1257.5 420.717Z" fill="#FBD7BF"/>
<path d="M1264.5 507.732L1261.62 516.219C1261.62 516.219 1266.09 517.14 1266.31 517.252C1266.54 517.335 1266.51 515.437 1267.24 515.604C1267.96 515.772 1270.59 517.642 1271.17 518.117C1271.76 518.592 1284.21 521.662 1284.35 521.216C1284.49 520.769 1286.81 520.099 1284.91 519.596C1283.01 519.066 1280.47 517.28 1280.05 517.084C1279.63 516.889 1273.15 507.9 1272.68 507.704C1272.21 507.509 1270.87 507.453 1270.53 508.29C1270.2 509.1 1270.22 509.212 1268.1 508.765C1265.98 508.263 1264.5 507.732 1264.5 507.732Z" fill="#FC9AB2"/>
<path d="M1240.8 422.839C1240.8 422.839 1249.37 444.195 1247.98 447.712C1246.58 451.229 1241.19 475.824 1240.33 478.504C1239.46 481.184 1238.9 510.887 1240.64 511.417C1242.37 511.948 1245.27 515.465 1246.02 513.092C1246.78 510.719 1259.87 456.617 1259.79 454.803C1259.73 452.988 1261.82 426.384 1259.98 425.798C1258.19 425.239 1240.8 422.839 1240.8 422.839Z" fill="#FBD7BF"/>
<path d="M1239.32 510.023L1235.78 518.23C1235.78 518.23 1240.1 519.375 1240.3 519.486C1240.49 519.598 1240.63 517.728 1241.33 517.923C1242.06 518.119 1244.49 520.101 1245.02 520.603C1245.55 521.106 1257.58 524.79 1257.77 524.344C1257.97 523.897 1260.29 523.395 1258.44 522.781C1256.6 522.166 1254.26 520.268 1253.87 520.045C1253.47 519.821 1247.84 510.637 1247.36 510.414C1246.91 510.19 1245.6 510.079 1245.18 510.86C1244.76 511.642 1244.79 511.754 1242.75 511.195C1240.74 510.609 1239.32 510.023 1239.32 510.023Z" fill="#FC9AB2"/>
<path d="M1224.11 418.848C1223.24 424.124 1227.63 430.237 1235.14 426.329C1242.64 422.393 1245.38 437.803 1253.89 432.666C1262.41 427.53 1257.64 426.943 1264.48 426.636C1271.31 426.329 1290.41 440.511 1288.71 432.08C1287 423.621 1274.72 377.14 1275.39 369.91C1276.06 362.68 1283.57 347.884 1282.57 341.854C1281.53 335.824 1275.39 322.843 1275.39 322.843C1268.22 321.95 1265.51 316.729 1257.75 320.191C1245.74 325.551 1254.01 360.167 1244.46 372.255" fill="#FC9AB2"/>
<path d="M1262.22 325.886C1260.93 324.658 1255.63 324.267 1254.87 325.3C1254.12 326.361 1250.43 349.866 1251.75 353.579C1253.03 357.292 1258.11 362.931 1258.11 362.931C1258.11 362.931 1271.4 361.591 1283.18 355.477C1294.96 349.364 1304.45 343.445 1303.48 341.715C1302.5 339.984 1299.37 338.281 1297.22 338.476C1295.07 338.672 1291.72 341.631 1291.72 341.631C1291.72 341.631 1290.75 346.684 1289.77 347.186C1288.79 347.689 1263.64 356.454 1262.44 355.701C1261.24 354.947 1260.07 349.391 1260.18 348.638C1260.26 347.856 1263.72 327.31 1262.22 325.886Z" fill="#FBD7BF"/>
<path d="M1277.45 296.086C1279.07 293.601 1283.29 291.102 1285.08 291.158C1286.84 291.213 1288.68 292.135 1289.49 294.424C1290.3 296.741 1290.08 301.794 1289.99 302.631C1289.91 303.469 1288.73 313.407 1285.66 313.351C1282.59 313.295 1275.92 311.481 1275.84 312.123C1275.75 312.765 1271.79 323.931 1271.79 323.931L1263 320.414C1263 320.414 1269.81 311.927 1269.81 311.341C1269.81 310.755 1268.72 298.182 1269.81 298.043C1270.9 297.903 1272.38 301.542 1272.88 301.542C1273.38 301.542 1276.72 297.202 1277.45 296.086Z" fill="#FBD7BF"/>
<path d="M1289.15 293.921C1290.72 296.406 1292.17 297.858 1293.45 294.284C1294.74 290.739 1292.87 290.683 1292.03 289.65C1291.19 288.617 1292.34 285.854 1291.3 285.63C1290.27 285.407 1289.91 287.305 1288.29 286.328C1286.67 285.351 1286.31 282.559 1283.88 282.894C1281.45 283.229 1282.9 286.44 1279.97 285.044C1277.01 283.648 1265.2 279.656 1263.95 282.866C1262.69 286.077 1265.03 289.957 1261.52 289.901C1258 289.846 1255.99 291.074 1255.99 295.066C1255.99 299.058 1264.03 295.457 1257.64 301.543C1251.24 307.628 1250.94 301.068 1250.38 301.543C1249.82 302.017 1244.52 308.075 1248.12 308.159C1251.72 308.242 1247.25 311.927 1249.01 313.1C1250.77 314.272 1252.5 308.661 1254.45 313.491C1256.41 318.32 1249.62 318.711 1250.55 320.135C1251.5 321.531 1254.68 319.605 1256.72 320.442C1258.73 321.279 1257.89 327.114 1260.37 327.282C1262.86 327.449 1263.33 321.224 1265.06 322.005C1266.77 322.787 1272.63 322.871 1271.32 320.442C1270 318.013 1267.52 315.724 1268.75 314.635C1269.98 313.547 1271.18 312.43 1270.87 310.532C1270.56 308.633 1270.62 309.471 1270.12 305.228C1269.61 300.845 1270 299.365 1270.87 299.505C1272.01 299.672 1271.48 302.38 1272.96 302.017C1274.44 301.626 1279.08 298.723 1279.08 296.518C1279.08 294.312 1280.56 293.614 1282.45 293.307C1284.38 292.972 1288.51 292.916 1289.15 293.921Z" fill="#FFEB73"/>
<path d="M1277.45 284.962C1278.99 289.764 1273.66 295.515 1274.27 290.378C1274.88 285.214 1277.15 283.846 1274.88 285.214C1272.62 286.582 1270.17 288.982 1269.25 285.214C1268.83 283.567 1275.5 284.237 1275.5 283.595C1275.5 282.952 1270.61 280.663 1273.91 278.681C1275.81 277.537 1277.15 282.785 1277.15 282.785C1277.15 282.785 1278.74 276.42 1281.05 278.905C1281.95 279.882 1277.73 283.008 1278.43 283.092C1279.13 283.176 1283.76 281.166 1283.85 282.534C1284.07 286.33 1278.49 283.79 1278.74 284.097C1278.99 284.404 1284.07 287.726 1282.28 289.904C1279.69 293.058 1277.26 284.404 1277.45 284.962Z" fill="#FC9AB2"/>
</svg>
