<svg width="1121" height="532" viewBox="0 0 1121 532" fill="none" xmlns="http://www.w3.org/2000/svg">
<ellipse rx="45.4455" ry="83.9239" transform="matrix(-1 0 0 1 1074.6 235.23)" fill="#EB5A46"/>
<path d="M1074.66 151.306V386.587" stroke="#1E5B60" stroke-width="1.27835"/>
<path d="M1074.66 274.923L1094.79 246.991" stroke="#1E5B60" stroke-width="1.27835"/>
<path d="M1074.66 233.377L1045 203.016" stroke="#1E5B60" stroke-width="1.27835"/>
<path d="M1074.66 198.861L1094.86 182.434" stroke="#1E5B60" stroke-width="1.27835"/>
<ellipse rx="45.4455" ry="83.9239" transform="matrix(-1 0 0 1 808.59 164.458)" fill="#EB5A46"/>
<path d="M808.654 80.5337V315.815" stroke="#1E5B60" stroke-width="1.27835"/>
<path d="M808.653 204.15L828.787 176.218" stroke="#1E5B60" stroke-width="1.27835"/>
<path d="M808.654 162.605L778.996 132.244" stroke="#1E5B60" stroke-width="1.27835"/>
<path d="M808.652 128.088L828.85 111.661" stroke="#1E5B60" stroke-width="1.27835"/>
<ellipse rx="45.4455" ry="83.9239" transform="matrix(-1 0 0 1 463.713 192.509)" fill="#EB5A46"/>
<path d="M463.777 108.584V343.866" stroke="#1E5B60" stroke-width="1.27835"/>
<path d="M463.776 232.202L483.91 204.27" stroke="#1E5B60" stroke-width="1.27835"/>
<path d="M463.777 190.655L434.12 160.294" stroke="#1E5B60" stroke-width="1.27835"/>
<path d="M463.775 156.139L483.973 139.712" stroke="#1E5B60" stroke-width="1.27835"/>
<ellipse rx="59.7901" ry="110.414" transform="matrix(-1 0 0 1 944.956 332.494)" fill="#FFE79D"/>
<path d="M945.041 222.079V531.625" stroke="#1E5B60" stroke-width="1.68186"/>
<path d="M945.04 384.714L971.529 347.965" stroke="#1E5B60" stroke-width="1.68186"/>
<path d="M945.041 330.054L906.022 290.11" stroke="#1E5B60" stroke-width="1.68186"/>
<path d="M945.04 284.644L971.613 263.032" stroke="#1E5B60" stroke-width="1.68186"/>
<ellipse rx="45.4455" ry="83.9239" transform="matrix(-1 0 0 1 752.021 102.646)" fill="#FFE79D"/>
<path d="M752.086 18.7217V254.003" stroke="#1E5B60" stroke-width="1.27835"/>
<path d="M752.085 142.338L772.219 114.406" stroke="#1E5B60" stroke-width="1.27835"/>
<path d="M752.086 100.791L722.428 70.4303" stroke="#1E5B60" stroke-width="1.27835"/>
<path d="M752.087 66.2757L772.285 49.8489" stroke="#1E5B60" stroke-width="1.27835"/>
<ellipse rx="45.4455" ry="83.9239" transform="matrix(-1 0 0 1 883.076 328.87)" fill="#CAE35E"/>
<path d="M883.141 244.946V480.227" stroke="#1E5B60" stroke-width="1.27835"/>
<path d="M883.139 368.563L903.273 340.631" stroke="#1E5B60" stroke-width="1.27835"/>
<path d="M883.141 327.015L853.483 296.654" stroke="#1E5B60" stroke-width="1.27835"/>
<path d="M883.142 292.501L903.34 276.074" stroke="#1E5B60" stroke-width="1.27835"/>
<ellipse rx="45.4455" ry="83.9239" transform="matrix(-1 0 0 1 572.299 155.066)" fill="#CAE35E"/>
<path d="M572.363 71.1411V306.422" stroke="#1E5B60" stroke-width="1.27835"/>
<path d="M572.362 194.758L592.496 166.826" stroke="#1E5B60" stroke-width="1.27835"/>
<path d="M572.363 153.211L542.705 122.85" stroke="#1E5B60" stroke-width="1.27835"/>
<path d="M572.365 118.696L592.562 102.269" stroke="#1E5B60" stroke-width="1.27835"/>
<ellipse rx="45.4455" ry="83.9239" transform="matrix(-1 0 0 1 620.972 211.23)" fill="#EB5A46"/>
<path d="M621.037 127.305V362.586" stroke="#1E5B60" stroke-width="1.27835"/>
<path d="M621.036 250.922L641.17 222.99" stroke="#1E5B60" stroke-width="1.27835"/>
<path d="M621.037 209.376L591.379 179.015" stroke="#1E5B60" stroke-width="1.27835"/>
<path d="M621.034 174.86L641.232 158.433" stroke="#1E5B60" stroke-width="1.27835"/>
<ellipse rx="45.4455" ry="83.9239" transform="matrix(-1 0 0 1 980.426 83.9239)" fill="#CAE35E"/>
<path d="M980.49 0V235.281" stroke="#1E5B60" stroke-width="1.27835"/>
<path d="M980.489 123.617L1000.62 95.6851" stroke="#1E5B60" stroke-width="1.27835"/>
<path d="M980.49 82.0695L950.832 51.7086" stroke="#1E5B60" stroke-width="1.27835"/>
<path d="M980.491 47.5551L1000.69 31.1283" stroke="#1E5B60" stroke-width="1.27835"/>
<path d="M721.297 394.864C721.297 394.864 770.618 383.535 752.831 358.295C735.043 333.055 719.255 360.336 717.756 355.713C716.215 351.089 730.961 313.479 711.132 311.896C691.304 310.355 684.181 339.219 681.64 336.095C679.099 333.013 667.393 306.315 656.229 318.644C645.024 330.931 654.229 349.757 648.148 349.757C642.024 349.757 623.612 350.381 622.779 364.084C622.154 374.664 642.732 386.493 638.15 387.034C633.568 387.534 604.95 401.445 636.359 407.734C667.351 413.94 714.673 407.859 714.673 407.859C714.673 407.859 742.75 403.861 736.835 400.737C730.919 397.613 721.297 394.864 721.297 394.864Z" fill="#FFCB27"/>
<path d="M569.033 424.522C569.033 424.522 519.712 413.193 537.499 387.952C555.287 362.712 571.075 389.993 572.574 385.37C574.116 380.747 559.369 343.136 579.198 341.553C599.026 340.012 606.149 368.876 608.69 365.752C611.231 362.67 622.937 335.972 634.101 348.301C645.307 360.588 636.101 379.414 642.182 379.414C648.306 379.414 666.718 380.039 667.551 393.742C668.176 404.321 647.598 416.15 652.18 416.691C656.762 417.191 685.38 431.102 653.971 437.392C622.979 443.598 575.657 437.517 575.657 437.517C575.657 437.517 547.58 433.518 553.496 430.394C559.411 427.271 569.033 424.522 569.033 424.522Z" fill="#EB5A46"/>
<path d="M668.373 433.24C668.373 433.24 619.052 421.911 636.839 396.671C654.627 371.431 670.414 398.712 671.914 394.089C673.455 389.465 658.709 351.855 678.537 350.272C698.366 348.731 705.489 377.595 708.03 374.471C710.571 371.389 722.277 344.691 733.441 357.02C744.646 369.307 735.44 388.133 741.522 388.133C747.646 388.133 766.058 388.757 766.891 402.46C767.516 413.04 746.938 424.868 751.52 425.41C756.102 425.91 784.72 439.821 753.311 446.11C722.318 452.316 674.997 446.235 674.997 446.235C674.997 446.235 646.92 442.237 652.835 439.113C658.751 435.989 668.373 433.24 668.373 433.24Z" fill="#CAE35E"/>
<path d="M632.552 467.462H727.172C727.172 441.593 705.987 420.624 679.848 420.624C653.737 420.624 632.552 441.593 632.552 467.462Z" fill="white" stroke="#5574B7" stroke-width="2.6919" stroke-miterlimit="10"/>
<path d="M428.855 397.496C420.951 397.496 414.544 390.611 414.544 382.117C414.544 373.624 420.951 366.739 428.855 366.739C436.759 366.739 443.166 373.624 443.166 382.117C443.166 390.611 436.759 397.496 428.855 397.496Z" fill="white" stroke="#5575B8" stroke-width="2.16395" stroke-miterlimit="10"/>
<path d="M445.795 406.786C443.819 406.786 442.218 405.521 442.218 403.959C442.218 402.397 443.819 401.131 445.795 401.131C447.771 401.131 449.373 402.397 449.373 403.959C449.373 405.521 447.771 406.786 445.795 406.786Z" fill="white" stroke="#5575B8" stroke-width="2.16395" stroke-miterlimit="10"/>
<path d="M445.422 406.787C445.422 406.787 435.583 413.885 428.86 413.337C422.138 412.788 413.742 410.278 411.001 403.959" stroke="#5575B8" stroke-width="2.16395" stroke-miterlimit="10"/>
<path d="M444.008 423.175C442.334 423.175 440.978 422.103 440.978 420.781C440.978 419.458 442.334 418.386 444.008 418.386C445.681 418.386 447.037 419.458 447.037 420.781C447.037 422.103 445.681 423.175 444.008 423.175Z" fill="white" stroke="#5575B8" stroke-width="2.16395" stroke-miterlimit="10"/>
<path d="M414.841 420.809C413.343 420.809 412.128 419.814 412.128 418.587C412.128 417.36 413.343 416.366 414.841 416.366C416.338 416.366 417.553 417.36 417.553 418.587C417.553 419.814 416.338 420.809 414.841 420.809Z" fill="white" stroke="#5575B8" stroke-width="2.16395" stroke-miterlimit="10"/>
<path d="M443.721 423.175C443.721 423.175 435.382 429.206 429.698 428.744C424.014 428.282 416.888 426.176 414.551 420.781" stroke="#5575B8" stroke-width="2.16395" stroke-miterlimit="10"/>
<path d="M495.598 362.244C486.437 362.244 479.011 354.264 479.011 344.419C479.011 334.575 486.437 326.594 495.598 326.594C504.759 326.594 512.186 334.575 512.186 344.419C512.186 354.264 504.759 362.244 495.598 362.244Z" fill="white" stroke="#5575B8" stroke-width="2.50819" stroke-miterlimit="10"/>
<path d="M495.598 355.222C490.057 355.222 485.565 350.385 485.565 344.42C485.565 338.454 490.057 333.618 495.598 333.618C501.139 333.618 505.631 338.454 505.631 344.42C505.631 350.385 501.139 355.222 495.598 355.222Z" fill="white" stroke="#5575B8" stroke-width="2.50819" stroke-miterlimit="10"/>
<path d="M495.6 362.243V428.125" stroke="#5575B8" stroke-width="2.50819" stroke-miterlimit="10"/>
<path d="M515.232 373.013C512.942 373.013 511.085 371.546 511.085 369.736C511.085 367.926 512.942 366.458 515.232 366.458C517.522 366.458 519.379 367.926 519.379 369.736C519.379 371.546 517.522 373.013 515.232 373.013Z" fill="white" stroke="#5575B8" stroke-width="2.50819" stroke-miterlimit="10"/>
<path d="M475.339 369.768C473.289 369.768 471.627 368.406 471.627 366.725C471.627 365.044 473.289 363.682 475.339 363.682C477.389 363.682 479.051 365.044 479.051 366.725C479.051 368.406 477.389 369.768 475.339 369.768Z" fill="white" stroke="#5575B8" stroke-width="2.50819" stroke-miterlimit="10"/>
<path d="M514.793 373.013C514.793 373.013 503.389 381.24 495.597 380.604C487.805 379.969 478.073 377.059 474.896 369.735" stroke="#5575B8" stroke-width="2.50819" stroke-miterlimit="10"/>
<path d="M505.099 407.793C503.658 407.793 502.49 406.775 502.49 405.519C502.49 404.263 503.658 403.245 505.099 403.245C506.539 403.245 507.707 404.263 507.707 405.519C507.707 406.775 506.539 407.793 505.099 407.793Z" fill="white" stroke="#5575B8" stroke-width="2.50819" stroke-miterlimit="10"/>
<path d="M486.537 406.155C485.208 406.155 484.13 405.212 484.13 404.048C484.13 402.884 485.208 401.941 486.537 401.941C487.867 401.941 488.945 402.884 488.945 404.048C488.945 405.212 487.867 406.155 486.537 406.155Z" fill="white" stroke="#5575B8" stroke-width="2.50819" stroke-miterlimit="10"/>
<path d="M505.096 407.86C505.096 407.86 499.778 412.141 496.133 411.807C492.488 411.472 487.94 409.967 486.468 406.155" stroke="#5575B8" stroke-width="2.50819" stroke-miterlimit="10"/>
<path d="M513.16 392.008C511.221 392.008 509.649 390.766 509.649 389.233C509.649 387.7 511.221 386.457 513.16 386.457C515.1 386.457 516.672 387.7 516.672 389.233C516.672 390.766 515.1 392.008 513.16 392.008Z" fill="white" stroke="#5575B8" stroke-width="2.50819" stroke-miterlimit="10"/>
<path d="M479.354 389.266C477.618 389.266 476.211 388.113 476.211 386.691C476.211 385.268 477.618 384.115 479.354 384.115C481.091 384.115 482.498 385.268 482.498 386.691C482.498 388.113 481.091 389.266 479.354 389.266Z" fill="white" stroke="#5575B8" stroke-width="2.50819" stroke-miterlimit="10"/>
<path d="M512.824 392.008C512.824 392.008 503.159 398.997 496.571 398.462C489.983 397.927 481.723 395.486 479.014 389.232" stroke="#5575B8" stroke-width="2.50819" stroke-miterlimit="10"/>
<path d="M187.305 477.081C210.333 477.081 229.001 458.413 229.001 435.386C229.001 412.358 210.333 393.69 187.305 393.69C164.277 393.69 145.609 412.358 145.609 435.386C145.609 458.413 164.277 477.081 187.305 477.081Z" stroke="#494949" stroke-width="5.07866" stroke-miterlimit="10"/>
<path d="M44.6962 474.187C67.7241 474.187 86.3918 455.519 86.3918 432.491C86.3918 409.463 67.7241 390.796 44.6962 390.796C21.6683 390.796 3 409.463 3 432.491C3 455.519 21.6683 474.187 44.6962 474.187Z" stroke="#494949" stroke-width="5.07866" stroke-miterlimit="10"/>
<path d="M60.998 363.067H95.5332L93.3999 367.028H62.8263L60.998 363.067Z" fill="#494949"/>
<path d="M76.3887 365.047L108.486 438.027L168.109 369.973L162.522 357.48H159.628L163.081 367.028L107.521 432.695L82.5336 365.047H76.3887Z" fill="#494949"/>
<path d="M42.1074 431.374L95.535 402.375L107.521 437.468L42.1074 434.015" fill="#494949"/>
<path d="M90.459 397.042L163.083 367.027L160.544 374.442L93.4552 402.374L90.459 397.042Z" fill="#494949"/>
<path d="M44.6977 437.469C47.4465 437.469 49.6747 435.24 49.6747 432.492C49.6747 429.743 47.4465 427.515 44.6977 427.515C41.9489 427.515 39.7207 429.743 39.7207 432.492C39.7207 435.24 41.9489 437.469 44.6977 437.469Z" fill="#494949"/>
<path d="M187.307 438.991C190.056 438.991 192.284 436.763 192.284 434.014C192.284 431.265 190.056 429.037 187.307 429.037C184.558 429.037 182.33 431.265 182.33 434.014C182.33 436.763 184.558 438.991 187.307 438.991Z" fill="#494949"/>
<path d="M127.582 324.418C127.582 324.418 130.833 335.846 132.407 336.912C133.982 337.928 155.565 347.425 156.733 348.694C157.902 349.964 161.101 356.363 161.71 356.363C162.269 356.363 167.551 355.703 167.704 354.23C167.856 352.808 167.856 348.034 164.859 347.222C161.863 346.46 157.75 345.343 157.75 345.343C157.75 345.343 136.572 328.786 136.216 328.532C135.861 328.278 132.457 320.609 132.457 320.609L127.582 324.418Z" fill="#CAA786"/>
<path d="M123.213 326.348C123.213 326.348 126.463 337.775 128.037 338.842C129.612 339.857 151.196 349.355 152.364 350.624C153.532 351.894 156.732 358.293 157.341 358.293C157.951 358.293 163.182 357.633 163.334 356.16C163.487 354.738 163.486 349.964 160.49 349.151C157.494 348.39 153.38 347.272 153.38 347.272C153.38 347.272 132.202 330.716 131.846 330.462C131.491 330.208 128.088 322.539 128.088 322.539L123.213 326.348Z" fill="#F7C38F"/>
<path d="M105.387 380.232C105.387 380.232 111.532 394.097 111.583 396.534C111.684 398.972 92.6396 426.041 91.37 428.682C90.1003 431.323 89.8467 432.694 89.8467 432.694L84.8691 431.882C84.8691 431.882 93.5536 401.816 95.0265 399.785C96.4993 397.753 101.07 393.386 101.07 393.386L95.6867 381.095L105.387 380.232Z" fill="#F7C38F"/>
<path d="M117.576 360.426C117.576 360.426 134.234 366.774 134.183 369.009C134.132 371.243 133.066 375.814 133.066 375.814L106.707 395.418L105.387 388.359C105.387 388.359 113.665 374.748 116.458 374.494C119.201 374.24 118.489 371.701 118.489 371.701L111.431 367.79L117.576 360.426Z" fill="#F7C38F"/>
<path d="M122.755 359.156L111.988 371.802L99.0371 360.476L99.5957 347.627L110.667 349.456L122.755 359.156Z" fill="#353535" stroke="white" stroke-width="2.53933" stroke-miterlimit="10"/>
<path d="M123.516 297.247C117.625 295.774 114.476 295.419 110.21 299.583C105.894 303.748 79.5859 338.537 79.5859 338.537C79.5859 338.537 87.8639 343.107 88.2194 343.158C88.5749 343.209 107.417 347.323 107.417 347.323C107.417 347.323 125.751 316.952 126.157 314.362C126.563 311.823 129.509 308.014 127.732 304.764C125.954 301.513 123.516 297.247 123.516 297.247Z" fill="white"/>
<path d="M122.3 298.061C119.659 297.553 116.409 295.318 114.072 297.807C111.736 300.346 108.893 301.26 109.299 305.831C109.705 310.402 119.964 331.783 119.964 331.783L134.235 322.641L122.3 298.061Z" fill="#FFEB73" stroke="white" stroke-width="2.53933" stroke-miterlimit="10"/>
<path d="M108.333 349.048L82.3807 338.993C82.3807 338.993 74.6104 349.709 74.7119 353.568C74.8135 357.428 93.8077 388.916 93.8077 388.916L112.041 381.857C112.041 381.857 99.9025 353.67 100.512 352.807C101.121 351.943 108.333 349.048 108.333 349.048Z" fill="#030304" stroke="white" stroke-width="2.53933" stroke-miterlimit="10"/>
<path d="M144.852 281.504C144.852 281.504 141.5 299.939 136.371 297.451C131.241 294.962 129.667 294.505 129.667 294.505L125.045 299.939L120.729 296.638C120.729 296.638 126.62 289.68 126.924 287.852C127.229 286.024 124.639 280.183 127.229 280.539C129.819 280.843 130.784 281.808 130.784 281.808C130.784 281.808 137.843 276.425 140.738 276.679C143.582 276.933 144.852 281.504 144.852 281.504Z" fill="#F7C38F"/>
<path d="M128.343 266.419C123.366 267.435 119.1 272.158 118.745 274.342C118.389 276.526 117.018 286.226 117.424 287.902C117.78 289.629 122.96 291.305 122.96 291.305C122.96 291.305 124.331 294.098 124.484 293.692C124.636 293.336 127.582 288.207 127.683 287.597C127.785 287.039 125.804 280.183 127.226 280.437C128.648 280.69 130.527 282.417 130.679 282.417C130.832 282.417 134.489 281.757 135.555 280.386C136.622 279.015 140.075 276.932 140.634 277.034C141.193 277.135 144.29 280.487 144.036 281.605C143.782 282.671 144.239 284.55 145.306 283.687C146.372 282.874 149.572 278.507 149.877 276.678C150.182 274.85 140.177 265.404 138.044 265.048C135.911 264.693 128.343 266.419 128.343 266.419Z" fill="#67564C"/>
<path d="M169.748 345.913L139.52 355.927L140.638 359.302L170.866 349.288L169.748 345.913Z" fill="#FFEB73"/>
<path d="M169.752 348.415L139.523 358.43L140.641 361.805L170.87 351.79L169.752 348.415Z" fill="#494949"/>
<path d="M154.904 365.046C154.904 365.046 172.578 361.694 176.438 358.444C178.876 356.412 180.958 353.924 178.571 350.775C176.946 348.642 175.067 348.033 167.347 350.216C159.628 352.4 159.628 352.4 159.628 352.4" stroke="#494949" stroke-width="5.07866" stroke-miterlimit="10"/>
<path d="M187.517 434.029L168.104 369.974L164.812 371.539L187.517 434.029Z" fill="#494949"/>
<path d="M83.0946 430.867C83.0946 430.867 76.3402 440.364 78.8795 441.177C81.4188 441.989 106.761 449.15 107.523 448.287C108.285 447.424 109.605 442.802 109.605 442.802C109.605 442.802 90.1035 437.876 90.459 436.606C90.8145 435.336 91.4747 431.629 90.459 432.543C89.4433 433.406 83.0946 430.867 83.0946 430.867Z" fill="#FFEB73" stroke="white" stroke-width="2.53933" stroke-miterlimit="10"/>
<path d="M100.576 446.783L82.2461 442.877L81.5158 446.305L99.8453 450.21L100.576 446.783Z" fill="white"/>
</svg>
